G04 #@! TF.FileFunction,Legend,Bot*
%FSLAX46Y46*%
G04 Gerber Fmt 4.6, Leading zero omitted, Abs format (unit mm)*
G04 Created by KiCad (PCBNEW 4.0.7) date 06/14/18 07:59:11*
%MOMM*%
%LPD*%
G01*
G04 APERTURE LIST*
%ADD10C,0.100000*%
%ADD11C,0.120000*%
%ADD12C,0.150000*%
G04 APERTURE END LIST*
D10*
D11*
X146296000Y-91274000D02*
X145296000Y-91274000D01*
X145296000Y-89574000D02*
X146296000Y-89574000D01*
X145788000Y-96862000D02*
X144788000Y-96862000D01*
X144788000Y-95162000D02*
X145788000Y-95162000D01*
X154948000Y-94146000D02*
X155948000Y-94146000D01*
X155948000Y-95846000D02*
X154948000Y-95846000D01*
X157494000Y-107314000D02*
X163294000Y-107314000D01*
X157494000Y-104014000D02*
X163294000Y-104014000D01*
X157494000Y-107314000D02*
X157494000Y-104014000D01*
D12*
X139123000Y-112845000D02*
X139123000Y-112620000D01*
X146373000Y-112845000D02*
X146373000Y-112520000D01*
X146373000Y-105595000D02*
X146373000Y-105920000D01*
X139123000Y-105595000D02*
X139123000Y-105920000D01*
X139123000Y-112845000D02*
X139448000Y-112845000D01*
X139123000Y-105595000D02*
X139448000Y-105595000D01*
X146373000Y-105595000D02*
X146048000Y-105595000D01*
X146373000Y-112845000D02*
X146048000Y-112845000D01*
X139123000Y-112620000D02*
X137698000Y-112620000D01*
D11*
X143708000Y-92712000D02*
X144638000Y-92712000D01*
X146868000Y-92712000D02*
X145938000Y-92712000D01*
X146868000Y-92712000D02*
X146868000Y-94872000D01*
X143708000Y-92712000D02*
X143708000Y-94172000D01*
X153030000Y-103486000D02*
X153030000Y-102226000D01*
X153030000Y-96666000D02*
X153030000Y-97926000D01*
X156790000Y-103486000D02*
X153030000Y-103486000D01*
X159040000Y-96666000D02*
X153030000Y-96666000D01*
X170540000Y-102087000D02*
X171365000Y-102087000D01*
X171365000Y-102087000D02*
X171365000Y-89937000D01*
X171365000Y-89937000D02*
X170540000Y-89937000D01*
X166990000Y-102087000D02*
X166165000Y-102087000D01*
X166165000Y-102087000D02*
X166165000Y-99787000D01*
X166990000Y-89937000D02*
X166165000Y-89937000D01*
X166165000Y-89937000D02*
X166165000Y-92237000D01*
X166165000Y-99787000D02*
X163765000Y-99787000D01*
D12*
X145962666Y-92531143D02*
X146010285Y-92578762D01*
X146153142Y-92626381D01*
X146248380Y-92626381D01*
X146391238Y-92578762D01*
X146486476Y-92483524D01*
X146534095Y-92388286D01*
X146581714Y-92197810D01*
X146581714Y-92054952D01*
X146534095Y-91864476D01*
X146486476Y-91769238D01*
X146391238Y-91674000D01*
X146248380Y-91626381D01*
X146153142Y-91626381D01*
X146010285Y-91674000D01*
X145962666Y-91721619D01*
X145629333Y-91626381D02*
X145010285Y-91626381D01*
X145343619Y-92007333D01*
X145200761Y-92007333D01*
X145105523Y-92054952D01*
X145057904Y-92102571D01*
X145010285Y-92197810D01*
X145010285Y-92435905D01*
X145057904Y-92531143D01*
X145105523Y-92578762D01*
X145200761Y-92626381D01*
X145486476Y-92626381D01*
X145581714Y-92578762D01*
X145629333Y-92531143D01*
X145454666Y-98119143D02*
X145502285Y-98166762D01*
X145645142Y-98214381D01*
X145740380Y-98214381D01*
X145883238Y-98166762D01*
X145978476Y-98071524D01*
X146026095Y-97976286D01*
X146073714Y-97785810D01*
X146073714Y-97642952D01*
X146026095Y-97452476D01*
X145978476Y-97357238D01*
X145883238Y-97262000D01*
X145740380Y-97214381D01*
X145645142Y-97214381D01*
X145502285Y-97262000D01*
X145454666Y-97309619D01*
X144597523Y-97547714D02*
X144597523Y-98214381D01*
X144835619Y-97166762D02*
X145073714Y-97881048D01*
X144454666Y-97881048D01*
X155614666Y-93603143D02*
X155662285Y-93650762D01*
X155805142Y-93698381D01*
X155900380Y-93698381D01*
X156043238Y-93650762D01*
X156138476Y-93555524D01*
X156186095Y-93460286D01*
X156233714Y-93269810D01*
X156233714Y-93126952D01*
X156186095Y-92936476D01*
X156138476Y-92841238D01*
X156043238Y-92746000D01*
X155900380Y-92698381D01*
X155805142Y-92698381D01*
X155662285Y-92746000D01*
X155614666Y-92793619D01*
X154709904Y-92698381D02*
X155186095Y-92698381D01*
X155233714Y-93174571D01*
X155186095Y-93126952D01*
X155090857Y-93079333D01*
X154852761Y-93079333D01*
X154757523Y-93126952D01*
X154709904Y-93174571D01*
X154662285Y-93269810D01*
X154662285Y-93507905D01*
X154709904Y-93603143D01*
X154757523Y-93650762D01*
X154852761Y-93698381D01*
X155090857Y-93698381D01*
X155186095Y-93650762D01*
X155233714Y-93603143D01*
X156630666Y-106021143D02*
X156678285Y-106068762D01*
X156821142Y-106116381D01*
X156916380Y-106116381D01*
X157059238Y-106068762D01*
X157154476Y-105973524D01*
X157202095Y-105878286D01*
X157249714Y-105687810D01*
X157249714Y-105544952D01*
X157202095Y-105354476D01*
X157154476Y-105259238D01*
X157059238Y-105164000D01*
X156916380Y-105116381D01*
X156821142Y-105116381D01*
X156678285Y-105164000D01*
X156630666Y-105211619D01*
X155773523Y-105116381D02*
X155964000Y-105116381D01*
X156059238Y-105164000D01*
X156106857Y-105211619D01*
X156202095Y-105354476D01*
X156249714Y-105544952D01*
X156249714Y-105925905D01*
X156202095Y-106021143D01*
X156154476Y-106068762D01*
X156059238Y-106116381D01*
X155868761Y-106116381D01*
X155773523Y-106068762D01*
X155725904Y-106021143D01*
X155678285Y-105925905D01*
X155678285Y-105687810D01*
X155725904Y-105592571D01*
X155773523Y-105544952D01*
X155868761Y-105497333D01*
X156059238Y-105497333D01*
X156154476Y-105544952D01*
X156202095Y-105592571D01*
X156249714Y-105687810D01*
X143509905Y-114768381D02*
X143509905Y-115577905D01*
X143462286Y-115673143D01*
X143414667Y-115720762D01*
X143319429Y-115768381D01*
X143128952Y-115768381D01*
X143033714Y-115720762D01*
X142986095Y-115673143D01*
X142938476Y-115577905D01*
X142938476Y-114768381D01*
X141938476Y-115768381D02*
X142509905Y-115768381D01*
X142224191Y-115768381D02*
X142224191Y-114768381D01*
X142319429Y-114911238D01*
X142414667Y-115006476D01*
X142509905Y-115054095D01*
X142835381Y-95250095D02*
X143644905Y-95250095D01*
X143740143Y-95297714D01*
X143787762Y-95345333D01*
X143835381Y-95440571D01*
X143835381Y-95631048D01*
X143787762Y-95726286D01*
X143740143Y-95773905D01*
X143644905Y-95821524D01*
X142835381Y-95821524D01*
X142930619Y-96250095D02*
X142883000Y-96297714D01*
X142835381Y-96392952D01*
X142835381Y-96631048D01*
X142883000Y-96726286D01*
X142930619Y-96773905D01*
X143025857Y-96821524D01*
X143121095Y-96821524D01*
X143263952Y-96773905D01*
X143835381Y-96202476D01*
X143835381Y-96821524D01*
X161416905Y-96353381D02*
X161416905Y-97162905D01*
X161369286Y-97258143D01*
X161321667Y-97305762D01*
X161226429Y-97353381D01*
X161035952Y-97353381D01*
X160940714Y-97305762D01*
X160893095Y-97258143D01*
X160845476Y-97162905D01*
X160845476Y-96353381D01*
X160464524Y-96353381D02*
X159845476Y-96353381D01*
X160178810Y-96734333D01*
X160035952Y-96734333D01*
X159940714Y-96781952D01*
X159893095Y-96829571D01*
X159845476Y-96924810D01*
X159845476Y-97162905D01*
X159893095Y-97258143D01*
X159940714Y-97305762D01*
X160035952Y-97353381D01*
X160321667Y-97353381D01*
X160416905Y-97305762D01*
X160464524Y-97258143D01*
X165433333Y-100544381D02*
X165433333Y-101258667D01*
X165480953Y-101401524D01*
X165576191Y-101496762D01*
X165719048Y-101544381D01*
X165814286Y-101544381D01*
X164909524Y-101544381D02*
X164719048Y-101544381D01*
X164623809Y-101496762D01*
X164576190Y-101449143D01*
X164480952Y-101306286D01*
X164433333Y-101115810D01*
X164433333Y-100734857D01*
X164480952Y-100639619D01*
X164528571Y-100592000D01*
X164623809Y-100544381D01*
X164814286Y-100544381D01*
X164909524Y-100592000D01*
X164957143Y-100639619D01*
X165004762Y-100734857D01*
X165004762Y-100972952D01*
X164957143Y-101068190D01*
X164909524Y-101115810D01*
X164814286Y-101163429D01*
X164623809Y-101163429D01*
X164528571Y-101115810D01*
X164480952Y-101068190D01*
X164433333Y-100972952D01*
M02*
