G04 #@! TF.FileFunction,Copper,L2,Bot,Signal*
%FSLAX46Y46*%
G04 Gerber Fmt 4.6, Leading zero omitted, Abs format (unit mm)*
G04 Created by KiCad (PCBNEW 4.0.7) date 06/13/18 22:56:11*
%MOMM*%
%LPD*%
G01*
G04 APERTURE LIST*
%ADD10C,0.100000*%
%ADD11C,3.500000*%
%ADD12R,1.600000X1.600000*%
%ADD13O,1.600000X1.600000*%
%ADD14R,1.500000X1.250000*%
%ADD15R,3.200000X2.500000*%
%ADD16R,1.700000X1.700000*%
%ADD17O,1.700000X1.700000*%
%ADD18R,2.600000X2.600000*%
%ADD19C,2.600000*%
%ADD20R,1.600000X0.550000*%
%ADD21R,0.550000X1.600000*%
%ADD22R,0.800000X0.900000*%
%ADD23R,2.000000X3.800000*%
%ADD24R,2.000000X1.500000*%
%ADD25R,5.500000X1.000000*%
%ADD26R,3.000000X1.600000*%
%ADD27C,0.600000*%
%ADD28C,1.000000*%
%ADD29C,0.250000*%
%ADD30C,0.400000*%
%ADD31C,0.750000*%
%ADD32C,0.550000*%
%ADD33C,0.200000*%
G04 APERTURE END LIST*
D10*
D11*
X152654000Y-81026000D03*
X169164000Y-117094000D03*
X137668000Y-116840000D03*
D12*
X162052000Y-102616000D03*
D13*
X149352000Y-84836000D03*
X162052000Y-100076000D03*
X149352000Y-87376000D03*
X162052000Y-97536000D03*
X149352000Y-89916000D03*
X162052000Y-94996000D03*
X149352000Y-92456000D03*
X162052000Y-92456000D03*
X149352000Y-94996000D03*
X162052000Y-89916000D03*
X149352000Y-97536000D03*
X162052000Y-87376000D03*
X149352000Y-100076000D03*
X162052000Y-84836000D03*
X149352000Y-102616000D03*
D14*
X144546000Y-90424000D03*
X147046000Y-90424000D03*
X144038000Y-96012000D03*
X146538000Y-96012000D03*
X156698000Y-94996000D03*
X154198000Y-94996000D03*
D15*
X159394000Y-105664000D03*
X163694000Y-105664000D03*
D16*
X139700000Y-102108000D03*
D17*
X137160000Y-102108000D03*
X139700000Y-99568000D03*
X137160000Y-99568000D03*
X139700000Y-97028000D03*
X137160000Y-97028000D03*
X139700000Y-94488000D03*
X137160000Y-94488000D03*
D16*
X157480000Y-110744000D03*
D17*
X160020000Y-110744000D03*
X157480000Y-113284000D03*
X160020000Y-113284000D03*
X157480000Y-115824000D03*
X160020000Y-115824000D03*
D18*
X141732000Y-91440000D03*
D19*
X141732000Y-85440000D03*
X137032000Y-88440000D03*
D20*
X138498000Y-112020000D03*
X138498000Y-111220000D03*
X138498000Y-110420000D03*
X138498000Y-109620000D03*
X138498000Y-108820000D03*
X138498000Y-108020000D03*
X138498000Y-107220000D03*
X138498000Y-106420000D03*
D21*
X139948000Y-104970000D03*
X140748000Y-104970000D03*
X141548000Y-104970000D03*
X142348000Y-104970000D03*
X143148000Y-104970000D03*
X143948000Y-104970000D03*
X144748000Y-104970000D03*
X145548000Y-104970000D03*
D20*
X146998000Y-106420000D03*
X146998000Y-107220000D03*
X146998000Y-108020000D03*
X146998000Y-108820000D03*
X146998000Y-109620000D03*
X146998000Y-110420000D03*
X146998000Y-111220000D03*
X146998000Y-112020000D03*
D21*
X145548000Y-113470000D03*
X144748000Y-113470000D03*
X143948000Y-113470000D03*
X143148000Y-113470000D03*
X142348000Y-113470000D03*
X141548000Y-113470000D03*
X140748000Y-113470000D03*
X139948000Y-113470000D03*
D22*
X146238000Y-94472000D03*
X144338000Y-94472000D03*
X145288000Y-92472000D03*
D23*
X151790000Y-100076000D03*
D24*
X158090000Y-100076000D03*
X158090000Y-102376000D03*
X158090000Y-97776000D03*
D16*
X151892000Y-116840000D03*
D17*
X149352000Y-116840000D03*
D16*
X144780000Y-116840000D03*
D17*
X142240000Y-116840000D03*
D16*
X167640000Y-107696000D03*
D17*
X167640000Y-110236000D03*
X167640000Y-112776000D03*
D25*
X166515000Y-99012000D03*
X166515000Y-97012000D03*
X166515000Y-95012000D03*
X166515000Y-93012000D03*
D26*
X168765000Y-101412000D03*
X168765000Y-90612000D03*
D27*
X139954000Y-108966000D03*
X148590000Y-113792000D03*
X137922000Y-114046000D03*
D28*
X165100000Y-88392000D03*
D27*
X143256000Y-107188000D03*
X139954000Y-115316000D03*
X140716000Y-109728000D03*
X136652000Y-108458000D03*
X145542000Y-107696000D03*
X142748000Y-94488000D03*
X145034000Y-98044000D03*
X135890000Y-106680000D03*
D28*
X156718000Y-85090000D03*
D27*
X150368000Y-110236000D03*
X144526000Y-110236000D03*
X154178000Y-109474000D03*
X144780000Y-108966000D03*
X145542000Y-106680000D03*
X149352000Y-111760000D03*
X135636000Y-105156000D03*
X145034000Y-111760000D03*
X140716000Y-108204000D03*
D29*
X146238000Y-93726000D02*
X152146000Y-93726000D01*
X153416000Y-94996000D02*
X154198000Y-94996000D01*
X152146000Y-93726000D02*
X153416000Y-94996000D01*
X147046000Y-90424000D02*
X147046000Y-92436000D01*
X146238000Y-93244000D02*
X146238000Y-93726000D01*
X146238000Y-93726000D02*
X146238000Y-94472000D01*
X147046000Y-92436000D02*
X146238000Y-93244000D01*
X146998000Y-109620000D02*
X148482000Y-109620000D01*
X148590000Y-109728000D02*
X148590000Y-113792000D01*
X148482000Y-109620000D02*
X148590000Y-109728000D01*
X138498000Y-110420000D02*
X139884000Y-110420000D01*
X139884000Y-110420000D02*
X139954000Y-110350000D01*
X139954000Y-110350000D02*
X139954000Y-108966000D01*
X139808000Y-108820000D02*
X138498000Y-108820000D01*
X139954000Y-108966000D02*
X139808000Y-108820000D01*
X143256000Y-107188000D02*
X140716000Y-109728000D01*
X139948000Y-115310000D02*
X139948000Y-113470000D01*
X139954000Y-115316000D02*
X139948000Y-115310000D01*
X138498000Y-109620000D02*
X136798000Y-109620000D01*
X137090000Y-108020000D02*
X138498000Y-108020000D01*
X136652000Y-108458000D02*
X137090000Y-108020000D01*
X136652000Y-109474000D02*
X136652000Y-108458000D01*
X136798000Y-109620000D02*
X136652000Y-109474000D01*
X146998000Y-107220000D02*
X146018000Y-107220000D01*
X146018000Y-107220000D02*
X145542000Y-107696000D01*
X144338000Y-94472000D02*
X144338000Y-95712000D01*
X144338000Y-95712000D02*
X143114000Y-94488000D01*
X143114000Y-94488000D02*
X142748000Y-94488000D01*
D30*
X162052000Y-97536000D02*
X162052000Y-97790000D01*
X162052000Y-97790000D02*
X163274000Y-99012000D01*
X163274000Y-99012000D02*
X166515000Y-99012000D01*
X162052000Y-94996000D02*
X163830000Y-96774000D01*
X163830000Y-96774000D02*
X166277000Y-96774000D01*
X166277000Y-96774000D02*
X166515000Y-97012000D01*
X162052000Y-92456000D02*
X162052000Y-92710000D01*
X162052000Y-92710000D02*
X164354000Y-95012000D01*
X164354000Y-95012000D02*
X166515000Y-95012000D01*
X162052000Y-89916000D02*
X163830000Y-89916000D01*
X163830000Y-89916000D02*
X166515000Y-92601000D01*
X166515000Y-92601000D02*
X166515000Y-93012000D01*
D29*
X147066000Y-100076000D02*
X149352000Y-100076000D01*
X145034000Y-98044000D02*
X147066000Y-100076000D01*
X135890000Y-109918000D02*
X135890000Y-106680000D01*
X137192000Y-111220000D02*
X135890000Y-109918000D01*
X138498000Y-111220000D02*
X137192000Y-111220000D01*
D31*
X141732000Y-91440000D02*
X143530000Y-91440000D01*
X143530000Y-91440000D02*
X144546000Y-90424000D01*
X144546000Y-90424000D02*
X144546000Y-91730000D01*
X144546000Y-91730000D02*
X145288000Y-92472000D01*
X156718000Y-85090000D02*
X161798000Y-85090000D01*
X161798000Y-85090000D02*
X162052000Y-84836000D01*
X156718000Y-85090000D02*
X156718000Y-94976000D01*
X156718000Y-94976000D02*
X158090000Y-96348000D01*
X158090000Y-96348000D02*
X158090000Y-97776000D01*
X141732000Y-91440000D02*
X141732000Y-89154000D01*
X152400000Y-85090000D02*
X156718000Y-85090000D01*
X149860000Y-82550000D02*
X152400000Y-85090000D01*
X146812000Y-82550000D02*
X149860000Y-82550000D01*
X144526000Y-84836000D02*
X146812000Y-82550000D01*
X144526000Y-86360000D02*
X144526000Y-84836000D01*
X141732000Y-89154000D02*
X144526000Y-86360000D01*
D29*
X138498000Y-112020000D02*
X140964000Y-112020000D01*
X149352000Y-103886000D02*
X149352000Y-102616000D01*
X150368000Y-104902000D02*
X149352000Y-103886000D01*
X150368000Y-110236000D02*
X150368000Y-104902000D01*
X142748000Y-110236000D02*
X144526000Y-110236000D01*
X140964000Y-112020000D02*
X142748000Y-110236000D01*
D32*
X158090000Y-102376000D02*
X158090000Y-104360000D01*
X158090000Y-104360000D02*
X159394000Y-105664000D01*
D29*
X159394000Y-105664000D02*
X159394000Y-106054000D01*
D32*
X159394000Y-106054000D02*
X163576000Y-110236000D01*
X163576000Y-110236000D02*
X167640000Y-110236000D01*
D29*
X142348000Y-104970000D02*
X142348000Y-103994000D01*
X142348000Y-103994000D02*
X140462000Y-102108000D01*
X140462000Y-102108000D02*
X139700000Y-102108000D01*
X137160000Y-102108000D02*
X137160000Y-101854000D01*
X137160000Y-101854000D02*
X138176000Y-100838000D01*
X138176000Y-100838000D02*
X140970000Y-100838000D01*
X140970000Y-100838000D02*
X143148000Y-103016000D01*
X143148000Y-103016000D02*
X143148000Y-104970000D01*
X139700000Y-99568000D02*
X141224000Y-99568000D01*
X143948000Y-102292000D02*
X143948000Y-104970000D01*
X141224000Y-99568000D02*
X143948000Y-102292000D01*
X144748000Y-104970000D02*
X144748000Y-108934000D01*
X158750000Y-114554000D02*
X160020000Y-113284000D01*
X155448000Y-114554000D02*
X158750000Y-114554000D01*
X154432000Y-113538000D02*
X155448000Y-114554000D01*
X154432000Y-109728000D02*
X154432000Y-113538000D01*
X154178000Y-109474000D02*
X154432000Y-109728000D01*
X144748000Y-108934000D02*
X144780000Y-108966000D01*
X144748000Y-104970000D02*
X144748000Y-101822000D01*
X138430000Y-98298000D02*
X137160000Y-99568000D01*
X141224000Y-98298000D02*
X138430000Y-98298000D01*
X144748000Y-101822000D02*
X141224000Y-98298000D01*
X145548000Y-104970000D02*
X145548000Y-106674000D01*
X145548000Y-106674000D02*
X145542000Y-106680000D01*
X145548000Y-104970000D02*
X145548000Y-101352000D01*
X141224000Y-97028000D02*
X139700000Y-97028000D01*
X145548000Y-101352000D02*
X141224000Y-97028000D01*
X146998000Y-106420000D02*
X148076000Y-106420000D01*
X149352000Y-107696000D02*
X149352000Y-111760000D01*
X148076000Y-106420000D02*
X149352000Y-107696000D01*
X146998000Y-106420000D02*
X146998000Y-101532000D01*
X138430000Y-95758000D02*
X137160000Y-97028000D01*
X141224000Y-95758000D02*
X138430000Y-95758000D01*
X146998000Y-101532000D02*
X141224000Y-95758000D01*
X138498000Y-107220000D02*
X137700000Y-107220000D01*
X137700000Y-107220000D02*
X135636000Y-105156000D01*
X138498000Y-106420000D02*
X138424000Y-106420000D01*
X138424000Y-106420000D02*
X135636000Y-103632000D01*
X135636000Y-103632000D02*
X135636000Y-96012000D01*
X135636000Y-96012000D02*
X137160000Y-94488000D01*
X145034000Y-111760000D02*
X144526000Y-112268000D01*
X142348000Y-112414000D02*
X142348000Y-113470000D01*
X142494000Y-112268000D02*
X142348000Y-112414000D01*
X144526000Y-112268000D02*
X142494000Y-112268000D01*
X141548000Y-113470000D02*
X141548000Y-114624000D01*
X149860000Y-114808000D02*
X151892000Y-116840000D01*
X141732000Y-114808000D02*
X149860000Y-114808000D01*
X141548000Y-114624000D02*
X141732000Y-114808000D01*
X140748000Y-113470000D02*
X140748000Y-115284000D01*
X147828000Y-115316000D02*
X149352000Y-116840000D01*
X140780000Y-115316000D02*
X147828000Y-115316000D01*
X140748000Y-115284000D02*
X140780000Y-115316000D01*
X140748000Y-104970000D02*
X140748000Y-108172000D01*
X140748000Y-108172000D02*
X140716000Y-108204000D01*
D33*
G36*
X171350000Y-79804063D02*
X171350000Y-118068578D01*
X170138578Y-119280000D01*
X136185422Y-119280000D01*
X135531396Y-118625974D01*
X167914869Y-118625974D01*
X168132982Y-118853335D01*
X168884732Y-119113967D01*
X169678998Y-119067078D01*
X170195018Y-118853335D01*
X170413131Y-118625974D01*
X169164000Y-117376843D01*
X167914869Y-118625974D01*
X135531396Y-118625974D01*
X135228000Y-118322578D01*
X135228000Y-117206751D01*
X141202918Y-117206751D01*
X141422211Y-117575708D01*
X141766005Y-117832660D01*
X141873253Y-117877061D01*
X142040000Y-117858040D01*
X142040000Y-117040000D01*
X142440000Y-117040000D01*
X142440000Y-117858040D01*
X142606747Y-117877061D01*
X142713995Y-117832660D01*
X143057789Y-117575708D01*
X143277082Y-117206751D01*
X143259186Y-117040000D01*
X142440000Y-117040000D01*
X142040000Y-117040000D01*
X141220814Y-117040000D01*
X141202918Y-117206751D01*
X135228000Y-117206751D01*
X135228000Y-105596558D01*
X135295683Y-105664359D01*
X135516129Y-105755896D01*
X135634959Y-105756000D01*
X135959019Y-106080060D01*
X135771176Y-106079896D01*
X135550571Y-106171048D01*
X135381641Y-106339683D01*
X135290104Y-106560129D01*
X135289896Y-106798824D01*
X135381048Y-107019429D01*
X135465000Y-107103528D01*
X135465000Y-109918000D01*
X135482539Y-110006173D01*
X135497351Y-110080641D01*
X135589480Y-110218520D01*
X136891480Y-111520520D01*
X137029359Y-111612649D01*
X137056343Y-111618016D01*
X137192000Y-111645000D01*
X137412374Y-111645000D01*
X137392123Y-111745000D01*
X137392123Y-112295000D01*
X137413042Y-112406173D01*
X137478745Y-112508279D01*
X137578997Y-112576778D01*
X137698000Y-112600877D01*
X139298000Y-112600877D01*
X139384414Y-112584617D01*
X139367123Y-112670000D01*
X139367123Y-114270000D01*
X139388042Y-114381173D01*
X139453745Y-114483279D01*
X139523000Y-114530599D01*
X139523000Y-114898459D01*
X139445641Y-114975683D01*
X139354104Y-115196129D01*
X139353896Y-115434824D01*
X139445048Y-115655429D01*
X139613683Y-115824359D01*
X139834129Y-115915896D01*
X140072824Y-115916104D01*
X140293429Y-115824952D01*
X140462359Y-115656317D01*
X140479059Y-115616099D01*
X140479480Y-115616520D01*
X140617359Y-115708649D01*
X140780000Y-115741000D01*
X142039998Y-115741000D01*
X142039998Y-115821960D01*
X141873253Y-115802939D01*
X141766005Y-115847340D01*
X141422211Y-116104292D01*
X141202918Y-116473249D01*
X141220814Y-116640000D01*
X142040000Y-116640000D01*
X142040000Y-116620000D01*
X142440000Y-116620000D01*
X142440000Y-116640000D01*
X143259186Y-116640000D01*
X143277082Y-116473249D01*
X143057789Y-116104292D01*
X142713995Y-115847340D01*
X142606747Y-115802939D01*
X142440002Y-115821960D01*
X142440002Y-115741000D01*
X143762946Y-115741000D01*
X143716721Y-115770745D01*
X143648222Y-115870997D01*
X143624123Y-115990000D01*
X143624123Y-117690000D01*
X143645042Y-117801173D01*
X143710745Y-117903279D01*
X143810997Y-117971778D01*
X143930000Y-117995877D01*
X145630000Y-117995877D01*
X145741173Y-117974958D01*
X145843279Y-117909255D01*
X145911778Y-117809003D01*
X145935877Y-117690000D01*
X145935877Y-115990000D01*
X145914958Y-115878827D01*
X145849255Y-115776721D01*
X145796975Y-115741000D01*
X147651960Y-115741000D01*
X148289341Y-116378381D01*
X148202000Y-116817470D01*
X148202000Y-116862530D01*
X148289539Y-117302616D01*
X148538827Y-117675703D01*
X148911914Y-117924991D01*
X149352000Y-118012530D01*
X149792086Y-117924991D01*
X150165173Y-117675703D01*
X150414461Y-117302616D01*
X150502000Y-116862530D01*
X150502000Y-116817470D01*
X150414461Y-116377384D01*
X150165173Y-116004297D01*
X149792086Y-115755009D01*
X149352000Y-115667470D01*
X148911914Y-115755009D01*
X148885619Y-115772579D01*
X148346040Y-115233000D01*
X149683960Y-115233000D01*
X150736123Y-116285163D01*
X150736123Y-117690000D01*
X150757042Y-117801173D01*
X150822745Y-117903279D01*
X150922997Y-117971778D01*
X151042000Y-117995877D01*
X152742000Y-117995877D01*
X152853173Y-117974958D01*
X152955279Y-117909255D01*
X153023778Y-117809003D01*
X153047877Y-117690000D01*
X153047877Y-115990000D01*
X153026958Y-115878827D01*
X152961255Y-115776721D01*
X152861003Y-115708222D01*
X152742000Y-115684123D01*
X151337163Y-115684123D01*
X150160520Y-114507480D01*
X150022641Y-114415351D01*
X149995657Y-114409984D01*
X149860000Y-114383000D01*
X146105994Y-114383000D01*
X146128877Y-114270000D01*
X146128877Y-112670000D01*
X146112617Y-112583586D01*
X146198000Y-112600877D01*
X147798000Y-112600877D01*
X147909173Y-112579958D01*
X148011279Y-112514255D01*
X148079778Y-112414003D01*
X148103877Y-112295000D01*
X148103877Y-111745000D01*
X148082958Y-111633827D01*
X148074846Y-111621221D01*
X148079778Y-111614003D01*
X148103877Y-111495000D01*
X148103877Y-110945000D01*
X148082958Y-110833827D01*
X148074846Y-110821221D01*
X148079778Y-110814003D01*
X148103877Y-110695000D01*
X148103877Y-110145000D01*
X148082958Y-110033827D01*
X148039237Y-109965883D01*
X148048000Y-109944728D01*
X148048000Y-109820000D01*
X147985500Y-109757500D01*
X147198000Y-109757500D01*
X147198000Y-109839123D01*
X146798000Y-109839123D01*
X146798000Y-109757500D01*
X146010500Y-109757500D01*
X145948000Y-109820000D01*
X145948000Y-109944728D01*
X145956964Y-109966369D01*
X145916222Y-110025997D01*
X145892123Y-110145000D01*
X145892123Y-110695000D01*
X145913042Y-110806173D01*
X145921154Y-110818779D01*
X145916222Y-110825997D01*
X145892123Y-110945000D01*
X145892123Y-111495000D01*
X145913042Y-111606173D01*
X145921154Y-111618779D01*
X145916222Y-111625997D01*
X145892123Y-111745000D01*
X145892123Y-112295000D01*
X145908383Y-112381414D01*
X145823000Y-112364123D01*
X145273000Y-112364123D01*
X145161827Y-112385042D01*
X145149221Y-112393154D01*
X145142003Y-112388222D01*
X145029584Y-112365456D01*
X145035039Y-112360001D01*
X145152824Y-112360104D01*
X145373429Y-112268952D01*
X145542359Y-112100317D01*
X145633896Y-111879871D01*
X145634104Y-111641176D01*
X145542952Y-111420571D01*
X145374317Y-111251641D01*
X145153871Y-111160104D01*
X144915176Y-111159896D01*
X144694571Y-111251048D01*
X144525641Y-111419683D01*
X144434104Y-111640129D01*
X144434000Y-111758959D01*
X144349960Y-111843000D01*
X142494000Y-111843000D01*
X142331360Y-111875351D01*
X142285608Y-111905922D01*
X142193479Y-111967480D01*
X142047480Y-112113480D01*
X141955351Y-112251359D01*
X141955351Y-112251360D01*
X141928665Y-112385521D01*
X141823000Y-112364123D01*
X141273000Y-112364123D01*
X141170360Y-112383436D01*
X141264520Y-112320520D01*
X142924040Y-110661000D01*
X144102470Y-110661000D01*
X144185683Y-110744359D01*
X144406129Y-110835896D01*
X144644824Y-110836104D01*
X144865429Y-110744952D01*
X145034359Y-110576317D01*
X145125896Y-110355871D01*
X145126104Y-110117176D01*
X145034952Y-109896571D01*
X144866317Y-109727641D01*
X144645871Y-109636104D01*
X144407176Y-109635896D01*
X144186571Y-109727048D01*
X144102472Y-109811000D01*
X142748000Y-109811000D01*
X142612343Y-109837984D01*
X142585359Y-109843351D01*
X142447480Y-109935480D01*
X140787960Y-111595000D01*
X139583626Y-111595000D01*
X139603877Y-111495000D01*
X139603877Y-110945000D01*
X139582958Y-110833827D01*
X139539237Y-110765883D01*
X139548000Y-110744728D01*
X139548000Y-110620000D01*
X139485500Y-110557500D01*
X138698000Y-110557500D01*
X138698000Y-110639123D01*
X138298000Y-110639123D01*
X138298000Y-110557500D01*
X137510500Y-110557500D01*
X137448000Y-110620000D01*
X137448000Y-110744728D01*
X137456964Y-110766369D01*
X137437401Y-110795000D01*
X137368040Y-110795000D01*
X136315000Y-109741960D01*
X136315000Y-109719925D01*
X136351480Y-109774520D01*
X136497479Y-109920520D01*
X136552824Y-109957500D01*
X136635360Y-110012649D01*
X136798000Y-110045000D01*
X137438026Y-110045000D01*
X137456763Y-110074117D01*
X137448000Y-110095272D01*
X137448000Y-110220000D01*
X137510500Y-110282500D01*
X138298000Y-110282500D01*
X138298000Y-110200877D01*
X138698000Y-110200877D01*
X138698000Y-110282500D01*
X139485500Y-110282500D01*
X139548000Y-110220000D01*
X139548000Y-110095272D01*
X139539036Y-110073631D01*
X139579778Y-110014003D01*
X139603877Y-109895000D01*
X139603877Y-109846824D01*
X140115896Y-109846824D01*
X140207048Y-110067429D01*
X140375683Y-110236359D01*
X140596129Y-110327896D01*
X140834824Y-110328104D01*
X141055429Y-110236952D01*
X141224359Y-110068317D01*
X141315896Y-109847871D01*
X141316000Y-109729041D01*
X143257040Y-107788001D01*
X143374824Y-107788104D01*
X143595429Y-107696952D01*
X143764359Y-107528317D01*
X143855896Y-107307871D01*
X143856104Y-107069176D01*
X143764952Y-106848571D01*
X143596317Y-106679641D01*
X143375871Y-106588104D01*
X143137176Y-106587896D01*
X142916571Y-106679048D01*
X142747641Y-106847683D01*
X142656104Y-107068129D01*
X142656000Y-107186959D01*
X140714961Y-109127999D01*
X140597176Y-109127896D01*
X140376571Y-109219048D01*
X140207641Y-109387683D01*
X140116104Y-109608129D01*
X140115896Y-109846824D01*
X139603877Y-109846824D01*
X139603877Y-109345000D01*
X139582958Y-109233827D01*
X139539237Y-109165883D01*
X139548000Y-109144728D01*
X139548000Y-109020000D01*
X139485500Y-108957500D01*
X138698000Y-108957500D01*
X138698000Y-109039123D01*
X138298000Y-109039123D01*
X138298000Y-108957500D01*
X137510500Y-108957500D01*
X137448000Y-109020000D01*
X137448000Y-109144728D01*
X137456964Y-109166369D01*
X137437401Y-109195000D01*
X137077000Y-109195000D01*
X137077000Y-108881530D01*
X137160359Y-108798317D01*
X137251896Y-108577871D01*
X137252000Y-108459041D01*
X137266041Y-108445000D01*
X137438026Y-108445000D01*
X137456763Y-108474117D01*
X137448000Y-108495272D01*
X137448000Y-108620000D01*
X137510500Y-108682500D01*
X138298000Y-108682500D01*
X138298000Y-108600877D01*
X138698000Y-108600877D01*
X138698000Y-108682500D01*
X139485500Y-108682500D01*
X139548000Y-108620000D01*
X139548000Y-108495272D01*
X139539036Y-108473631D01*
X139579778Y-108414003D01*
X139603877Y-108295000D01*
X139603877Y-107745000D01*
X139582958Y-107633827D01*
X139574846Y-107621221D01*
X139579778Y-107614003D01*
X139603877Y-107495000D01*
X139603877Y-106945000D01*
X139582958Y-106833827D01*
X139574846Y-106821221D01*
X139579778Y-106814003D01*
X139603877Y-106695000D01*
X139603877Y-106145000D01*
X139587617Y-106058586D01*
X139673000Y-106075877D01*
X140223000Y-106075877D01*
X140323000Y-106057060D01*
X140323000Y-107748525D01*
X140207641Y-107863683D01*
X140116104Y-108084129D01*
X140115896Y-108322824D01*
X140207048Y-108543429D01*
X140375683Y-108712359D01*
X140596129Y-108803896D01*
X140834824Y-108804104D01*
X141055429Y-108712952D01*
X141224359Y-108544317D01*
X141315896Y-108323871D01*
X141316104Y-108085176D01*
X141224952Y-107864571D01*
X141173000Y-107812528D01*
X141173000Y-106055626D01*
X141273000Y-106075877D01*
X141823000Y-106075877D01*
X141934173Y-106054958D01*
X141946779Y-106046846D01*
X141953997Y-106051778D01*
X142073000Y-106075877D01*
X142623000Y-106075877D01*
X142734173Y-106054958D01*
X142746779Y-106046846D01*
X142753997Y-106051778D01*
X142873000Y-106075877D01*
X143423000Y-106075877D01*
X143534173Y-106054958D01*
X143546779Y-106046846D01*
X143553997Y-106051778D01*
X143673000Y-106075877D01*
X144223000Y-106075877D01*
X144323000Y-106057060D01*
X144323000Y-108574414D01*
X144271641Y-108625683D01*
X144180104Y-108846129D01*
X144179896Y-109084824D01*
X144271048Y-109305429D01*
X144439683Y-109474359D01*
X144660129Y-109565896D01*
X144898824Y-109566104D01*
X145119429Y-109474952D01*
X145288359Y-109306317D01*
X145379896Y-109085871D01*
X145380104Y-108847176D01*
X145288952Y-108626571D01*
X145173000Y-108510416D01*
X145173000Y-108175626D01*
X145201683Y-108204359D01*
X145422129Y-108295896D01*
X145660824Y-108296104D01*
X145881429Y-108204952D01*
X145892123Y-108194277D01*
X145892123Y-108295000D01*
X145913042Y-108406173D01*
X145921154Y-108418779D01*
X145916222Y-108425997D01*
X145892123Y-108545000D01*
X145892123Y-109095000D01*
X145913042Y-109206173D01*
X145956763Y-109274117D01*
X145948000Y-109295272D01*
X145948000Y-109420000D01*
X146010500Y-109482500D01*
X146798000Y-109482500D01*
X146798000Y-109400877D01*
X147198000Y-109400877D01*
X147198000Y-109482500D01*
X147985500Y-109482500D01*
X148048000Y-109420000D01*
X148048000Y-109295272D01*
X148039036Y-109273631D01*
X148079778Y-109214003D01*
X148103877Y-109095000D01*
X148103877Y-108545000D01*
X148082958Y-108433827D01*
X148074846Y-108421221D01*
X148079778Y-108414003D01*
X148103877Y-108295000D01*
X148103877Y-107745000D01*
X148082958Y-107633827D01*
X148074846Y-107621221D01*
X148079778Y-107614003D01*
X148103877Y-107495000D01*
X148103877Y-107048917D01*
X148927000Y-107872041D01*
X148927000Y-111336470D01*
X148843641Y-111419683D01*
X148752104Y-111640129D01*
X148751896Y-111878824D01*
X148843048Y-112099429D01*
X149011683Y-112268359D01*
X149232129Y-112359896D01*
X149470824Y-112360104D01*
X149691429Y-112268952D01*
X149860359Y-112100317D01*
X149951896Y-111879871D01*
X149952104Y-111641176D01*
X149860952Y-111420571D01*
X149777000Y-111336472D01*
X149777000Y-110376857D01*
X149859048Y-110575429D01*
X150027683Y-110744359D01*
X150248129Y-110835896D01*
X150486824Y-110836104D01*
X150707429Y-110744952D01*
X150876359Y-110576317D01*
X150967896Y-110355871D01*
X150968104Y-110117176D01*
X150876952Y-109896571D01*
X150793000Y-109812472D01*
X150793000Y-109592824D01*
X153577896Y-109592824D01*
X153669048Y-109813429D01*
X153837683Y-109982359D01*
X154007000Y-110052665D01*
X154007000Y-113538000D01*
X154025825Y-113632640D01*
X154039351Y-113700641D01*
X154131480Y-113838520D01*
X155147480Y-114854520D01*
X155285359Y-114946649D01*
X155312343Y-114952016D01*
X155448000Y-114979000D01*
X156691930Y-114979000D01*
X156644297Y-115010827D01*
X156395009Y-115383914D01*
X156307470Y-115824000D01*
X156395009Y-116264086D01*
X156644297Y-116637173D01*
X157017384Y-116886461D01*
X157457470Y-116974000D01*
X157502530Y-116974000D01*
X157942616Y-116886461D01*
X158315703Y-116637173D01*
X158564991Y-116264086D01*
X158579579Y-116190747D01*
X158982939Y-116190747D01*
X159027340Y-116297995D01*
X159284292Y-116641789D01*
X159653249Y-116861082D01*
X159820000Y-116843186D01*
X159820000Y-116024000D01*
X160220000Y-116024000D01*
X160220000Y-116843186D01*
X160386751Y-116861082D01*
X160464734Y-116814732D01*
X167144033Y-116814732D01*
X167190922Y-117608998D01*
X167404665Y-118125018D01*
X167632026Y-118343131D01*
X168881157Y-117094000D01*
X169446843Y-117094000D01*
X170695974Y-118343131D01*
X170923335Y-118125018D01*
X171183967Y-117373268D01*
X171137078Y-116579002D01*
X170923335Y-116062982D01*
X170695974Y-115844869D01*
X169446843Y-117094000D01*
X168881157Y-117094000D01*
X167632026Y-115844869D01*
X167404665Y-116062982D01*
X167144033Y-116814732D01*
X160464734Y-116814732D01*
X160755708Y-116641789D01*
X161012660Y-116297995D01*
X161057061Y-116190747D01*
X161038040Y-116024000D01*
X160220000Y-116024000D01*
X159820000Y-116024000D01*
X159001960Y-116024000D01*
X158982939Y-116190747D01*
X158579579Y-116190747D01*
X158652530Y-115824000D01*
X158579580Y-115457253D01*
X158982939Y-115457253D01*
X159001960Y-115624000D01*
X159820000Y-115624000D01*
X159820000Y-114804814D01*
X160220000Y-114804814D01*
X160220000Y-115624000D01*
X161038040Y-115624000D01*
X161045109Y-115562026D01*
X167914869Y-115562026D01*
X169164000Y-116811157D01*
X170413131Y-115562026D01*
X170195018Y-115334665D01*
X169443268Y-115074033D01*
X168649002Y-115120922D01*
X168132982Y-115334665D01*
X167914869Y-115562026D01*
X161045109Y-115562026D01*
X161057061Y-115457253D01*
X161012660Y-115350005D01*
X160755708Y-115006211D01*
X160386751Y-114786918D01*
X160220000Y-114804814D01*
X159820000Y-114804814D01*
X159653249Y-114786918D01*
X159284292Y-115006211D01*
X159027340Y-115350005D01*
X158982939Y-115457253D01*
X158579580Y-115457253D01*
X158564991Y-115383914D01*
X158315703Y-115010827D01*
X158268070Y-114979000D01*
X158750000Y-114979000D01*
X158885657Y-114952016D01*
X158912641Y-114946649D01*
X159050520Y-114854520D01*
X159558381Y-114346659D01*
X159997470Y-114434000D01*
X160042530Y-114434000D01*
X160482616Y-114346461D01*
X160855703Y-114097173D01*
X161104991Y-113724086D01*
X161192530Y-113284000D01*
X161164433Y-113142747D01*
X166602939Y-113142747D01*
X166647340Y-113249995D01*
X166904292Y-113593789D01*
X167273249Y-113813082D01*
X167440000Y-113795186D01*
X167440000Y-112976000D01*
X167840000Y-112976000D01*
X167840000Y-113795186D01*
X168006751Y-113813082D01*
X168375708Y-113593789D01*
X168632660Y-113249995D01*
X168677061Y-113142747D01*
X168658040Y-112976000D01*
X167840000Y-112976000D01*
X167440000Y-112976000D01*
X166621960Y-112976000D01*
X166602939Y-113142747D01*
X161164433Y-113142747D01*
X161104991Y-112843914D01*
X160855703Y-112470827D01*
X160763551Y-112409253D01*
X166602939Y-112409253D01*
X166621960Y-112576000D01*
X167440000Y-112576000D01*
X167440000Y-111756814D01*
X167840000Y-111756814D01*
X167840000Y-112576000D01*
X168658040Y-112576000D01*
X168677061Y-112409253D01*
X168632660Y-112302005D01*
X168375708Y-111958211D01*
X168006751Y-111738918D01*
X167840000Y-111756814D01*
X167440000Y-111756814D01*
X167273249Y-111738918D01*
X166904292Y-111958211D01*
X166647340Y-112302005D01*
X166602939Y-112409253D01*
X160763551Y-112409253D01*
X160482616Y-112221539D01*
X160042530Y-112134000D01*
X159997470Y-112134000D01*
X159557384Y-112221539D01*
X159184297Y-112470827D01*
X158935009Y-112843914D01*
X158847470Y-113284000D01*
X158935009Y-113724086D01*
X158952579Y-113750381D01*
X158573960Y-114129000D01*
X158268070Y-114129000D01*
X158315703Y-114097173D01*
X158564991Y-113724086D01*
X158652530Y-113284000D01*
X158564991Y-112843914D01*
X158315703Y-112470827D01*
X157942616Y-112221539D01*
X157502530Y-112134000D01*
X157457470Y-112134000D01*
X157017384Y-112221539D01*
X156644297Y-112470827D01*
X156395009Y-112843914D01*
X156307470Y-113284000D01*
X156395009Y-113724086D01*
X156644297Y-114097173D01*
X156691930Y-114129000D01*
X155624040Y-114129000D01*
X154857000Y-113361960D01*
X154857000Y-109894000D01*
X156324123Y-109894000D01*
X156324123Y-111594000D01*
X156345042Y-111705173D01*
X156410745Y-111807279D01*
X156510997Y-111875778D01*
X156630000Y-111899877D01*
X158330000Y-111899877D01*
X158441173Y-111878958D01*
X158543279Y-111813255D01*
X158611778Y-111713003D01*
X158635877Y-111594000D01*
X158635877Y-110744000D01*
X158847470Y-110744000D01*
X158935009Y-111184086D01*
X159184297Y-111557173D01*
X159557384Y-111806461D01*
X159997470Y-111894000D01*
X160042530Y-111894000D01*
X160482616Y-111806461D01*
X160855703Y-111557173D01*
X161104991Y-111184086D01*
X161192530Y-110744000D01*
X161104991Y-110303914D01*
X160855703Y-109930827D01*
X160482616Y-109681539D01*
X160042530Y-109594000D01*
X159997470Y-109594000D01*
X159557384Y-109681539D01*
X159184297Y-109930827D01*
X158935009Y-110303914D01*
X158847470Y-110744000D01*
X158635877Y-110744000D01*
X158635877Y-109894000D01*
X158614958Y-109782827D01*
X158549255Y-109680721D01*
X158449003Y-109612222D01*
X158330000Y-109588123D01*
X156630000Y-109588123D01*
X156518827Y-109609042D01*
X156416721Y-109674745D01*
X156348222Y-109774997D01*
X156324123Y-109894000D01*
X154857000Y-109894000D01*
X154857000Y-109728000D01*
X154824649Y-109565360D01*
X154777982Y-109495518D01*
X154778104Y-109355176D01*
X154686952Y-109134571D01*
X154518317Y-108965641D01*
X154297871Y-108874104D01*
X154059176Y-108873896D01*
X153838571Y-108965048D01*
X153669641Y-109133683D01*
X153578104Y-109354129D01*
X153577896Y-109592824D01*
X150793000Y-109592824D01*
X150793000Y-104902000D01*
X150760649Y-104739360D01*
X150760649Y-104739359D01*
X150668520Y-104601480D01*
X149777000Y-103709960D01*
X149777000Y-103635748D01*
X149794502Y-103632267D01*
X150151367Y-103393817D01*
X150389817Y-103036952D01*
X150473550Y-102616000D01*
X150389817Y-102195048D01*
X150151367Y-101838183D01*
X149794502Y-101599733D01*
X149373550Y-101516000D01*
X149330450Y-101516000D01*
X148909498Y-101599733D01*
X148552633Y-101838183D01*
X148314183Y-102195048D01*
X148230450Y-102616000D01*
X148314183Y-103036952D01*
X148552633Y-103393817D01*
X148909498Y-103632267D01*
X148927000Y-103635748D01*
X148927000Y-103886000D01*
X148953984Y-104021657D01*
X148959351Y-104048641D01*
X149051480Y-104186520D01*
X149943000Y-105078040D01*
X149943000Y-109812470D01*
X149859641Y-109895683D01*
X149777000Y-110094705D01*
X149777000Y-107696000D01*
X149758721Y-107604104D01*
X149744649Y-107533359D01*
X149652521Y-107395480D01*
X148376520Y-106119480D01*
X148238641Y-106027351D01*
X148211657Y-106021984D01*
X148076000Y-105995000D01*
X148057974Y-105995000D01*
X148017255Y-105931721D01*
X147917003Y-105863222D01*
X147798000Y-105839123D01*
X147423000Y-105839123D01*
X147423000Y-101532000D01*
X147390649Y-101369360D01*
X147390649Y-101369359D01*
X147298520Y-101231480D01*
X144229864Y-98162824D01*
X144433896Y-98162824D01*
X144525048Y-98383429D01*
X144693683Y-98552359D01*
X144914129Y-98643896D01*
X145032960Y-98644000D01*
X146765480Y-100376520D01*
X146903359Y-100468649D01*
X146930343Y-100474016D01*
X147066000Y-100501000D01*
X148316888Y-100501000D01*
X148552633Y-100853817D01*
X148909498Y-101092267D01*
X149330450Y-101176000D01*
X149373550Y-101176000D01*
X149794502Y-101092267D01*
X150151367Y-100853817D01*
X150389817Y-100496952D01*
X150473550Y-100076000D01*
X150389817Y-99655048D01*
X150151367Y-99298183D01*
X149794502Y-99059733D01*
X149373550Y-98976000D01*
X149330450Y-98976000D01*
X148909498Y-99059733D01*
X148552633Y-99298183D01*
X148316888Y-99651000D01*
X147242040Y-99651000D01*
X145634001Y-98042961D01*
X145634104Y-97925176D01*
X145542952Y-97704571D01*
X145374676Y-97536000D01*
X148230450Y-97536000D01*
X148314183Y-97956952D01*
X148552633Y-98313817D01*
X148909498Y-98552267D01*
X149330450Y-98636000D01*
X149373550Y-98636000D01*
X149794502Y-98552267D01*
X150151367Y-98313817D01*
X150243453Y-98176000D01*
X150484123Y-98176000D01*
X150484123Y-101976000D01*
X150505042Y-102087173D01*
X150570745Y-102189279D01*
X150670997Y-102257778D01*
X150790000Y-102281877D01*
X152790000Y-102281877D01*
X152901173Y-102260958D01*
X153003279Y-102195255D01*
X153071778Y-102095003D01*
X153095877Y-101976000D01*
X153095877Y-101626000D01*
X156784123Y-101626000D01*
X156784123Y-103126000D01*
X156805042Y-103237173D01*
X156870745Y-103339279D01*
X156970997Y-103407778D01*
X157090000Y-103431877D01*
X157515000Y-103431877D01*
X157515000Y-104290931D01*
X157512222Y-104294997D01*
X157488123Y-104414000D01*
X157488123Y-106914000D01*
X157509042Y-107025173D01*
X157574745Y-107127279D01*
X157674997Y-107195778D01*
X157794000Y-107219877D01*
X159746705Y-107219877D01*
X163169414Y-110642586D01*
X163355957Y-110767231D01*
X163576000Y-110811000D01*
X166645155Y-110811000D01*
X166804297Y-111049173D01*
X167177384Y-111298461D01*
X167617470Y-111386000D01*
X167662530Y-111386000D01*
X168102616Y-111298461D01*
X168475703Y-111049173D01*
X168724991Y-110676086D01*
X168812530Y-110236000D01*
X168724991Y-109795914D01*
X168475703Y-109422827D01*
X168102616Y-109173539D01*
X167662530Y-109086000D01*
X167617470Y-109086000D01*
X167177384Y-109173539D01*
X166804297Y-109422827D01*
X166645155Y-109661000D01*
X163814172Y-109661000D01*
X161239407Y-107086235D01*
X161275778Y-107033003D01*
X161299877Y-106914000D01*
X161299877Y-105926500D01*
X161844000Y-105926500D01*
X161844000Y-106963728D01*
X161882060Y-107055614D01*
X161952386Y-107125940D01*
X162044272Y-107164000D01*
X163431500Y-107164000D01*
X163494000Y-107101500D01*
X163494000Y-105864000D01*
X163894000Y-105864000D01*
X163894000Y-107101500D01*
X163956500Y-107164000D01*
X165343728Y-107164000D01*
X165435614Y-107125940D01*
X165505940Y-107055614D01*
X165544000Y-106963728D01*
X165544000Y-106846000D01*
X166484123Y-106846000D01*
X166484123Y-108546000D01*
X166505042Y-108657173D01*
X166570745Y-108759279D01*
X166670997Y-108827778D01*
X166790000Y-108851877D01*
X168490000Y-108851877D01*
X168601173Y-108830958D01*
X168703279Y-108765255D01*
X168771778Y-108665003D01*
X168795877Y-108546000D01*
X168795877Y-106846000D01*
X168774958Y-106734827D01*
X168709255Y-106632721D01*
X168609003Y-106564222D01*
X168490000Y-106540123D01*
X166790000Y-106540123D01*
X166678827Y-106561042D01*
X166576721Y-106626745D01*
X166508222Y-106726997D01*
X166484123Y-106846000D01*
X165544000Y-106846000D01*
X165544000Y-105926500D01*
X165481500Y-105864000D01*
X163894000Y-105864000D01*
X163494000Y-105864000D01*
X161906500Y-105864000D01*
X161844000Y-105926500D01*
X161299877Y-105926500D01*
X161299877Y-104414000D01*
X161290520Y-104364272D01*
X161844000Y-104364272D01*
X161844000Y-105401500D01*
X161906500Y-105464000D01*
X163494000Y-105464000D01*
X163494000Y-104226500D01*
X163894000Y-104226500D01*
X163894000Y-105464000D01*
X165481500Y-105464000D01*
X165544000Y-105401500D01*
X165544000Y-104364272D01*
X165505940Y-104272386D01*
X165435614Y-104202060D01*
X165343728Y-104164000D01*
X163956500Y-104164000D01*
X163894000Y-104226500D01*
X163494000Y-104226500D01*
X163431500Y-104164000D01*
X162044272Y-104164000D01*
X161952386Y-104202060D01*
X161882060Y-104272386D01*
X161844000Y-104364272D01*
X161290520Y-104364272D01*
X161278958Y-104302827D01*
X161213255Y-104200721D01*
X161113003Y-104132222D01*
X160994000Y-104108123D01*
X158665000Y-104108123D01*
X158665000Y-103431877D01*
X159090000Y-103431877D01*
X159201173Y-103410958D01*
X159303279Y-103345255D01*
X159371778Y-103245003D01*
X159395877Y-103126000D01*
X159395877Y-102878500D01*
X161002000Y-102878500D01*
X161002000Y-103465728D01*
X161040060Y-103557614D01*
X161110386Y-103627940D01*
X161202272Y-103666000D01*
X161789500Y-103666000D01*
X161852000Y-103603500D01*
X161852000Y-102816000D01*
X162252000Y-102816000D01*
X162252000Y-103603500D01*
X162314500Y-103666000D01*
X162901728Y-103666000D01*
X162993614Y-103627940D01*
X163063940Y-103557614D01*
X163102000Y-103465728D01*
X163102000Y-102878500D01*
X163039500Y-102816000D01*
X162252000Y-102816000D01*
X161852000Y-102816000D01*
X161064500Y-102816000D01*
X161002000Y-102878500D01*
X159395877Y-102878500D01*
X159395877Y-101766272D01*
X161002000Y-101766272D01*
X161002000Y-102353500D01*
X161064500Y-102416000D01*
X161852000Y-102416000D01*
X161852000Y-101628500D01*
X162252000Y-101628500D01*
X162252000Y-102416000D01*
X163039500Y-102416000D01*
X163102000Y-102353500D01*
X163102000Y-101766272D01*
X163063940Y-101674386D01*
X162993614Y-101604060D01*
X162901728Y-101566000D01*
X162314500Y-101566000D01*
X162252000Y-101628500D01*
X161852000Y-101628500D01*
X161789500Y-101566000D01*
X161202272Y-101566000D01*
X161110386Y-101604060D01*
X161040060Y-101674386D01*
X161002000Y-101766272D01*
X159395877Y-101766272D01*
X159395877Y-101626000D01*
X159374958Y-101514827D01*
X159309255Y-101412721D01*
X159209003Y-101344222D01*
X159090000Y-101320123D01*
X157090000Y-101320123D01*
X156978827Y-101341042D01*
X156876721Y-101406745D01*
X156808222Y-101506997D01*
X156784123Y-101626000D01*
X153095877Y-101626000D01*
X153095877Y-100338500D01*
X156840000Y-100338500D01*
X156840000Y-100875728D01*
X156878060Y-100967614D01*
X156948386Y-101037940D01*
X157040272Y-101076000D01*
X157827500Y-101076000D01*
X157890000Y-101013500D01*
X157890000Y-100276000D01*
X158290000Y-100276000D01*
X158290000Y-101013500D01*
X158352500Y-101076000D01*
X159139728Y-101076000D01*
X159231614Y-101037940D01*
X159301940Y-100967614D01*
X159340000Y-100875728D01*
X159340000Y-100338500D01*
X159277500Y-100276000D01*
X158290000Y-100276000D01*
X157890000Y-100276000D01*
X156902500Y-100276000D01*
X156840000Y-100338500D01*
X153095877Y-100338500D01*
X153095877Y-98176000D01*
X153074958Y-98064827D01*
X153009255Y-97962721D01*
X152909003Y-97894222D01*
X152790000Y-97870123D01*
X150790000Y-97870123D01*
X150678827Y-97891042D01*
X150576721Y-97956745D01*
X150508222Y-98056997D01*
X150484123Y-98176000D01*
X150243453Y-98176000D01*
X150389817Y-97956952D01*
X150473550Y-97536000D01*
X150389817Y-97115048D01*
X150151367Y-96758183D01*
X149794502Y-96519733D01*
X149373550Y-96436000D01*
X149330450Y-96436000D01*
X148909498Y-96519733D01*
X148552633Y-96758183D01*
X148314183Y-97115048D01*
X148230450Y-97536000D01*
X145374676Y-97536000D01*
X145374317Y-97535641D01*
X145153871Y-97444104D01*
X144915176Y-97443896D01*
X144694571Y-97535048D01*
X144525641Y-97703683D01*
X144434104Y-97924129D01*
X144433896Y-98162824D01*
X144229864Y-98162824D01*
X141524520Y-95457480D01*
X141386641Y-95365351D01*
X141359657Y-95359984D01*
X141224000Y-95333000D01*
X140488070Y-95333000D01*
X140535703Y-95301173D01*
X140784991Y-94928086D01*
X140848894Y-94606824D01*
X142147896Y-94606824D01*
X142239048Y-94827429D01*
X142407683Y-94996359D01*
X142628129Y-95087896D01*
X142866824Y-95088104D01*
X143041068Y-95016108D01*
X143146510Y-95121550D01*
X143074721Y-95167745D01*
X143006222Y-95267997D01*
X142982123Y-95387000D01*
X142982123Y-96637000D01*
X143003042Y-96748173D01*
X143068745Y-96850279D01*
X143168997Y-96918778D01*
X143288000Y-96942877D01*
X144788000Y-96942877D01*
X144899173Y-96921958D01*
X145001279Y-96856255D01*
X145069778Y-96756003D01*
X145093877Y-96637000D01*
X145093877Y-96274500D01*
X145538000Y-96274500D01*
X145538000Y-96686728D01*
X145576060Y-96778614D01*
X145646386Y-96848940D01*
X145738272Y-96887000D01*
X146275500Y-96887000D01*
X146338000Y-96824500D01*
X146338000Y-96212000D01*
X146738000Y-96212000D01*
X146738000Y-96824500D01*
X146800500Y-96887000D01*
X147337728Y-96887000D01*
X147429614Y-96848940D01*
X147499940Y-96778614D01*
X147538000Y-96686728D01*
X147538000Y-96274500D01*
X147475500Y-96212000D01*
X146738000Y-96212000D01*
X146338000Y-96212000D01*
X145600500Y-96212000D01*
X145538000Y-96274500D01*
X145093877Y-96274500D01*
X145093877Y-95387000D01*
X145084520Y-95337272D01*
X145538000Y-95337272D01*
X145538000Y-95749500D01*
X145600500Y-95812000D01*
X146338000Y-95812000D01*
X146338000Y-95792000D01*
X146738000Y-95792000D01*
X146738000Y-95812000D01*
X147475500Y-95812000D01*
X147538000Y-95749500D01*
X147538000Y-95337272D01*
X147499940Y-95245386D01*
X147429614Y-95175060D01*
X147337728Y-95137000D01*
X146800500Y-95137000D01*
X146738002Y-95199498D01*
X146738002Y-95151176D01*
X146779614Y-95133940D01*
X146849940Y-95063614D01*
X146877946Y-94996000D01*
X148230450Y-94996000D01*
X148314183Y-95416952D01*
X148552633Y-95773817D01*
X148909498Y-96012267D01*
X149330450Y-96096000D01*
X149373550Y-96096000D01*
X149794502Y-96012267D01*
X150151367Y-95773817D01*
X150389817Y-95416952D01*
X150421335Y-95258500D01*
X153198000Y-95258500D01*
X153198000Y-95670728D01*
X153236060Y-95762614D01*
X153306386Y-95832940D01*
X153398272Y-95871000D01*
X153935500Y-95871000D01*
X153998000Y-95808500D01*
X153998000Y-95196000D01*
X154398000Y-95196000D01*
X154398000Y-95808500D01*
X154460500Y-95871000D01*
X154997728Y-95871000D01*
X155089614Y-95832940D01*
X155159940Y-95762614D01*
X155198000Y-95670728D01*
X155198000Y-95258500D01*
X155135500Y-95196000D01*
X154398000Y-95196000D01*
X153998000Y-95196000D01*
X153260500Y-95196000D01*
X153198000Y-95258500D01*
X150421335Y-95258500D01*
X150473550Y-94996000D01*
X150389817Y-94575048D01*
X150220249Y-94321272D01*
X153198000Y-94321272D01*
X153198000Y-94733500D01*
X153260500Y-94796000D01*
X153998000Y-94796000D01*
X153998000Y-94183500D01*
X154398000Y-94183500D01*
X154398000Y-94796000D01*
X155135500Y-94796000D01*
X155198000Y-94733500D01*
X155198000Y-94321272D01*
X155159940Y-94229386D01*
X155089614Y-94159060D01*
X154997728Y-94121000D01*
X154460500Y-94121000D01*
X154398000Y-94183500D01*
X153998000Y-94183500D01*
X153935500Y-94121000D01*
X153398272Y-94121000D01*
X153306386Y-94159060D01*
X153236060Y-94229386D01*
X153198000Y-94321272D01*
X150220249Y-94321272D01*
X150151367Y-94218183D01*
X149794502Y-93979733D01*
X149373550Y-93896000D01*
X149330450Y-93896000D01*
X148909498Y-93979733D01*
X148552633Y-94218183D01*
X148314183Y-94575048D01*
X148230450Y-94996000D01*
X146877946Y-94996000D01*
X146888000Y-94971728D01*
X146888000Y-94734500D01*
X146825500Y-94672000D01*
X146438000Y-94672000D01*
X146438000Y-94692000D01*
X146038000Y-94692000D01*
X146038000Y-94672000D01*
X145650500Y-94672000D01*
X145588000Y-94734500D01*
X145588000Y-94971728D01*
X145626060Y-95063614D01*
X145696386Y-95133940D01*
X145721023Y-95144145D01*
X145646386Y-95175060D01*
X145576060Y-95245386D01*
X145538000Y-95337272D01*
X145084520Y-95337272D01*
X145072958Y-95275827D01*
X145007255Y-95173721D01*
X144953972Y-95137314D01*
X145019778Y-95041003D01*
X145043877Y-94922000D01*
X145043877Y-94022000D01*
X145034520Y-93972272D01*
X145588000Y-93972272D01*
X145588000Y-94209500D01*
X145650500Y-94272000D01*
X146038000Y-94272000D01*
X146038000Y-93834500D01*
X146438000Y-93834500D01*
X146438000Y-94272000D01*
X146825500Y-94272000D01*
X146888000Y-94209500D01*
X146888000Y-93972272D01*
X146849940Y-93880386D01*
X146779614Y-93810060D01*
X146687728Y-93772000D01*
X146500500Y-93772000D01*
X146438000Y-93834500D01*
X146038000Y-93834500D01*
X145975500Y-93772000D01*
X145788272Y-93772000D01*
X145696386Y-93810060D01*
X145626060Y-93880386D01*
X145588000Y-93972272D01*
X145034520Y-93972272D01*
X145022958Y-93910827D01*
X144957255Y-93808721D01*
X144857003Y-93740222D01*
X144738000Y-93716123D01*
X143938000Y-93716123D01*
X143826827Y-93737042D01*
X143724721Y-93802745D01*
X143656222Y-93902997D01*
X143632123Y-94022000D01*
X143632123Y-94405083D01*
X143414520Y-94187480D01*
X143276641Y-94095351D01*
X143249657Y-94089984D01*
X143185784Y-94077279D01*
X143088317Y-93979641D01*
X142867871Y-93888104D01*
X142629176Y-93887896D01*
X142408571Y-93979048D01*
X142239641Y-94147683D01*
X142148104Y-94368129D01*
X142147896Y-94606824D01*
X140848894Y-94606824D01*
X140872530Y-94488000D01*
X140784991Y-94047914D01*
X140535703Y-93674827D01*
X140162616Y-93425539D01*
X139722530Y-93338000D01*
X139677470Y-93338000D01*
X139237384Y-93425539D01*
X138864297Y-93674827D01*
X138615009Y-94047914D01*
X138527470Y-94488000D01*
X138615009Y-94928086D01*
X138864297Y-95301173D01*
X138911930Y-95333000D01*
X138430000Y-95333000D01*
X138267360Y-95365351D01*
X138267358Y-95365352D01*
X138267359Y-95365352D01*
X138129479Y-95457480D01*
X137621619Y-95965341D01*
X137182530Y-95878000D01*
X137137470Y-95878000D01*
X136697384Y-95965539D01*
X136324297Y-96214827D01*
X136075009Y-96587914D01*
X136061000Y-96658342D01*
X136061000Y-96188040D01*
X136698381Y-95550659D01*
X137137470Y-95638000D01*
X137182530Y-95638000D01*
X137622616Y-95550461D01*
X137995703Y-95301173D01*
X138244991Y-94928086D01*
X138332530Y-94488000D01*
X138244991Y-94047914D01*
X137995703Y-93674827D01*
X137622616Y-93425539D01*
X137182530Y-93338000D01*
X137137470Y-93338000D01*
X136697384Y-93425539D01*
X136324297Y-93674827D01*
X136075009Y-94047914D01*
X135987470Y-94488000D01*
X136075009Y-94928086D01*
X136092579Y-94954381D01*
X135335480Y-95711480D01*
X135243351Y-95849359D01*
X135238322Y-95874641D01*
X135228000Y-95926534D01*
X135228000Y-90140000D01*
X139820246Y-90140000D01*
X139820246Y-92740000D01*
X139862083Y-92962346D01*
X139993490Y-93166558D01*
X140193993Y-93303556D01*
X140432000Y-93351754D01*
X143032000Y-93351754D01*
X143254346Y-93309917D01*
X143458558Y-93178510D01*
X143595556Y-92978007D01*
X143643754Y-92740000D01*
X143643754Y-92392373D01*
X143815647Y-92358182D01*
X143856571Y-92419429D01*
X144276246Y-92839104D01*
X144276246Y-92922000D01*
X144318083Y-93144346D01*
X144449490Y-93348558D01*
X144649993Y-93485556D01*
X144888000Y-93533754D01*
X145688000Y-93533754D01*
X145910346Y-93491917D01*
X146114558Y-93360510D01*
X146251556Y-93160007D01*
X146299754Y-92922000D01*
X146299754Y-92456000D01*
X148230450Y-92456000D01*
X148314183Y-92876952D01*
X148552633Y-93233817D01*
X148909498Y-93472267D01*
X149330450Y-93556000D01*
X149373550Y-93556000D01*
X149794502Y-93472267D01*
X150151367Y-93233817D01*
X150389817Y-92876952D01*
X150473550Y-92456000D01*
X150389817Y-92035048D01*
X150151367Y-91678183D01*
X149794502Y-91439733D01*
X149373550Y-91356000D01*
X149330450Y-91356000D01*
X148909498Y-91439733D01*
X148552633Y-91678183D01*
X148314183Y-92035048D01*
X148230450Y-92456000D01*
X146299754Y-92456000D01*
X146299754Y-92022000D01*
X146257917Y-91799654D01*
X146126510Y-91595442D01*
X145926007Y-91458444D01*
X145764733Y-91425785D01*
X145859556Y-91287007D01*
X145907754Y-91049000D01*
X145907754Y-90686500D01*
X146046000Y-90686500D01*
X146046000Y-91098728D01*
X146084060Y-91190614D01*
X146154386Y-91260940D01*
X146246272Y-91299000D01*
X146783500Y-91299000D01*
X146846000Y-91236500D01*
X146846000Y-90624000D01*
X147246000Y-90624000D01*
X147246000Y-91236500D01*
X147308500Y-91299000D01*
X147845728Y-91299000D01*
X147937614Y-91260940D01*
X148007940Y-91190614D01*
X148046000Y-91098728D01*
X148046000Y-90686500D01*
X147983500Y-90624000D01*
X147246000Y-90624000D01*
X146846000Y-90624000D01*
X146108500Y-90624000D01*
X146046000Y-90686500D01*
X145907754Y-90686500D01*
X145907754Y-89799000D01*
X145898398Y-89749272D01*
X146046000Y-89749272D01*
X146046000Y-90161500D01*
X146108500Y-90224000D01*
X146846000Y-90224000D01*
X146846000Y-89611500D01*
X147246000Y-89611500D01*
X147246000Y-90224000D01*
X147983500Y-90224000D01*
X148046000Y-90161500D01*
X148046000Y-89916000D01*
X148230450Y-89916000D01*
X148314183Y-90336952D01*
X148552633Y-90693817D01*
X148909498Y-90932267D01*
X149330450Y-91016000D01*
X149373550Y-91016000D01*
X149794502Y-90932267D01*
X150151367Y-90693817D01*
X150389817Y-90336952D01*
X150473550Y-89916000D01*
X150389817Y-89495048D01*
X150151367Y-89138183D01*
X149794502Y-88899733D01*
X149373550Y-88816000D01*
X149330450Y-88816000D01*
X148909498Y-88899733D01*
X148552633Y-89138183D01*
X148314183Y-89495048D01*
X148230450Y-89916000D01*
X148046000Y-89916000D01*
X148046000Y-89749272D01*
X148007940Y-89657386D01*
X147937614Y-89587060D01*
X147845728Y-89549000D01*
X147308500Y-89549000D01*
X147246000Y-89611500D01*
X146846000Y-89611500D01*
X146783500Y-89549000D01*
X146246272Y-89549000D01*
X146154386Y-89587060D01*
X146084060Y-89657386D01*
X146046000Y-89749272D01*
X145898398Y-89749272D01*
X145865917Y-89576654D01*
X145734510Y-89372442D01*
X145534007Y-89235444D01*
X145296000Y-89187246D01*
X143796000Y-89187246D01*
X143573654Y-89229083D01*
X143369442Y-89360490D01*
X143232444Y-89560993D01*
X143230918Y-89568528D01*
X143032000Y-89528246D01*
X142736612Y-89528246D01*
X144888858Y-87376000D01*
X148230450Y-87376000D01*
X148314183Y-87796952D01*
X148552633Y-88153817D01*
X148909498Y-88392267D01*
X149330450Y-88476000D01*
X149373550Y-88476000D01*
X149794502Y-88392267D01*
X150151367Y-88153817D01*
X150389817Y-87796952D01*
X150473550Y-87376000D01*
X150389817Y-86955048D01*
X150151367Y-86598183D01*
X149794502Y-86359733D01*
X149373550Y-86276000D01*
X149330450Y-86276000D01*
X148909498Y-86359733D01*
X148552633Y-86598183D01*
X148314183Y-86955048D01*
X148230450Y-87376000D01*
X144888858Y-87376000D01*
X145215429Y-87049429D01*
X145426783Y-86733117D01*
X145501000Y-86360000D01*
X145501000Y-85239858D01*
X147215858Y-83525000D01*
X149456142Y-83525000D01*
X149740042Y-83808900D01*
X149373550Y-83736000D01*
X149330450Y-83736000D01*
X148909498Y-83819733D01*
X148552633Y-84058183D01*
X148314183Y-84415048D01*
X148230450Y-84836000D01*
X148314183Y-85256952D01*
X148552633Y-85613817D01*
X148909498Y-85852267D01*
X149330450Y-85936000D01*
X149373550Y-85936000D01*
X149794502Y-85852267D01*
X150151367Y-85613817D01*
X150389817Y-85256952D01*
X150473550Y-84836000D01*
X150400650Y-84469508D01*
X151710571Y-85779429D01*
X152026884Y-85990783D01*
X152400000Y-86065000D01*
X155743000Y-86065000D01*
X155743000Y-93797819D01*
X155725654Y-93801083D01*
X155521442Y-93932490D01*
X155384444Y-94132993D01*
X155336246Y-94371000D01*
X155336246Y-95621000D01*
X155378083Y-95843346D01*
X155509490Y-96047558D01*
X155709993Y-96184556D01*
X155948000Y-96232754D01*
X156595896Y-96232754D01*
X156838187Y-96475045D01*
X156663442Y-96587490D01*
X156526444Y-96787993D01*
X156478246Y-97026000D01*
X156478246Y-98526000D01*
X156520083Y-98748346D01*
X156651490Y-98952558D01*
X156851993Y-99089556D01*
X156956467Y-99110713D01*
X156948386Y-99114060D01*
X156878060Y-99184386D01*
X156840000Y-99276272D01*
X156840000Y-99813500D01*
X156902500Y-99876000D01*
X157890000Y-99876000D01*
X157890000Y-99856000D01*
X158290000Y-99856000D01*
X158290000Y-99876000D01*
X159277500Y-99876000D01*
X159340000Y-99813500D01*
X159340000Y-99276272D01*
X159301940Y-99184386D01*
X159231614Y-99114060D01*
X159226713Y-99112030D01*
X159312346Y-99095917D01*
X159516558Y-98964510D01*
X159653556Y-98764007D01*
X159701754Y-98526000D01*
X159701754Y-97536000D01*
X160879470Y-97536000D01*
X160967009Y-97976086D01*
X161216297Y-98349173D01*
X161589384Y-98598461D01*
X162029470Y-98686000D01*
X162074530Y-98686000D01*
X162154312Y-98670130D01*
X162643417Y-99159235D01*
X162494502Y-99059733D01*
X162073550Y-98976000D01*
X162030450Y-98976000D01*
X161609498Y-99059733D01*
X161252633Y-99298183D01*
X161014183Y-99655048D01*
X160930450Y-100076000D01*
X161014183Y-100496952D01*
X161252633Y-100853817D01*
X161609498Y-101092267D01*
X162030450Y-101176000D01*
X162073550Y-101176000D01*
X162494502Y-101092267D01*
X162851367Y-100853817D01*
X163012944Y-100612000D01*
X166959123Y-100612000D01*
X166959123Y-102212000D01*
X166980042Y-102323173D01*
X167045745Y-102425279D01*
X167145997Y-102493778D01*
X167265000Y-102517877D01*
X170265000Y-102517877D01*
X170376173Y-102496958D01*
X170478279Y-102431255D01*
X170546778Y-102331003D01*
X170570877Y-102212000D01*
X170570877Y-100612000D01*
X170549958Y-100500827D01*
X170484255Y-100398721D01*
X170384003Y-100330222D01*
X170265000Y-100306123D01*
X167265000Y-100306123D01*
X167153827Y-100327042D01*
X167051721Y-100392745D01*
X166983222Y-100492997D01*
X166959123Y-100612000D01*
X163012944Y-100612000D01*
X163089817Y-100496952D01*
X163173550Y-100076000D01*
X163089817Y-99655048D01*
X162948168Y-99443056D01*
X163063524Y-99520134D01*
X163274000Y-99562000D01*
X163417552Y-99562000D01*
X163432549Y-99641702D01*
X163509203Y-99760825D01*
X163626163Y-99840741D01*
X163765000Y-99868856D01*
X169265000Y-99868856D01*
X169394702Y-99844451D01*
X169513825Y-99767797D01*
X169593741Y-99650837D01*
X169621856Y-99512000D01*
X169621856Y-98512000D01*
X169597451Y-98382298D01*
X169520797Y-98263175D01*
X169403837Y-98183259D01*
X169265000Y-98155144D01*
X163765000Y-98155144D01*
X163635298Y-98179549D01*
X163516175Y-98256203D01*
X163436259Y-98373163D01*
X163432339Y-98392521D01*
X163088490Y-98048672D01*
X163136991Y-97976086D01*
X163224530Y-97536000D01*
X163136991Y-97095914D01*
X162887703Y-96722827D01*
X162514616Y-96473539D01*
X162074530Y-96386000D01*
X162029470Y-96386000D01*
X161589384Y-96473539D01*
X161216297Y-96722827D01*
X160967009Y-97095914D01*
X160879470Y-97536000D01*
X159701754Y-97536000D01*
X159701754Y-97026000D01*
X159659917Y-96803654D01*
X159528510Y-96599442D01*
X159328007Y-96462444D01*
X159090000Y-96414246D01*
X159065000Y-96414246D01*
X159065000Y-96348000D01*
X159007616Y-96059510D01*
X158990783Y-95974883D01*
X158779429Y-95658571D01*
X158059754Y-94938896D01*
X158059754Y-94371000D01*
X158017917Y-94148654D01*
X157886510Y-93944442D01*
X157693000Y-93812222D01*
X157693000Y-89916000D01*
X160879470Y-89916000D01*
X160967009Y-90356086D01*
X161216297Y-90729173D01*
X161589384Y-90978461D01*
X162029470Y-91066000D01*
X162074530Y-91066000D01*
X162514616Y-90978461D01*
X162887703Y-90729173D01*
X163063549Y-90466000D01*
X163602182Y-90466000D01*
X165291327Y-92155144D01*
X163765000Y-92155144D01*
X163635298Y-92179549D01*
X163516175Y-92256203D01*
X163436259Y-92373163D01*
X163408144Y-92512000D01*
X163408144Y-93288326D01*
X163088490Y-92968673D01*
X163136991Y-92896086D01*
X163224530Y-92456000D01*
X163136991Y-92015914D01*
X162887703Y-91642827D01*
X162514616Y-91393539D01*
X162074530Y-91306000D01*
X162029470Y-91306000D01*
X161589384Y-91393539D01*
X161216297Y-91642827D01*
X160967009Y-92015914D01*
X160879470Y-92456000D01*
X160967009Y-92896086D01*
X161216297Y-93269173D01*
X161589384Y-93518461D01*
X162029470Y-93606000D01*
X162074530Y-93606000D01*
X162154312Y-93590130D01*
X162493526Y-93929344D01*
X162074530Y-93846000D01*
X162029470Y-93846000D01*
X161589384Y-93933539D01*
X161216297Y-94182827D01*
X160967009Y-94555914D01*
X160879470Y-94996000D01*
X160967009Y-95436086D01*
X161216297Y-95809173D01*
X161589384Y-96058461D01*
X162029470Y-96146000D01*
X162074530Y-96146000D01*
X162366171Y-96087989D01*
X163408144Y-97129962D01*
X163408144Y-97512000D01*
X163432549Y-97641702D01*
X163509203Y-97760825D01*
X163626163Y-97840741D01*
X163765000Y-97868856D01*
X169265000Y-97868856D01*
X169394702Y-97844451D01*
X169513825Y-97767797D01*
X169593741Y-97650837D01*
X169621856Y-97512000D01*
X169621856Y-96512000D01*
X169597451Y-96382298D01*
X169520797Y-96263175D01*
X169403837Y-96183259D01*
X169265000Y-96155144D01*
X163988962Y-96155144D01*
X163686848Y-95853030D01*
X163765000Y-95868856D01*
X169265000Y-95868856D01*
X169394702Y-95844451D01*
X169513825Y-95767797D01*
X169593741Y-95650837D01*
X169621856Y-95512000D01*
X169621856Y-94512000D01*
X169597451Y-94382298D01*
X169520797Y-94263175D01*
X169403837Y-94183259D01*
X169265000Y-94155144D01*
X164274961Y-94155144D01*
X163988673Y-93868856D01*
X169265000Y-93868856D01*
X169394702Y-93844451D01*
X169513825Y-93767797D01*
X169593741Y-93650837D01*
X169621856Y-93512000D01*
X169621856Y-92512000D01*
X169597451Y-92382298D01*
X169520797Y-92263175D01*
X169403837Y-92183259D01*
X169265000Y-92155144D01*
X166846961Y-92155144D01*
X164503818Y-89812000D01*
X166959123Y-89812000D01*
X166959123Y-91412000D01*
X166980042Y-91523173D01*
X167045745Y-91625279D01*
X167145997Y-91693778D01*
X167265000Y-91717877D01*
X170265000Y-91717877D01*
X170376173Y-91696958D01*
X170478279Y-91631255D01*
X170546778Y-91531003D01*
X170570877Y-91412000D01*
X170570877Y-89812000D01*
X170549958Y-89700827D01*
X170484255Y-89598721D01*
X170384003Y-89530222D01*
X170265000Y-89506123D01*
X167265000Y-89506123D01*
X167153827Y-89527042D01*
X167051721Y-89592745D01*
X166983222Y-89692997D01*
X166959123Y-89812000D01*
X164503818Y-89812000D01*
X164218909Y-89527091D01*
X164040476Y-89407866D01*
X163830000Y-89366000D01*
X163063549Y-89366000D01*
X162887703Y-89102827D01*
X162514616Y-88853539D01*
X162074530Y-88766000D01*
X162029470Y-88766000D01*
X161589384Y-88853539D01*
X161216297Y-89102827D01*
X160967009Y-89475914D01*
X160879470Y-89916000D01*
X157693000Y-89916000D01*
X157693000Y-87734787D01*
X161065201Y-87734787D01*
X161100510Y-87820085D01*
X161342882Y-88150400D01*
X161693210Y-88362820D01*
X161852000Y-88344298D01*
X161852000Y-87576000D01*
X162252000Y-87576000D01*
X162252000Y-88344298D01*
X162410790Y-88362820D01*
X162761118Y-88150400D01*
X163003490Y-87820085D01*
X163038799Y-87734787D01*
X163019035Y-87576000D01*
X162252000Y-87576000D01*
X161852000Y-87576000D01*
X161084965Y-87576000D01*
X161065201Y-87734787D01*
X157693000Y-87734787D01*
X157693000Y-87017213D01*
X161065201Y-87017213D01*
X161084965Y-87176000D01*
X161852000Y-87176000D01*
X161852000Y-86407702D01*
X162252000Y-86407702D01*
X162252000Y-87176000D01*
X163019035Y-87176000D01*
X163038799Y-87017213D01*
X163003490Y-86931915D01*
X162761118Y-86601600D01*
X162410790Y-86389180D01*
X162252000Y-86407702D01*
X161852000Y-86407702D01*
X161693210Y-86389180D01*
X161342882Y-86601600D01*
X161100510Y-86931915D01*
X161065201Y-87017213D01*
X157693000Y-87017213D01*
X157693000Y-86065000D01*
X161392387Y-86065000D01*
X161488815Y-86129431D01*
X162024572Y-86236000D01*
X162079428Y-86236000D01*
X162615185Y-86129431D01*
X163069377Y-85825949D01*
X163372859Y-85371757D01*
X163479428Y-84836000D01*
X163372859Y-84300243D01*
X163069377Y-83846051D01*
X162615185Y-83542569D01*
X162079428Y-83436000D01*
X162024572Y-83436000D01*
X161488815Y-83542569D01*
X161034623Y-83846051D01*
X160854917Y-84115000D01*
X157238335Y-84115000D01*
X156937763Y-83990192D01*
X156500156Y-83989810D01*
X156197173Y-84115000D01*
X152803858Y-84115000D01*
X151246832Y-82557974D01*
X151404869Y-82557974D01*
X151622982Y-82785335D01*
X152374732Y-83045967D01*
X153168998Y-82999078D01*
X153685018Y-82785335D01*
X153903131Y-82557974D01*
X152654000Y-81308843D01*
X151404869Y-82557974D01*
X151246832Y-82557974D01*
X150549429Y-81860571D01*
X150233117Y-81649217D01*
X149860000Y-81575000D01*
X146812000Y-81575000D01*
X146438884Y-81649217D01*
X146438882Y-81649218D01*
X146438883Y-81649218D01*
X146122571Y-81860571D01*
X143836571Y-84146571D01*
X143625217Y-84462883D01*
X143551000Y-84836000D01*
X143551000Y-85956142D01*
X141042571Y-88464571D01*
X140831217Y-88780883D01*
X140767179Y-89102827D01*
X140757000Y-89154000D01*
X140757000Y-89528246D01*
X140432000Y-89528246D01*
X140209654Y-89570083D01*
X140005442Y-89701490D01*
X139868444Y-89901993D01*
X139820246Y-90140000D01*
X135228000Y-90140000D01*
X135228000Y-89645357D01*
X136109486Y-89645357D01*
X136272356Y-89825821D01*
X136860512Y-90011035D01*
X137474774Y-89957073D01*
X137791644Y-89825821D01*
X137954514Y-89645357D01*
X137032000Y-88722843D01*
X136109486Y-89645357D01*
X135228000Y-89645357D01*
X135228000Y-88268512D01*
X135460965Y-88268512D01*
X135514927Y-88882774D01*
X135646179Y-89199644D01*
X135826643Y-89362514D01*
X136749157Y-88440000D01*
X137314843Y-88440000D01*
X138237357Y-89362514D01*
X138417821Y-89199644D01*
X138603035Y-88611488D01*
X138549073Y-87997226D01*
X138417821Y-87680356D01*
X138237357Y-87517486D01*
X137314843Y-88440000D01*
X136749157Y-88440000D01*
X135826643Y-87517486D01*
X135646179Y-87680356D01*
X135460965Y-88268512D01*
X135228000Y-88268512D01*
X135228000Y-87234643D01*
X136109486Y-87234643D01*
X137032000Y-88157157D01*
X137954514Y-87234643D01*
X137791644Y-87054179D01*
X137203488Y-86868965D01*
X136589226Y-86922927D01*
X136272356Y-87054179D01*
X136109486Y-87234643D01*
X135228000Y-87234643D01*
X135228000Y-86645357D01*
X140809486Y-86645357D01*
X140972356Y-86825821D01*
X141560512Y-87011035D01*
X142174774Y-86957073D01*
X142491644Y-86825821D01*
X142654514Y-86645357D01*
X141732000Y-85722843D01*
X140809486Y-86645357D01*
X135228000Y-86645357D01*
X135228000Y-85268512D01*
X140160965Y-85268512D01*
X140214927Y-85882774D01*
X140346179Y-86199644D01*
X140526643Y-86362514D01*
X141449157Y-85440000D01*
X142014843Y-85440000D01*
X142937357Y-86362514D01*
X143117821Y-86199644D01*
X143303035Y-85611488D01*
X143249073Y-84997226D01*
X143117821Y-84680356D01*
X142937357Y-84517486D01*
X142014843Y-85440000D01*
X141449157Y-85440000D01*
X140526643Y-84517486D01*
X140346179Y-84680356D01*
X140160965Y-85268512D01*
X135228000Y-85268512D01*
X135228000Y-84234643D01*
X140809486Y-84234643D01*
X141732000Y-85157157D01*
X142654514Y-84234643D01*
X142491644Y-84054179D01*
X141903488Y-83868965D01*
X141289226Y-83922927D01*
X140972356Y-84054179D01*
X140809486Y-84234643D01*
X135228000Y-84234643D01*
X135228000Y-80746732D01*
X150634033Y-80746732D01*
X150680922Y-81540998D01*
X150894665Y-82057018D01*
X151122026Y-82275131D01*
X152371157Y-81026000D01*
X152936843Y-81026000D01*
X154185974Y-82275131D01*
X154413335Y-82057018D01*
X154673967Y-81305268D01*
X154627078Y-80511002D01*
X154413335Y-79994982D01*
X154185974Y-79776869D01*
X152936843Y-81026000D01*
X152371157Y-81026000D01*
X151122026Y-79776869D01*
X150894665Y-79994982D01*
X150634033Y-80746732D01*
X135228000Y-80746732D01*
X135228000Y-80051422D01*
X135785396Y-79494026D01*
X151404869Y-79494026D01*
X152654000Y-80743157D01*
X153903131Y-79494026D01*
X153685018Y-79266665D01*
X152933268Y-79006033D01*
X152139002Y-79052922D01*
X151622982Y-79266665D01*
X151404869Y-79494026D01*
X135785396Y-79494026D01*
X136439422Y-78840000D01*
X170144921Y-78840000D01*
X171350000Y-79804063D01*
X171350000Y-79804063D01*
G37*
X171350000Y-79804063D02*
X171350000Y-118068578D01*
X170138578Y-119280000D01*
X136185422Y-119280000D01*
X135531396Y-118625974D01*
X167914869Y-118625974D01*
X168132982Y-118853335D01*
X168884732Y-119113967D01*
X169678998Y-119067078D01*
X170195018Y-118853335D01*
X170413131Y-118625974D01*
X169164000Y-117376843D01*
X167914869Y-118625974D01*
X135531396Y-118625974D01*
X135228000Y-118322578D01*
X135228000Y-117206751D01*
X141202918Y-117206751D01*
X141422211Y-117575708D01*
X141766005Y-117832660D01*
X141873253Y-117877061D01*
X142040000Y-117858040D01*
X142040000Y-117040000D01*
X142440000Y-117040000D01*
X142440000Y-117858040D01*
X142606747Y-117877061D01*
X142713995Y-117832660D01*
X143057789Y-117575708D01*
X143277082Y-117206751D01*
X143259186Y-117040000D01*
X142440000Y-117040000D01*
X142040000Y-117040000D01*
X141220814Y-117040000D01*
X141202918Y-117206751D01*
X135228000Y-117206751D01*
X135228000Y-105596558D01*
X135295683Y-105664359D01*
X135516129Y-105755896D01*
X135634959Y-105756000D01*
X135959019Y-106080060D01*
X135771176Y-106079896D01*
X135550571Y-106171048D01*
X135381641Y-106339683D01*
X135290104Y-106560129D01*
X135289896Y-106798824D01*
X135381048Y-107019429D01*
X135465000Y-107103528D01*
X135465000Y-109918000D01*
X135482539Y-110006173D01*
X135497351Y-110080641D01*
X135589480Y-110218520D01*
X136891480Y-111520520D01*
X137029359Y-111612649D01*
X137056343Y-111618016D01*
X137192000Y-111645000D01*
X137412374Y-111645000D01*
X137392123Y-111745000D01*
X137392123Y-112295000D01*
X137413042Y-112406173D01*
X137478745Y-112508279D01*
X137578997Y-112576778D01*
X137698000Y-112600877D01*
X139298000Y-112600877D01*
X139384414Y-112584617D01*
X139367123Y-112670000D01*
X139367123Y-114270000D01*
X139388042Y-114381173D01*
X139453745Y-114483279D01*
X139523000Y-114530599D01*
X139523000Y-114898459D01*
X139445641Y-114975683D01*
X139354104Y-115196129D01*
X139353896Y-115434824D01*
X139445048Y-115655429D01*
X139613683Y-115824359D01*
X139834129Y-115915896D01*
X140072824Y-115916104D01*
X140293429Y-115824952D01*
X140462359Y-115656317D01*
X140479059Y-115616099D01*
X140479480Y-115616520D01*
X140617359Y-115708649D01*
X140780000Y-115741000D01*
X142039998Y-115741000D01*
X142039998Y-115821960D01*
X141873253Y-115802939D01*
X141766005Y-115847340D01*
X141422211Y-116104292D01*
X141202918Y-116473249D01*
X141220814Y-116640000D01*
X142040000Y-116640000D01*
X142040000Y-116620000D01*
X142440000Y-116620000D01*
X142440000Y-116640000D01*
X143259186Y-116640000D01*
X143277082Y-116473249D01*
X143057789Y-116104292D01*
X142713995Y-115847340D01*
X142606747Y-115802939D01*
X142440002Y-115821960D01*
X142440002Y-115741000D01*
X143762946Y-115741000D01*
X143716721Y-115770745D01*
X143648222Y-115870997D01*
X143624123Y-115990000D01*
X143624123Y-117690000D01*
X143645042Y-117801173D01*
X143710745Y-117903279D01*
X143810997Y-117971778D01*
X143930000Y-117995877D01*
X145630000Y-117995877D01*
X145741173Y-117974958D01*
X145843279Y-117909255D01*
X145911778Y-117809003D01*
X145935877Y-117690000D01*
X145935877Y-115990000D01*
X145914958Y-115878827D01*
X145849255Y-115776721D01*
X145796975Y-115741000D01*
X147651960Y-115741000D01*
X148289341Y-116378381D01*
X148202000Y-116817470D01*
X148202000Y-116862530D01*
X148289539Y-117302616D01*
X148538827Y-117675703D01*
X148911914Y-117924991D01*
X149352000Y-118012530D01*
X149792086Y-117924991D01*
X150165173Y-117675703D01*
X150414461Y-117302616D01*
X150502000Y-116862530D01*
X150502000Y-116817470D01*
X150414461Y-116377384D01*
X150165173Y-116004297D01*
X149792086Y-115755009D01*
X149352000Y-115667470D01*
X148911914Y-115755009D01*
X148885619Y-115772579D01*
X148346040Y-115233000D01*
X149683960Y-115233000D01*
X150736123Y-116285163D01*
X150736123Y-117690000D01*
X150757042Y-117801173D01*
X150822745Y-117903279D01*
X150922997Y-117971778D01*
X151042000Y-117995877D01*
X152742000Y-117995877D01*
X152853173Y-117974958D01*
X152955279Y-117909255D01*
X153023778Y-117809003D01*
X153047877Y-117690000D01*
X153047877Y-115990000D01*
X153026958Y-115878827D01*
X152961255Y-115776721D01*
X152861003Y-115708222D01*
X152742000Y-115684123D01*
X151337163Y-115684123D01*
X150160520Y-114507480D01*
X150022641Y-114415351D01*
X149995657Y-114409984D01*
X149860000Y-114383000D01*
X146105994Y-114383000D01*
X146128877Y-114270000D01*
X146128877Y-112670000D01*
X146112617Y-112583586D01*
X146198000Y-112600877D01*
X147798000Y-112600877D01*
X147909173Y-112579958D01*
X148011279Y-112514255D01*
X148079778Y-112414003D01*
X148103877Y-112295000D01*
X148103877Y-111745000D01*
X148082958Y-111633827D01*
X148074846Y-111621221D01*
X148079778Y-111614003D01*
X148103877Y-111495000D01*
X148103877Y-110945000D01*
X148082958Y-110833827D01*
X148074846Y-110821221D01*
X148079778Y-110814003D01*
X148103877Y-110695000D01*
X148103877Y-110145000D01*
X148082958Y-110033827D01*
X148039237Y-109965883D01*
X148048000Y-109944728D01*
X148048000Y-109820000D01*
X147985500Y-109757500D01*
X147198000Y-109757500D01*
X147198000Y-109839123D01*
X146798000Y-109839123D01*
X146798000Y-109757500D01*
X146010500Y-109757500D01*
X145948000Y-109820000D01*
X145948000Y-109944728D01*
X145956964Y-109966369D01*
X145916222Y-110025997D01*
X145892123Y-110145000D01*
X145892123Y-110695000D01*
X145913042Y-110806173D01*
X145921154Y-110818779D01*
X145916222Y-110825997D01*
X145892123Y-110945000D01*
X145892123Y-111495000D01*
X145913042Y-111606173D01*
X145921154Y-111618779D01*
X145916222Y-111625997D01*
X145892123Y-111745000D01*
X145892123Y-112295000D01*
X145908383Y-112381414D01*
X145823000Y-112364123D01*
X145273000Y-112364123D01*
X145161827Y-112385042D01*
X145149221Y-112393154D01*
X145142003Y-112388222D01*
X145029584Y-112365456D01*
X145035039Y-112360001D01*
X145152824Y-112360104D01*
X145373429Y-112268952D01*
X145542359Y-112100317D01*
X145633896Y-111879871D01*
X145634104Y-111641176D01*
X145542952Y-111420571D01*
X145374317Y-111251641D01*
X145153871Y-111160104D01*
X144915176Y-111159896D01*
X144694571Y-111251048D01*
X144525641Y-111419683D01*
X144434104Y-111640129D01*
X144434000Y-111758959D01*
X144349960Y-111843000D01*
X142494000Y-111843000D01*
X142331360Y-111875351D01*
X142285608Y-111905922D01*
X142193479Y-111967480D01*
X142047480Y-112113480D01*
X141955351Y-112251359D01*
X141955351Y-112251360D01*
X141928665Y-112385521D01*
X141823000Y-112364123D01*
X141273000Y-112364123D01*
X141170360Y-112383436D01*
X141264520Y-112320520D01*
X142924040Y-110661000D01*
X144102470Y-110661000D01*
X144185683Y-110744359D01*
X144406129Y-110835896D01*
X144644824Y-110836104D01*
X144865429Y-110744952D01*
X145034359Y-110576317D01*
X145125896Y-110355871D01*
X145126104Y-110117176D01*
X145034952Y-109896571D01*
X144866317Y-109727641D01*
X144645871Y-109636104D01*
X144407176Y-109635896D01*
X144186571Y-109727048D01*
X144102472Y-109811000D01*
X142748000Y-109811000D01*
X142612343Y-109837984D01*
X142585359Y-109843351D01*
X142447480Y-109935480D01*
X140787960Y-111595000D01*
X139583626Y-111595000D01*
X139603877Y-111495000D01*
X139603877Y-110945000D01*
X139582958Y-110833827D01*
X139539237Y-110765883D01*
X139548000Y-110744728D01*
X139548000Y-110620000D01*
X139485500Y-110557500D01*
X138698000Y-110557500D01*
X138698000Y-110639123D01*
X138298000Y-110639123D01*
X138298000Y-110557500D01*
X137510500Y-110557500D01*
X137448000Y-110620000D01*
X137448000Y-110744728D01*
X137456964Y-110766369D01*
X137437401Y-110795000D01*
X137368040Y-110795000D01*
X136315000Y-109741960D01*
X136315000Y-109719925D01*
X136351480Y-109774520D01*
X136497479Y-109920520D01*
X136552824Y-109957500D01*
X136635360Y-110012649D01*
X136798000Y-110045000D01*
X137438026Y-110045000D01*
X137456763Y-110074117D01*
X137448000Y-110095272D01*
X137448000Y-110220000D01*
X137510500Y-110282500D01*
X138298000Y-110282500D01*
X138298000Y-110200877D01*
X138698000Y-110200877D01*
X138698000Y-110282500D01*
X139485500Y-110282500D01*
X139548000Y-110220000D01*
X139548000Y-110095272D01*
X139539036Y-110073631D01*
X139579778Y-110014003D01*
X139603877Y-109895000D01*
X139603877Y-109846824D01*
X140115896Y-109846824D01*
X140207048Y-110067429D01*
X140375683Y-110236359D01*
X140596129Y-110327896D01*
X140834824Y-110328104D01*
X141055429Y-110236952D01*
X141224359Y-110068317D01*
X141315896Y-109847871D01*
X141316000Y-109729041D01*
X143257040Y-107788001D01*
X143374824Y-107788104D01*
X143595429Y-107696952D01*
X143764359Y-107528317D01*
X143855896Y-107307871D01*
X143856104Y-107069176D01*
X143764952Y-106848571D01*
X143596317Y-106679641D01*
X143375871Y-106588104D01*
X143137176Y-106587896D01*
X142916571Y-106679048D01*
X142747641Y-106847683D01*
X142656104Y-107068129D01*
X142656000Y-107186959D01*
X140714961Y-109127999D01*
X140597176Y-109127896D01*
X140376571Y-109219048D01*
X140207641Y-109387683D01*
X140116104Y-109608129D01*
X140115896Y-109846824D01*
X139603877Y-109846824D01*
X139603877Y-109345000D01*
X139582958Y-109233827D01*
X139539237Y-109165883D01*
X139548000Y-109144728D01*
X139548000Y-109020000D01*
X139485500Y-108957500D01*
X138698000Y-108957500D01*
X138698000Y-109039123D01*
X138298000Y-109039123D01*
X138298000Y-108957500D01*
X137510500Y-108957500D01*
X137448000Y-109020000D01*
X137448000Y-109144728D01*
X137456964Y-109166369D01*
X137437401Y-109195000D01*
X137077000Y-109195000D01*
X137077000Y-108881530D01*
X137160359Y-108798317D01*
X137251896Y-108577871D01*
X137252000Y-108459041D01*
X137266041Y-108445000D01*
X137438026Y-108445000D01*
X137456763Y-108474117D01*
X137448000Y-108495272D01*
X137448000Y-108620000D01*
X137510500Y-108682500D01*
X138298000Y-108682500D01*
X138298000Y-108600877D01*
X138698000Y-108600877D01*
X138698000Y-108682500D01*
X139485500Y-108682500D01*
X139548000Y-108620000D01*
X139548000Y-108495272D01*
X139539036Y-108473631D01*
X139579778Y-108414003D01*
X139603877Y-108295000D01*
X139603877Y-107745000D01*
X139582958Y-107633827D01*
X139574846Y-107621221D01*
X139579778Y-107614003D01*
X139603877Y-107495000D01*
X139603877Y-106945000D01*
X139582958Y-106833827D01*
X139574846Y-106821221D01*
X139579778Y-106814003D01*
X139603877Y-106695000D01*
X139603877Y-106145000D01*
X139587617Y-106058586D01*
X139673000Y-106075877D01*
X140223000Y-106075877D01*
X140323000Y-106057060D01*
X140323000Y-107748525D01*
X140207641Y-107863683D01*
X140116104Y-108084129D01*
X140115896Y-108322824D01*
X140207048Y-108543429D01*
X140375683Y-108712359D01*
X140596129Y-108803896D01*
X140834824Y-108804104D01*
X141055429Y-108712952D01*
X141224359Y-108544317D01*
X141315896Y-108323871D01*
X141316104Y-108085176D01*
X141224952Y-107864571D01*
X141173000Y-107812528D01*
X141173000Y-106055626D01*
X141273000Y-106075877D01*
X141823000Y-106075877D01*
X141934173Y-106054958D01*
X141946779Y-106046846D01*
X141953997Y-106051778D01*
X142073000Y-106075877D01*
X142623000Y-106075877D01*
X142734173Y-106054958D01*
X142746779Y-106046846D01*
X142753997Y-106051778D01*
X142873000Y-106075877D01*
X143423000Y-106075877D01*
X143534173Y-106054958D01*
X143546779Y-106046846D01*
X143553997Y-106051778D01*
X143673000Y-106075877D01*
X144223000Y-106075877D01*
X144323000Y-106057060D01*
X144323000Y-108574414D01*
X144271641Y-108625683D01*
X144180104Y-108846129D01*
X144179896Y-109084824D01*
X144271048Y-109305429D01*
X144439683Y-109474359D01*
X144660129Y-109565896D01*
X144898824Y-109566104D01*
X145119429Y-109474952D01*
X145288359Y-109306317D01*
X145379896Y-109085871D01*
X145380104Y-108847176D01*
X145288952Y-108626571D01*
X145173000Y-108510416D01*
X145173000Y-108175626D01*
X145201683Y-108204359D01*
X145422129Y-108295896D01*
X145660824Y-108296104D01*
X145881429Y-108204952D01*
X145892123Y-108194277D01*
X145892123Y-108295000D01*
X145913042Y-108406173D01*
X145921154Y-108418779D01*
X145916222Y-108425997D01*
X145892123Y-108545000D01*
X145892123Y-109095000D01*
X145913042Y-109206173D01*
X145956763Y-109274117D01*
X145948000Y-109295272D01*
X145948000Y-109420000D01*
X146010500Y-109482500D01*
X146798000Y-109482500D01*
X146798000Y-109400877D01*
X147198000Y-109400877D01*
X147198000Y-109482500D01*
X147985500Y-109482500D01*
X148048000Y-109420000D01*
X148048000Y-109295272D01*
X148039036Y-109273631D01*
X148079778Y-109214003D01*
X148103877Y-109095000D01*
X148103877Y-108545000D01*
X148082958Y-108433827D01*
X148074846Y-108421221D01*
X148079778Y-108414003D01*
X148103877Y-108295000D01*
X148103877Y-107745000D01*
X148082958Y-107633827D01*
X148074846Y-107621221D01*
X148079778Y-107614003D01*
X148103877Y-107495000D01*
X148103877Y-107048917D01*
X148927000Y-107872041D01*
X148927000Y-111336470D01*
X148843641Y-111419683D01*
X148752104Y-111640129D01*
X148751896Y-111878824D01*
X148843048Y-112099429D01*
X149011683Y-112268359D01*
X149232129Y-112359896D01*
X149470824Y-112360104D01*
X149691429Y-112268952D01*
X149860359Y-112100317D01*
X149951896Y-111879871D01*
X149952104Y-111641176D01*
X149860952Y-111420571D01*
X149777000Y-111336472D01*
X149777000Y-110376857D01*
X149859048Y-110575429D01*
X150027683Y-110744359D01*
X150248129Y-110835896D01*
X150486824Y-110836104D01*
X150707429Y-110744952D01*
X150876359Y-110576317D01*
X150967896Y-110355871D01*
X150968104Y-110117176D01*
X150876952Y-109896571D01*
X150793000Y-109812472D01*
X150793000Y-109592824D01*
X153577896Y-109592824D01*
X153669048Y-109813429D01*
X153837683Y-109982359D01*
X154007000Y-110052665D01*
X154007000Y-113538000D01*
X154025825Y-113632640D01*
X154039351Y-113700641D01*
X154131480Y-113838520D01*
X155147480Y-114854520D01*
X155285359Y-114946649D01*
X155312343Y-114952016D01*
X155448000Y-114979000D01*
X156691930Y-114979000D01*
X156644297Y-115010827D01*
X156395009Y-115383914D01*
X156307470Y-115824000D01*
X156395009Y-116264086D01*
X156644297Y-116637173D01*
X157017384Y-116886461D01*
X157457470Y-116974000D01*
X157502530Y-116974000D01*
X157942616Y-116886461D01*
X158315703Y-116637173D01*
X158564991Y-116264086D01*
X158579579Y-116190747D01*
X158982939Y-116190747D01*
X159027340Y-116297995D01*
X159284292Y-116641789D01*
X159653249Y-116861082D01*
X159820000Y-116843186D01*
X159820000Y-116024000D01*
X160220000Y-116024000D01*
X160220000Y-116843186D01*
X160386751Y-116861082D01*
X160464734Y-116814732D01*
X167144033Y-116814732D01*
X167190922Y-117608998D01*
X167404665Y-118125018D01*
X167632026Y-118343131D01*
X168881157Y-117094000D01*
X169446843Y-117094000D01*
X170695974Y-118343131D01*
X170923335Y-118125018D01*
X171183967Y-117373268D01*
X171137078Y-116579002D01*
X170923335Y-116062982D01*
X170695974Y-115844869D01*
X169446843Y-117094000D01*
X168881157Y-117094000D01*
X167632026Y-115844869D01*
X167404665Y-116062982D01*
X167144033Y-116814732D01*
X160464734Y-116814732D01*
X160755708Y-116641789D01*
X161012660Y-116297995D01*
X161057061Y-116190747D01*
X161038040Y-116024000D01*
X160220000Y-116024000D01*
X159820000Y-116024000D01*
X159001960Y-116024000D01*
X158982939Y-116190747D01*
X158579579Y-116190747D01*
X158652530Y-115824000D01*
X158579580Y-115457253D01*
X158982939Y-115457253D01*
X159001960Y-115624000D01*
X159820000Y-115624000D01*
X159820000Y-114804814D01*
X160220000Y-114804814D01*
X160220000Y-115624000D01*
X161038040Y-115624000D01*
X161045109Y-115562026D01*
X167914869Y-115562026D01*
X169164000Y-116811157D01*
X170413131Y-115562026D01*
X170195018Y-115334665D01*
X169443268Y-115074033D01*
X168649002Y-115120922D01*
X168132982Y-115334665D01*
X167914869Y-115562026D01*
X161045109Y-115562026D01*
X161057061Y-115457253D01*
X161012660Y-115350005D01*
X160755708Y-115006211D01*
X160386751Y-114786918D01*
X160220000Y-114804814D01*
X159820000Y-114804814D01*
X159653249Y-114786918D01*
X159284292Y-115006211D01*
X159027340Y-115350005D01*
X158982939Y-115457253D01*
X158579580Y-115457253D01*
X158564991Y-115383914D01*
X158315703Y-115010827D01*
X158268070Y-114979000D01*
X158750000Y-114979000D01*
X158885657Y-114952016D01*
X158912641Y-114946649D01*
X159050520Y-114854520D01*
X159558381Y-114346659D01*
X159997470Y-114434000D01*
X160042530Y-114434000D01*
X160482616Y-114346461D01*
X160855703Y-114097173D01*
X161104991Y-113724086D01*
X161192530Y-113284000D01*
X161164433Y-113142747D01*
X166602939Y-113142747D01*
X166647340Y-113249995D01*
X166904292Y-113593789D01*
X167273249Y-113813082D01*
X167440000Y-113795186D01*
X167440000Y-112976000D01*
X167840000Y-112976000D01*
X167840000Y-113795186D01*
X168006751Y-113813082D01*
X168375708Y-113593789D01*
X168632660Y-113249995D01*
X168677061Y-113142747D01*
X168658040Y-112976000D01*
X167840000Y-112976000D01*
X167440000Y-112976000D01*
X166621960Y-112976000D01*
X166602939Y-113142747D01*
X161164433Y-113142747D01*
X161104991Y-112843914D01*
X160855703Y-112470827D01*
X160763551Y-112409253D01*
X166602939Y-112409253D01*
X166621960Y-112576000D01*
X167440000Y-112576000D01*
X167440000Y-111756814D01*
X167840000Y-111756814D01*
X167840000Y-112576000D01*
X168658040Y-112576000D01*
X168677061Y-112409253D01*
X168632660Y-112302005D01*
X168375708Y-111958211D01*
X168006751Y-111738918D01*
X167840000Y-111756814D01*
X167440000Y-111756814D01*
X167273249Y-111738918D01*
X166904292Y-111958211D01*
X166647340Y-112302005D01*
X166602939Y-112409253D01*
X160763551Y-112409253D01*
X160482616Y-112221539D01*
X160042530Y-112134000D01*
X159997470Y-112134000D01*
X159557384Y-112221539D01*
X159184297Y-112470827D01*
X158935009Y-112843914D01*
X158847470Y-113284000D01*
X158935009Y-113724086D01*
X158952579Y-113750381D01*
X158573960Y-114129000D01*
X158268070Y-114129000D01*
X158315703Y-114097173D01*
X158564991Y-113724086D01*
X158652530Y-113284000D01*
X158564991Y-112843914D01*
X158315703Y-112470827D01*
X157942616Y-112221539D01*
X157502530Y-112134000D01*
X157457470Y-112134000D01*
X157017384Y-112221539D01*
X156644297Y-112470827D01*
X156395009Y-112843914D01*
X156307470Y-113284000D01*
X156395009Y-113724086D01*
X156644297Y-114097173D01*
X156691930Y-114129000D01*
X155624040Y-114129000D01*
X154857000Y-113361960D01*
X154857000Y-109894000D01*
X156324123Y-109894000D01*
X156324123Y-111594000D01*
X156345042Y-111705173D01*
X156410745Y-111807279D01*
X156510997Y-111875778D01*
X156630000Y-111899877D01*
X158330000Y-111899877D01*
X158441173Y-111878958D01*
X158543279Y-111813255D01*
X158611778Y-111713003D01*
X158635877Y-111594000D01*
X158635877Y-110744000D01*
X158847470Y-110744000D01*
X158935009Y-111184086D01*
X159184297Y-111557173D01*
X159557384Y-111806461D01*
X159997470Y-111894000D01*
X160042530Y-111894000D01*
X160482616Y-111806461D01*
X160855703Y-111557173D01*
X161104991Y-111184086D01*
X161192530Y-110744000D01*
X161104991Y-110303914D01*
X160855703Y-109930827D01*
X160482616Y-109681539D01*
X160042530Y-109594000D01*
X159997470Y-109594000D01*
X159557384Y-109681539D01*
X159184297Y-109930827D01*
X158935009Y-110303914D01*
X158847470Y-110744000D01*
X158635877Y-110744000D01*
X158635877Y-109894000D01*
X158614958Y-109782827D01*
X158549255Y-109680721D01*
X158449003Y-109612222D01*
X158330000Y-109588123D01*
X156630000Y-109588123D01*
X156518827Y-109609042D01*
X156416721Y-109674745D01*
X156348222Y-109774997D01*
X156324123Y-109894000D01*
X154857000Y-109894000D01*
X154857000Y-109728000D01*
X154824649Y-109565360D01*
X154777982Y-109495518D01*
X154778104Y-109355176D01*
X154686952Y-109134571D01*
X154518317Y-108965641D01*
X154297871Y-108874104D01*
X154059176Y-108873896D01*
X153838571Y-108965048D01*
X153669641Y-109133683D01*
X153578104Y-109354129D01*
X153577896Y-109592824D01*
X150793000Y-109592824D01*
X150793000Y-104902000D01*
X150760649Y-104739360D01*
X150760649Y-104739359D01*
X150668520Y-104601480D01*
X149777000Y-103709960D01*
X149777000Y-103635748D01*
X149794502Y-103632267D01*
X150151367Y-103393817D01*
X150389817Y-103036952D01*
X150473550Y-102616000D01*
X150389817Y-102195048D01*
X150151367Y-101838183D01*
X149794502Y-101599733D01*
X149373550Y-101516000D01*
X149330450Y-101516000D01*
X148909498Y-101599733D01*
X148552633Y-101838183D01*
X148314183Y-102195048D01*
X148230450Y-102616000D01*
X148314183Y-103036952D01*
X148552633Y-103393817D01*
X148909498Y-103632267D01*
X148927000Y-103635748D01*
X148927000Y-103886000D01*
X148953984Y-104021657D01*
X148959351Y-104048641D01*
X149051480Y-104186520D01*
X149943000Y-105078040D01*
X149943000Y-109812470D01*
X149859641Y-109895683D01*
X149777000Y-110094705D01*
X149777000Y-107696000D01*
X149758721Y-107604104D01*
X149744649Y-107533359D01*
X149652521Y-107395480D01*
X148376520Y-106119480D01*
X148238641Y-106027351D01*
X148211657Y-106021984D01*
X148076000Y-105995000D01*
X148057974Y-105995000D01*
X148017255Y-105931721D01*
X147917003Y-105863222D01*
X147798000Y-105839123D01*
X147423000Y-105839123D01*
X147423000Y-101532000D01*
X147390649Y-101369360D01*
X147390649Y-101369359D01*
X147298520Y-101231480D01*
X144229864Y-98162824D01*
X144433896Y-98162824D01*
X144525048Y-98383429D01*
X144693683Y-98552359D01*
X144914129Y-98643896D01*
X145032960Y-98644000D01*
X146765480Y-100376520D01*
X146903359Y-100468649D01*
X146930343Y-100474016D01*
X147066000Y-100501000D01*
X148316888Y-100501000D01*
X148552633Y-100853817D01*
X148909498Y-101092267D01*
X149330450Y-101176000D01*
X149373550Y-101176000D01*
X149794502Y-101092267D01*
X150151367Y-100853817D01*
X150389817Y-100496952D01*
X150473550Y-100076000D01*
X150389817Y-99655048D01*
X150151367Y-99298183D01*
X149794502Y-99059733D01*
X149373550Y-98976000D01*
X149330450Y-98976000D01*
X148909498Y-99059733D01*
X148552633Y-99298183D01*
X148316888Y-99651000D01*
X147242040Y-99651000D01*
X145634001Y-98042961D01*
X145634104Y-97925176D01*
X145542952Y-97704571D01*
X145374676Y-97536000D01*
X148230450Y-97536000D01*
X148314183Y-97956952D01*
X148552633Y-98313817D01*
X148909498Y-98552267D01*
X149330450Y-98636000D01*
X149373550Y-98636000D01*
X149794502Y-98552267D01*
X150151367Y-98313817D01*
X150243453Y-98176000D01*
X150484123Y-98176000D01*
X150484123Y-101976000D01*
X150505042Y-102087173D01*
X150570745Y-102189279D01*
X150670997Y-102257778D01*
X150790000Y-102281877D01*
X152790000Y-102281877D01*
X152901173Y-102260958D01*
X153003279Y-102195255D01*
X153071778Y-102095003D01*
X153095877Y-101976000D01*
X153095877Y-101626000D01*
X156784123Y-101626000D01*
X156784123Y-103126000D01*
X156805042Y-103237173D01*
X156870745Y-103339279D01*
X156970997Y-103407778D01*
X157090000Y-103431877D01*
X157515000Y-103431877D01*
X157515000Y-104290931D01*
X157512222Y-104294997D01*
X157488123Y-104414000D01*
X157488123Y-106914000D01*
X157509042Y-107025173D01*
X157574745Y-107127279D01*
X157674997Y-107195778D01*
X157794000Y-107219877D01*
X159746705Y-107219877D01*
X163169414Y-110642586D01*
X163355957Y-110767231D01*
X163576000Y-110811000D01*
X166645155Y-110811000D01*
X166804297Y-111049173D01*
X167177384Y-111298461D01*
X167617470Y-111386000D01*
X167662530Y-111386000D01*
X168102616Y-111298461D01*
X168475703Y-111049173D01*
X168724991Y-110676086D01*
X168812530Y-110236000D01*
X168724991Y-109795914D01*
X168475703Y-109422827D01*
X168102616Y-109173539D01*
X167662530Y-109086000D01*
X167617470Y-109086000D01*
X167177384Y-109173539D01*
X166804297Y-109422827D01*
X166645155Y-109661000D01*
X163814172Y-109661000D01*
X161239407Y-107086235D01*
X161275778Y-107033003D01*
X161299877Y-106914000D01*
X161299877Y-105926500D01*
X161844000Y-105926500D01*
X161844000Y-106963728D01*
X161882060Y-107055614D01*
X161952386Y-107125940D01*
X162044272Y-107164000D01*
X163431500Y-107164000D01*
X163494000Y-107101500D01*
X163494000Y-105864000D01*
X163894000Y-105864000D01*
X163894000Y-107101500D01*
X163956500Y-107164000D01*
X165343728Y-107164000D01*
X165435614Y-107125940D01*
X165505940Y-107055614D01*
X165544000Y-106963728D01*
X165544000Y-106846000D01*
X166484123Y-106846000D01*
X166484123Y-108546000D01*
X166505042Y-108657173D01*
X166570745Y-108759279D01*
X166670997Y-108827778D01*
X166790000Y-108851877D01*
X168490000Y-108851877D01*
X168601173Y-108830958D01*
X168703279Y-108765255D01*
X168771778Y-108665003D01*
X168795877Y-108546000D01*
X168795877Y-106846000D01*
X168774958Y-106734827D01*
X168709255Y-106632721D01*
X168609003Y-106564222D01*
X168490000Y-106540123D01*
X166790000Y-106540123D01*
X166678827Y-106561042D01*
X166576721Y-106626745D01*
X166508222Y-106726997D01*
X166484123Y-106846000D01*
X165544000Y-106846000D01*
X165544000Y-105926500D01*
X165481500Y-105864000D01*
X163894000Y-105864000D01*
X163494000Y-105864000D01*
X161906500Y-105864000D01*
X161844000Y-105926500D01*
X161299877Y-105926500D01*
X161299877Y-104414000D01*
X161290520Y-104364272D01*
X161844000Y-104364272D01*
X161844000Y-105401500D01*
X161906500Y-105464000D01*
X163494000Y-105464000D01*
X163494000Y-104226500D01*
X163894000Y-104226500D01*
X163894000Y-105464000D01*
X165481500Y-105464000D01*
X165544000Y-105401500D01*
X165544000Y-104364272D01*
X165505940Y-104272386D01*
X165435614Y-104202060D01*
X165343728Y-104164000D01*
X163956500Y-104164000D01*
X163894000Y-104226500D01*
X163494000Y-104226500D01*
X163431500Y-104164000D01*
X162044272Y-104164000D01*
X161952386Y-104202060D01*
X161882060Y-104272386D01*
X161844000Y-104364272D01*
X161290520Y-104364272D01*
X161278958Y-104302827D01*
X161213255Y-104200721D01*
X161113003Y-104132222D01*
X160994000Y-104108123D01*
X158665000Y-104108123D01*
X158665000Y-103431877D01*
X159090000Y-103431877D01*
X159201173Y-103410958D01*
X159303279Y-103345255D01*
X159371778Y-103245003D01*
X159395877Y-103126000D01*
X159395877Y-102878500D01*
X161002000Y-102878500D01*
X161002000Y-103465728D01*
X161040060Y-103557614D01*
X161110386Y-103627940D01*
X161202272Y-103666000D01*
X161789500Y-103666000D01*
X161852000Y-103603500D01*
X161852000Y-102816000D01*
X162252000Y-102816000D01*
X162252000Y-103603500D01*
X162314500Y-103666000D01*
X162901728Y-103666000D01*
X162993614Y-103627940D01*
X163063940Y-103557614D01*
X163102000Y-103465728D01*
X163102000Y-102878500D01*
X163039500Y-102816000D01*
X162252000Y-102816000D01*
X161852000Y-102816000D01*
X161064500Y-102816000D01*
X161002000Y-102878500D01*
X159395877Y-102878500D01*
X159395877Y-101766272D01*
X161002000Y-101766272D01*
X161002000Y-102353500D01*
X161064500Y-102416000D01*
X161852000Y-102416000D01*
X161852000Y-101628500D01*
X162252000Y-101628500D01*
X162252000Y-102416000D01*
X163039500Y-102416000D01*
X163102000Y-102353500D01*
X163102000Y-101766272D01*
X163063940Y-101674386D01*
X162993614Y-101604060D01*
X162901728Y-101566000D01*
X162314500Y-101566000D01*
X162252000Y-101628500D01*
X161852000Y-101628500D01*
X161789500Y-101566000D01*
X161202272Y-101566000D01*
X161110386Y-101604060D01*
X161040060Y-101674386D01*
X161002000Y-101766272D01*
X159395877Y-101766272D01*
X159395877Y-101626000D01*
X159374958Y-101514827D01*
X159309255Y-101412721D01*
X159209003Y-101344222D01*
X159090000Y-101320123D01*
X157090000Y-101320123D01*
X156978827Y-101341042D01*
X156876721Y-101406745D01*
X156808222Y-101506997D01*
X156784123Y-101626000D01*
X153095877Y-101626000D01*
X153095877Y-100338500D01*
X156840000Y-100338500D01*
X156840000Y-100875728D01*
X156878060Y-100967614D01*
X156948386Y-101037940D01*
X157040272Y-101076000D01*
X157827500Y-101076000D01*
X157890000Y-101013500D01*
X157890000Y-100276000D01*
X158290000Y-100276000D01*
X158290000Y-101013500D01*
X158352500Y-101076000D01*
X159139728Y-101076000D01*
X159231614Y-101037940D01*
X159301940Y-100967614D01*
X159340000Y-100875728D01*
X159340000Y-100338500D01*
X159277500Y-100276000D01*
X158290000Y-100276000D01*
X157890000Y-100276000D01*
X156902500Y-100276000D01*
X156840000Y-100338500D01*
X153095877Y-100338500D01*
X153095877Y-98176000D01*
X153074958Y-98064827D01*
X153009255Y-97962721D01*
X152909003Y-97894222D01*
X152790000Y-97870123D01*
X150790000Y-97870123D01*
X150678827Y-97891042D01*
X150576721Y-97956745D01*
X150508222Y-98056997D01*
X150484123Y-98176000D01*
X150243453Y-98176000D01*
X150389817Y-97956952D01*
X150473550Y-97536000D01*
X150389817Y-97115048D01*
X150151367Y-96758183D01*
X149794502Y-96519733D01*
X149373550Y-96436000D01*
X149330450Y-96436000D01*
X148909498Y-96519733D01*
X148552633Y-96758183D01*
X148314183Y-97115048D01*
X148230450Y-97536000D01*
X145374676Y-97536000D01*
X145374317Y-97535641D01*
X145153871Y-97444104D01*
X144915176Y-97443896D01*
X144694571Y-97535048D01*
X144525641Y-97703683D01*
X144434104Y-97924129D01*
X144433896Y-98162824D01*
X144229864Y-98162824D01*
X141524520Y-95457480D01*
X141386641Y-95365351D01*
X141359657Y-95359984D01*
X141224000Y-95333000D01*
X140488070Y-95333000D01*
X140535703Y-95301173D01*
X140784991Y-94928086D01*
X140848894Y-94606824D01*
X142147896Y-94606824D01*
X142239048Y-94827429D01*
X142407683Y-94996359D01*
X142628129Y-95087896D01*
X142866824Y-95088104D01*
X143041068Y-95016108D01*
X143146510Y-95121550D01*
X143074721Y-95167745D01*
X143006222Y-95267997D01*
X142982123Y-95387000D01*
X142982123Y-96637000D01*
X143003042Y-96748173D01*
X143068745Y-96850279D01*
X143168997Y-96918778D01*
X143288000Y-96942877D01*
X144788000Y-96942877D01*
X144899173Y-96921958D01*
X145001279Y-96856255D01*
X145069778Y-96756003D01*
X145093877Y-96637000D01*
X145093877Y-96274500D01*
X145538000Y-96274500D01*
X145538000Y-96686728D01*
X145576060Y-96778614D01*
X145646386Y-96848940D01*
X145738272Y-96887000D01*
X146275500Y-96887000D01*
X146338000Y-96824500D01*
X146338000Y-96212000D01*
X146738000Y-96212000D01*
X146738000Y-96824500D01*
X146800500Y-96887000D01*
X147337728Y-96887000D01*
X147429614Y-96848940D01*
X147499940Y-96778614D01*
X147538000Y-96686728D01*
X147538000Y-96274500D01*
X147475500Y-96212000D01*
X146738000Y-96212000D01*
X146338000Y-96212000D01*
X145600500Y-96212000D01*
X145538000Y-96274500D01*
X145093877Y-96274500D01*
X145093877Y-95387000D01*
X145084520Y-95337272D01*
X145538000Y-95337272D01*
X145538000Y-95749500D01*
X145600500Y-95812000D01*
X146338000Y-95812000D01*
X146338000Y-95792000D01*
X146738000Y-95792000D01*
X146738000Y-95812000D01*
X147475500Y-95812000D01*
X147538000Y-95749500D01*
X147538000Y-95337272D01*
X147499940Y-95245386D01*
X147429614Y-95175060D01*
X147337728Y-95137000D01*
X146800500Y-95137000D01*
X146738002Y-95199498D01*
X146738002Y-95151176D01*
X146779614Y-95133940D01*
X146849940Y-95063614D01*
X146877946Y-94996000D01*
X148230450Y-94996000D01*
X148314183Y-95416952D01*
X148552633Y-95773817D01*
X148909498Y-96012267D01*
X149330450Y-96096000D01*
X149373550Y-96096000D01*
X149794502Y-96012267D01*
X150151367Y-95773817D01*
X150389817Y-95416952D01*
X150421335Y-95258500D01*
X153198000Y-95258500D01*
X153198000Y-95670728D01*
X153236060Y-95762614D01*
X153306386Y-95832940D01*
X153398272Y-95871000D01*
X153935500Y-95871000D01*
X153998000Y-95808500D01*
X153998000Y-95196000D01*
X154398000Y-95196000D01*
X154398000Y-95808500D01*
X154460500Y-95871000D01*
X154997728Y-95871000D01*
X155089614Y-95832940D01*
X155159940Y-95762614D01*
X155198000Y-95670728D01*
X155198000Y-95258500D01*
X155135500Y-95196000D01*
X154398000Y-95196000D01*
X153998000Y-95196000D01*
X153260500Y-95196000D01*
X153198000Y-95258500D01*
X150421335Y-95258500D01*
X150473550Y-94996000D01*
X150389817Y-94575048D01*
X150220249Y-94321272D01*
X153198000Y-94321272D01*
X153198000Y-94733500D01*
X153260500Y-94796000D01*
X153998000Y-94796000D01*
X153998000Y-94183500D01*
X154398000Y-94183500D01*
X154398000Y-94796000D01*
X155135500Y-94796000D01*
X155198000Y-94733500D01*
X155198000Y-94321272D01*
X155159940Y-94229386D01*
X155089614Y-94159060D01*
X154997728Y-94121000D01*
X154460500Y-94121000D01*
X154398000Y-94183500D01*
X153998000Y-94183500D01*
X153935500Y-94121000D01*
X153398272Y-94121000D01*
X153306386Y-94159060D01*
X153236060Y-94229386D01*
X153198000Y-94321272D01*
X150220249Y-94321272D01*
X150151367Y-94218183D01*
X149794502Y-93979733D01*
X149373550Y-93896000D01*
X149330450Y-93896000D01*
X148909498Y-93979733D01*
X148552633Y-94218183D01*
X148314183Y-94575048D01*
X148230450Y-94996000D01*
X146877946Y-94996000D01*
X146888000Y-94971728D01*
X146888000Y-94734500D01*
X146825500Y-94672000D01*
X146438000Y-94672000D01*
X146438000Y-94692000D01*
X146038000Y-94692000D01*
X146038000Y-94672000D01*
X145650500Y-94672000D01*
X145588000Y-94734500D01*
X145588000Y-94971728D01*
X145626060Y-95063614D01*
X145696386Y-95133940D01*
X145721023Y-95144145D01*
X145646386Y-95175060D01*
X145576060Y-95245386D01*
X145538000Y-95337272D01*
X145084520Y-95337272D01*
X145072958Y-95275827D01*
X145007255Y-95173721D01*
X144953972Y-95137314D01*
X145019778Y-95041003D01*
X145043877Y-94922000D01*
X145043877Y-94022000D01*
X145034520Y-93972272D01*
X145588000Y-93972272D01*
X145588000Y-94209500D01*
X145650500Y-94272000D01*
X146038000Y-94272000D01*
X146038000Y-93834500D01*
X146438000Y-93834500D01*
X146438000Y-94272000D01*
X146825500Y-94272000D01*
X146888000Y-94209500D01*
X146888000Y-93972272D01*
X146849940Y-93880386D01*
X146779614Y-93810060D01*
X146687728Y-93772000D01*
X146500500Y-93772000D01*
X146438000Y-93834500D01*
X146038000Y-93834500D01*
X145975500Y-93772000D01*
X145788272Y-93772000D01*
X145696386Y-93810060D01*
X145626060Y-93880386D01*
X145588000Y-93972272D01*
X145034520Y-93972272D01*
X145022958Y-93910827D01*
X144957255Y-93808721D01*
X144857003Y-93740222D01*
X144738000Y-93716123D01*
X143938000Y-93716123D01*
X143826827Y-93737042D01*
X143724721Y-93802745D01*
X143656222Y-93902997D01*
X143632123Y-94022000D01*
X143632123Y-94405083D01*
X143414520Y-94187480D01*
X143276641Y-94095351D01*
X143249657Y-94089984D01*
X143185784Y-94077279D01*
X143088317Y-93979641D01*
X142867871Y-93888104D01*
X142629176Y-93887896D01*
X142408571Y-93979048D01*
X142239641Y-94147683D01*
X142148104Y-94368129D01*
X142147896Y-94606824D01*
X140848894Y-94606824D01*
X140872530Y-94488000D01*
X140784991Y-94047914D01*
X140535703Y-93674827D01*
X140162616Y-93425539D01*
X139722530Y-93338000D01*
X139677470Y-93338000D01*
X139237384Y-93425539D01*
X138864297Y-93674827D01*
X138615009Y-94047914D01*
X138527470Y-94488000D01*
X138615009Y-94928086D01*
X138864297Y-95301173D01*
X138911930Y-95333000D01*
X138430000Y-95333000D01*
X138267360Y-95365351D01*
X138267358Y-95365352D01*
X138267359Y-95365352D01*
X138129479Y-95457480D01*
X137621619Y-95965341D01*
X137182530Y-95878000D01*
X137137470Y-95878000D01*
X136697384Y-95965539D01*
X136324297Y-96214827D01*
X136075009Y-96587914D01*
X136061000Y-96658342D01*
X136061000Y-96188040D01*
X136698381Y-95550659D01*
X137137470Y-95638000D01*
X137182530Y-95638000D01*
X137622616Y-95550461D01*
X137995703Y-95301173D01*
X138244991Y-94928086D01*
X138332530Y-94488000D01*
X138244991Y-94047914D01*
X137995703Y-93674827D01*
X137622616Y-93425539D01*
X137182530Y-93338000D01*
X137137470Y-93338000D01*
X136697384Y-93425539D01*
X136324297Y-93674827D01*
X136075009Y-94047914D01*
X135987470Y-94488000D01*
X136075009Y-94928086D01*
X136092579Y-94954381D01*
X135335480Y-95711480D01*
X135243351Y-95849359D01*
X135238322Y-95874641D01*
X135228000Y-95926534D01*
X135228000Y-90140000D01*
X139820246Y-90140000D01*
X139820246Y-92740000D01*
X139862083Y-92962346D01*
X139993490Y-93166558D01*
X140193993Y-93303556D01*
X140432000Y-93351754D01*
X143032000Y-93351754D01*
X143254346Y-93309917D01*
X143458558Y-93178510D01*
X143595556Y-92978007D01*
X143643754Y-92740000D01*
X143643754Y-92392373D01*
X143815647Y-92358182D01*
X143856571Y-92419429D01*
X144276246Y-92839104D01*
X144276246Y-92922000D01*
X144318083Y-93144346D01*
X144449490Y-93348558D01*
X144649993Y-93485556D01*
X144888000Y-93533754D01*
X145688000Y-93533754D01*
X145910346Y-93491917D01*
X146114558Y-93360510D01*
X146251556Y-93160007D01*
X146299754Y-92922000D01*
X146299754Y-92456000D01*
X148230450Y-92456000D01*
X148314183Y-92876952D01*
X148552633Y-93233817D01*
X148909498Y-93472267D01*
X149330450Y-93556000D01*
X149373550Y-93556000D01*
X149794502Y-93472267D01*
X150151367Y-93233817D01*
X150389817Y-92876952D01*
X150473550Y-92456000D01*
X150389817Y-92035048D01*
X150151367Y-91678183D01*
X149794502Y-91439733D01*
X149373550Y-91356000D01*
X149330450Y-91356000D01*
X148909498Y-91439733D01*
X148552633Y-91678183D01*
X148314183Y-92035048D01*
X148230450Y-92456000D01*
X146299754Y-92456000D01*
X146299754Y-92022000D01*
X146257917Y-91799654D01*
X146126510Y-91595442D01*
X145926007Y-91458444D01*
X145764733Y-91425785D01*
X145859556Y-91287007D01*
X145907754Y-91049000D01*
X145907754Y-90686500D01*
X146046000Y-90686500D01*
X146046000Y-91098728D01*
X146084060Y-91190614D01*
X146154386Y-91260940D01*
X146246272Y-91299000D01*
X146783500Y-91299000D01*
X146846000Y-91236500D01*
X146846000Y-90624000D01*
X147246000Y-90624000D01*
X147246000Y-91236500D01*
X147308500Y-91299000D01*
X147845728Y-91299000D01*
X147937614Y-91260940D01*
X148007940Y-91190614D01*
X148046000Y-91098728D01*
X148046000Y-90686500D01*
X147983500Y-90624000D01*
X147246000Y-90624000D01*
X146846000Y-90624000D01*
X146108500Y-90624000D01*
X146046000Y-90686500D01*
X145907754Y-90686500D01*
X145907754Y-89799000D01*
X145898398Y-89749272D01*
X146046000Y-89749272D01*
X146046000Y-90161500D01*
X146108500Y-90224000D01*
X146846000Y-90224000D01*
X146846000Y-89611500D01*
X147246000Y-89611500D01*
X147246000Y-90224000D01*
X147983500Y-90224000D01*
X148046000Y-90161500D01*
X148046000Y-89916000D01*
X148230450Y-89916000D01*
X148314183Y-90336952D01*
X148552633Y-90693817D01*
X148909498Y-90932267D01*
X149330450Y-91016000D01*
X149373550Y-91016000D01*
X149794502Y-90932267D01*
X150151367Y-90693817D01*
X150389817Y-90336952D01*
X150473550Y-89916000D01*
X150389817Y-89495048D01*
X150151367Y-89138183D01*
X149794502Y-88899733D01*
X149373550Y-88816000D01*
X149330450Y-88816000D01*
X148909498Y-88899733D01*
X148552633Y-89138183D01*
X148314183Y-89495048D01*
X148230450Y-89916000D01*
X148046000Y-89916000D01*
X148046000Y-89749272D01*
X148007940Y-89657386D01*
X147937614Y-89587060D01*
X147845728Y-89549000D01*
X147308500Y-89549000D01*
X147246000Y-89611500D01*
X146846000Y-89611500D01*
X146783500Y-89549000D01*
X146246272Y-89549000D01*
X146154386Y-89587060D01*
X146084060Y-89657386D01*
X146046000Y-89749272D01*
X145898398Y-89749272D01*
X145865917Y-89576654D01*
X145734510Y-89372442D01*
X145534007Y-89235444D01*
X145296000Y-89187246D01*
X143796000Y-89187246D01*
X143573654Y-89229083D01*
X143369442Y-89360490D01*
X143232444Y-89560993D01*
X143230918Y-89568528D01*
X143032000Y-89528246D01*
X142736612Y-89528246D01*
X144888858Y-87376000D01*
X148230450Y-87376000D01*
X148314183Y-87796952D01*
X148552633Y-88153817D01*
X148909498Y-88392267D01*
X149330450Y-88476000D01*
X149373550Y-88476000D01*
X149794502Y-88392267D01*
X150151367Y-88153817D01*
X150389817Y-87796952D01*
X150473550Y-87376000D01*
X150389817Y-86955048D01*
X150151367Y-86598183D01*
X149794502Y-86359733D01*
X149373550Y-86276000D01*
X149330450Y-86276000D01*
X148909498Y-86359733D01*
X148552633Y-86598183D01*
X148314183Y-86955048D01*
X148230450Y-87376000D01*
X144888858Y-87376000D01*
X145215429Y-87049429D01*
X145426783Y-86733117D01*
X145501000Y-86360000D01*
X145501000Y-85239858D01*
X147215858Y-83525000D01*
X149456142Y-83525000D01*
X149740042Y-83808900D01*
X149373550Y-83736000D01*
X149330450Y-83736000D01*
X148909498Y-83819733D01*
X148552633Y-84058183D01*
X148314183Y-84415048D01*
X148230450Y-84836000D01*
X148314183Y-85256952D01*
X148552633Y-85613817D01*
X148909498Y-85852267D01*
X149330450Y-85936000D01*
X149373550Y-85936000D01*
X149794502Y-85852267D01*
X150151367Y-85613817D01*
X150389817Y-85256952D01*
X150473550Y-84836000D01*
X150400650Y-84469508D01*
X151710571Y-85779429D01*
X152026884Y-85990783D01*
X152400000Y-86065000D01*
X155743000Y-86065000D01*
X155743000Y-93797819D01*
X155725654Y-93801083D01*
X155521442Y-93932490D01*
X155384444Y-94132993D01*
X155336246Y-94371000D01*
X155336246Y-95621000D01*
X155378083Y-95843346D01*
X155509490Y-96047558D01*
X155709993Y-96184556D01*
X155948000Y-96232754D01*
X156595896Y-96232754D01*
X156838187Y-96475045D01*
X156663442Y-96587490D01*
X156526444Y-96787993D01*
X156478246Y-97026000D01*
X156478246Y-98526000D01*
X156520083Y-98748346D01*
X156651490Y-98952558D01*
X156851993Y-99089556D01*
X156956467Y-99110713D01*
X156948386Y-99114060D01*
X156878060Y-99184386D01*
X156840000Y-99276272D01*
X156840000Y-99813500D01*
X156902500Y-99876000D01*
X157890000Y-99876000D01*
X157890000Y-99856000D01*
X158290000Y-99856000D01*
X158290000Y-99876000D01*
X159277500Y-99876000D01*
X159340000Y-99813500D01*
X159340000Y-99276272D01*
X159301940Y-99184386D01*
X159231614Y-99114060D01*
X159226713Y-99112030D01*
X159312346Y-99095917D01*
X159516558Y-98964510D01*
X159653556Y-98764007D01*
X159701754Y-98526000D01*
X159701754Y-97536000D01*
X160879470Y-97536000D01*
X160967009Y-97976086D01*
X161216297Y-98349173D01*
X161589384Y-98598461D01*
X162029470Y-98686000D01*
X162074530Y-98686000D01*
X162154312Y-98670130D01*
X162643417Y-99159235D01*
X162494502Y-99059733D01*
X162073550Y-98976000D01*
X162030450Y-98976000D01*
X161609498Y-99059733D01*
X161252633Y-99298183D01*
X161014183Y-99655048D01*
X160930450Y-100076000D01*
X161014183Y-100496952D01*
X161252633Y-100853817D01*
X161609498Y-101092267D01*
X162030450Y-101176000D01*
X162073550Y-101176000D01*
X162494502Y-101092267D01*
X162851367Y-100853817D01*
X163012944Y-100612000D01*
X166959123Y-100612000D01*
X166959123Y-102212000D01*
X166980042Y-102323173D01*
X167045745Y-102425279D01*
X167145997Y-102493778D01*
X167265000Y-102517877D01*
X170265000Y-102517877D01*
X170376173Y-102496958D01*
X170478279Y-102431255D01*
X170546778Y-102331003D01*
X170570877Y-102212000D01*
X170570877Y-100612000D01*
X170549958Y-100500827D01*
X170484255Y-100398721D01*
X170384003Y-100330222D01*
X170265000Y-100306123D01*
X167265000Y-100306123D01*
X167153827Y-100327042D01*
X167051721Y-100392745D01*
X166983222Y-100492997D01*
X166959123Y-100612000D01*
X163012944Y-100612000D01*
X163089817Y-100496952D01*
X163173550Y-100076000D01*
X163089817Y-99655048D01*
X162948168Y-99443056D01*
X163063524Y-99520134D01*
X163274000Y-99562000D01*
X163417552Y-99562000D01*
X163432549Y-99641702D01*
X163509203Y-99760825D01*
X163626163Y-99840741D01*
X163765000Y-99868856D01*
X169265000Y-99868856D01*
X169394702Y-99844451D01*
X169513825Y-99767797D01*
X169593741Y-99650837D01*
X169621856Y-99512000D01*
X169621856Y-98512000D01*
X169597451Y-98382298D01*
X169520797Y-98263175D01*
X169403837Y-98183259D01*
X169265000Y-98155144D01*
X163765000Y-98155144D01*
X163635298Y-98179549D01*
X163516175Y-98256203D01*
X163436259Y-98373163D01*
X163432339Y-98392521D01*
X163088490Y-98048672D01*
X163136991Y-97976086D01*
X163224530Y-97536000D01*
X163136991Y-97095914D01*
X162887703Y-96722827D01*
X162514616Y-96473539D01*
X162074530Y-96386000D01*
X162029470Y-96386000D01*
X161589384Y-96473539D01*
X161216297Y-96722827D01*
X160967009Y-97095914D01*
X160879470Y-97536000D01*
X159701754Y-97536000D01*
X159701754Y-97026000D01*
X159659917Y-96803654D01*
X159528510Y-96599442D01*
X159328007Y-96462444D01*
X159090000Y-96414246D01*
X159065000Y-96414246D01*
X159065000Y-96348000D01*
X159007616Y-96059510D01*
X158990783Y-95974883D01*
X158779429Y-95658571D01*
X158059754Y-94938896D01*
X158059754Y-94371000D01*
X158017917Y-94148654D01*
X157886510Y-93944442D01*
X157693000Y-93812222D01*
X157693000Y-89916000D01*
X160879470Y-89916000D01*
X160967009Y-90356086D01*
X161216297Y-90729173D01*
X161589384Y-90978461D01*
X162029470Y-91066000D01*
X162074530Y-91066000D01*
X162514616Y-90978461D01*
X162887703Y-90729173D01*
X163063549Y-90466000D01*
X163602182Y-90466000D01*
X165291327Y-92155144D01*
X163765000Y-92155144D01*
X163635298Y-92179549D01*
X163516175Y-92256203D01*
X163436259Y-92373163D01*
X163408144Y-92512000D01*
X163408144Y-93288326D01*
X163088490Y-92968673D01*
X163136991Y-92896086D01*
X163224530Y-92456000D01*
X163136991Y-92015914D01*
X162887703Y-91642827D01*
X162514616Y-91393539D01*
X162074530Y-91306000D01*
X162029470Y-91306000D01*
X161589384Y-91393539D01*
X161216297Y-91642827D01*
X160967009Y-92015914D01*
X160879470Y-92456000D01*
X160967009Y-92896086D01*
X161216297Y-93269173D01*
X161589384Y-93518461D01*
X162029470Y-93606000D01*
X162074530Y-93606000D01*
X162154312Y-93590130D01*
X162493526Y-93929344D01*
X162074530Y-93846000D01*
X162029470Y-93846000D01*
X161589384Y-93933539D01*
X161216297Y-94182827D01*
X160967009Y-94555914D01*
X160879470Y-94996000D01*
X160967009Y-95436086D01*
X161216297Y-95809173D01*
X161589384Y-96058461D01*
X162029470Y-96146000D01*
X162074530Y-96146000D01*
X162366171Y-96087989D01*
X163408144Y-97129962D01*
X163408144Y-97512000D01*
X163432549Y-97641702D01*
X163509203Y-97760825D01*
X163626163Y-97840741D01*
X163765000Y-97868856D01*
X169265000Y-97868856D01*
X169394702Y-97844451D01*
X169513825Y-97767797D01*
X169593741Y-97650837D01*
X169621856Y-97512000D01*
X169621856Y-96512000D01*
X169597451Y-96382298D01*
X169520797Y-96263175D01*
X169403837Y-96183259D01*
X169265000Y-96155144D01*
X163988962Y-96155144D01*
X163686848Y-95853030D01*
X163765000Y-95868856D01*
X169265000Y-95868856D01*
X169394702Y-95844451D01*
X169513825Y-95767797D01*
X169593741Y-95650837D01*
X169621856Y-95512000D01*
X169621856Y-94512000D01*
X169597451Y-94382298D01*
X169520797Y-94263175D01*
X169403837Y-94183259D01*
X169265000Y-94155144D01*
X164274961Y-94155144D01*
X163988673Y-93868856D01*
X169265000Y-93868856D01*
X169394702Y-93844451D01*
X169513825Y-93767797D01*
X169593741Y-93650837D01*
X169621856Y-93512000D01*
X169621856Y-92512000D01*
X169597451Y-92382298D01*
X169520797Y-92263175D01*
X169403837Y-92183259D01*
X169265000Y-92155144D01*
X166846961Y-92155144D01*
X164503818Y-89812000D01*
X166959123Y-89812000D01*
X166959123Y-91412000D01*
X166980042Y-91523173D01*
X167045745Y-91625279D01*
X167145997Y-91693778D01*
X167265000Y-91717877D01*
X170265000Y-91717877D01*
X170376173Y-91696958D01*
X170478279Y-91631255D01*
X170546778Y-91531003D01*
X170570877Y-91412000D01*
X170570877Y-89812000D01*
X170549958Y-89700827D01*
X170484255Y-89598721D01*
X170384003Y-89530222D01*
X170265000Y-89506123D01*
X167265000Y-89506123D01*
X167153827Y-89527042D01*
X167051721Y-89592745D01*
X166983222Y-89692997D01*
X166959123Y-89812000D01*
X164503818Y-89812000D01*
X164218909Y-89527091D01*
X164040476Y-89407866D01*
X163830000Y-89366000D01*
X163063549Y-89366000D01*
X162887703Y-89102827D01*
X162514616Y-88853539D01*
X162074530Y-88766000D01*
X162029470Y-88766000D01*
X161589384Y-88853539D01*
X161216297Y-89102827D01*
X160967009Y-89475914D01*
X160879470Y-89916000D01*
X157693000Y-89916000D01*
X157693000Y-87734787D01*
X161065201Y-87734787D01*
X161100510Y-87820085D01*
X161342882Y-88150400D01*
X161693210Y-88362820D01*
X161852000Y-88344298D01*
X161852000Y-87576000D01*
X162252000Y-87576000D01*
X162252000Y-88344298D01*
X162410790Y-88362820D01*
X162761118Y-88150400D01*
X163003490Y-87820085D01*
X163038799Y-87734787D01*
X163019035Y-87576000D01*
X162252000Y-87576000D01*
X161852000Y-87576000D01*
X161084965Y-87576000D01*
X161065201Y-87734787D01*
X157693000Y-87734787D01*
X157693000Y-87017213D01*
X161065201Y-87017213D01*
X161084965Y-87176000D01*
X161852000Y-87176000D01*
X161852000Y-86407702D01*
X162252000Y-86407702D01*
X162252000Y-87176000D01*
X163019035Y-87176000D01*
X163038799Y-87017213D01*
X163003490Y-86931915D01*
X162761118Y-86601600D01*
X162410790Y-86389180D01*
X162252000Y-86407702D01*
X161852000Y-86407702D01*
X161693210Y-86389180D01*
X161342882Y-86601600D01*
X161100510Y-86931915D01*
X161065201Y-87017213D01*
X157693000Y-87017213D01*
X157693000Y-86065000D01*
X161392387Y-86065000D01*
X161488815Y-86129431D01*
X162024572Y-86236000D01*
X162079428Y-86236000D01*
X162615185Y-86129431D01*
X163069377Y-85825949D01*
X163372859Y-85371757D01*
X163479428Y-84836000D01*
X163372859Y-84300243D01*
X163069377Y-83846051D01*
X162615185Y-83542569D01*
X162079428Y-83436000D01*
X162024572Y-83436000D01*
X161488815Y-83542569D01*
X161034623Y-83846051D01*
X160854917Y-84115000D01*
X157238335Y-84115000D01*
X156937763Y-83990192D01*
X156500156Y-83989810D01*
X156197173Y-84115000D01*
X152803858Y-84115000D01*
X151246832Y-82557974D01*
X151404869Y-82557974D01*
X151622982Y-82785335D01*
X152374732Y-83045967D01*
X153168998Y-82999078D01*
X153685018Y-82785335D01*
X153903131Y-82557974D01*
X152654000Y-81308843D01*
X151404869Y-82557974D01*
X151246832Y-82557974D01*
X150549429Y-81860571D01*
X150233117Y-81649217D01*
X149860000Y-81575000D01*
X146812000Y-81575000D01*
X146438884Y-81649217D01*
X146438882Y-81649218D01*
X146438883Y-81649218D01*
X146122571Y-81860571D01*
X143836571Y-84146571D01*
X143625217Y-84462883D01*
X143551000Y-84836000D01*
X143551000Y-85956142D01*
X141042571Y-88464571D01*
X140831217Y-88780883D01*
X140767179Y-89102827D01*
X140757000Y-89154000D01*
X140757000Y-89528246D01*
X140432000Y-89528246D01*
X140209654Y-89570083D01*
X140005442Y-89701490D01*
X139868444Y-89901993D01*
X139820246Y-90140000D01*
X135228000Y-90140000D01*
X135228000Y-89645357D01*
X136109486Y-89645357D01*
X136272356Y-89825821D01*
X136860512Y-90011035D01*
X137474774Y-89957073D01*
X137791644Y-89825821D01*
X137954514Y-89645357D01*
X137032000Y-88722843D01*
X136109486Y-89645357D01*
X135228000Y-89645357D01*
X135228000Y-88268512D01*
X135460965Y-88268512D01*
X135514927Y-88882774D01*
X135646179Y-89199644D01*
X135826643Y-89362514D01*
X136749157Y-88440000D01*
X137314843Y-88440000D01*
X138237357Y-89362514D01*
X138417821Y-89199644D01*
X138603035Y-88611488D01*
X138549073Y-87997226D01*
X138417821Y-87680356D01*
X138237357Y-87517486D01*
X137314843Y-88440000D01*
X136749157Y-88440000D01*
X135826643Y-87517486D01*
X135646179Y-87680356D01*
X135460965Y-88268512D01*
X135228000Y-88268512D01*
X135228000Y-87234643D01*
X136109486Y-87234643D01*
X137032000Y-88157157D01*
X137954514Y-87234643D01*
X137791644Y-87054179D01*
X137203488Y-86868965D01*
X136589226Y-86922927D01*
X136272356Y-87054179D01*
X136109486Y-87234643D01*
X135228000Y-87234643D01*
X135228000Y-86645357D01*
X140809486Y-86645357D01*
X140972356Y-86825821D01*
X141560512Y-87011035D01*
X142174774Y-86957073D01*
X142491644Y-86825821D01*
X142654514Y-86645357D01*
X141732000Y-85722843D01*
X140809486Y-86645357D01*
X135228000Y-86645357D01*
X135228000Y-85268512D01*
X140160965Y-85268512D01*
X140214927Y-85882774D01*
X140346179Y-86199644D01*
X140526643Y-86362514D01*
X141449157Y-85440000D01*
X142014843Y-85440000D01*
X142937357Y-86362514D01*
X143117821Y-86199644D01*
X143303035Y-85611488D01*
X143249073Y-84997226D01*
X143117821Y-84680356D01*
X142937357Y-84517486D01*
X142014843Y-85440000D01*
X141449157Y-85440000D01*
X140526643Y-84517486D01*
X140346179Y-84680356D01*
X140160965Y-85268512D01*
X135228000Y-85268512D01*
X135228000Y-84234643D01*
X140809486Y-84234643D01*
X141732000Y-85157157D01*
X142654514Y-84234643D01*
X142491644Y-84054179D01*
X141903488Y-83868965D01*
X141289226Y-83922927D01*
X140972356Y-84054179D01*
X140809486Y-84234643D01*
X135228000Y-84234643D01*
X135228000Y-80746732D01*
X150634033Y-80746732D01*
X150680922Y-81540998D01*
X150894665Y-82057018D01*
X151122026Y-82275131D01*
X152371157Y-81026000D01*
X152936843Y-81026000D01*
X154185974Y-82275131D01*
X154413335Y-82057018D01*
X154673967Y-81305268D01*
X154627078Y-80511002D01*
X154413335Y-79994982D01*
X154185974Y-79776869D01*
X152936843Y-81026000D01*
X152371157Y-81026000D01*
X151122026Y-79776869D01*
X150894665Y-79994982D01*
X150634033Y-80746732D01*
X135228000Y-80746732D01*
X135228000Y-80051422D01*
X135785396Y-79494026D01*
X151404869Y-79494026D01*
X152654000Y-80743157D01*
X153903131Y-79494026D01*
X153685018Y-79266665D01*
X152933268Y-79006033D01*
X152139002Y-79052922D01*
X151622982Y-79266665D01*
X151404869Y-79494026D01*
X135785396Y-79494026D01*
X136439422Y-78840000D01*
X170144921Y-78840000D01*
X171350000Y-79804063D01*
M02*
