G04 #@! TF.FileFunction,Copper,L1,Top,Signal*
%FSLAX46Y46*%
G04 Gerber Fmt 4.6, Leading zero omitted, Abs format (unit mm)*
G04 Created by KiCad (PCBNEW 4.0.7) date 06/14/18 07:59:11*
%MOMM*%
%LPD*%
G01*
G04 APERTURE LIST*
%ADD10C,0.100000*%
%ADD11C,3.500000*%
%ADD12R,1.600000X1.600000*%
%ADD13O,1.600000X1.600000*%
%ADD14R,1.250000X1.500000*%
%ADD15R,1.600000X3.500000*%
%ADD16R,1.700000X1.700000*%
%ADD17O,1.700000X1.700000*%
%ADD18R,2.600000X2.600000*%
%ADD19C,2.600000*%
%ADD20C,0.600000*%
%ADD21C,1.000000*%
%ADD22C,0.250000*%
%ADD23C,0.550000*%
%ADD24C,0.750000*%
%ADD25C,0.200000*%
G04 APERTURE END LIST*
D10*
D11*
X152654000Y-81026000D03*
X169164000Y-117094000D03*
X137668000Y-116840000D03*
D12*
X162052000Y-102616000D03*
D13*
X149352000Y-84836000D03*
X162052000Y-100076000D03*
X149352000Y-87376000D03*
X162052000Y-97536000D03*
X149352000Y-89916000D03*
X162052000Y-94996000D03*
X149352000Y-92456000D03*
X162052000Y-92456000D03*
X149352000Y-94996000D03*
X162052000Y-89916000D03*
X149352000Y-97536000D03*
X162052000Y-87376000D03*
X149352000Y-100076000D03*
X162052000Y-84836000D03*
X149352000Y-102616000D03*
D14*
X136144000Y-110002000D03*
X136144000Y-112502000D03*
D15*
X167132000Y-81628000D03*
X167132000Y-87028000D03*
D16*
X139700000Y-102108000D03*
D17*
X137160000Y-102108000D03*
X139700000Y-99568000D03*
X137160000Y-99568000D03*
X139700000Y-97028000D03*
X137160000Y-97028000D03*
X139700000Y-94488000D03*
X137160000Y-94488000D03*
D16*
X157480000Y-110744000D03*
D17*
X160020000Y-110744000D03*
X157480000Y-113284000D03*
X160020000Y-113284000D03*
X157480000Y-115824000D03*
X160020000Y-115824000D03*
D18*
X141732000Y-91440000D03*
D19*
X141732000Y-85440000D03*
X137032000Y-88440000D03*
D16*
X151892000Y-116840000D03*
D17*
X149352000Y-116840000D03*
D16*
X144780000Y-116840000D03*
D17*
X142240000Y-116840000D03*
D16*
X167640000Y-107696000D03*
D17*
X167640000Y-110236000D03*
X167640000Y-112776000D03*
D20*
X139954000Y-108966000D03*
X148590000Y-113792000D03*
X137922000Y-114046000D03*
D21*
X165100000Y-88392000D03*
D20*
X143256000Y-107188000D03*
X139954000Y-115316000D03*
X140716000Y-109728000D03*
X136652000Y-108458000D03*
X145542000Y-107696000D03*
X142748000Y-94488000D03*
X145034000Y-98044000D03*
X135890000Y-106680000D03*
D21*
X156718000Y-85090000D03*
D20*
X150368000Y-110236000D03*
X144526000Y-110236000D03*
X154178000Y-109474000D03*
X144780000Y-108966000D03*
X145542000Y-106680000D03*
X149352000Y-111760000D03*
X135636000Y-105156000D03*
X145034000Y-111760000D03*
X140716000Y-108204000D03*
D22*
X136144000Y-112502000D02*
X137942000Y-112502000D01*
X138430000Y-110490000D02*
X139954000Y-108966000D01*
X138430000Y-112014000D02*
X138430000Y-110490000D01*
X137942000Y-112502000D02*
X138430000Y-112014000D01*
X137922000Y-114046000D02*
X136378000Y-112502000D01*
X167132000Y-87028000D02*
X167132000Y-87376000D01*
D23*
X167132000Y-87376000D02*
X166116000Y-88392000D01*
X166116000Y-88392000D02*
X165100000Y-88392000D01*
D22*
X136144000Y-112502000D02*
X136378000Y-112502000D01*
X143256000Y-107188000D02*
X143764000Y-106680000D01*
X143764000Y-106680000D02*
X143764000Y-100838000D01*
X143764000Y-100838000D02*
X148336000Y-96266000D01*
X148336000Y-96266000D02*
X150368000Y-96266000D01*
X150368000Y-96266000D02*
X151130000Y-95504000D01*
X151130000Y-95504000D02*
X151130000Y-86614000D01*
X149352000Y-84836000D02*
X151130000Y-86614000D01*
X139954000Y-110490000D02*
X139954000Y-115316000D01*
X140716000Y-109728000D02*
X139954000Y-110490000D01*
X136144000Y-110002000D02*
X136144000Y-108966000D01*
X136144000Y-108966000D02*
X136652000Y-108458000D01*
X142748000Y-100330000D02*
X145034000Y-98044000D01*
X142748000Y-101854000D02*
X142748000Y-100330000D01*
X141224000Y-103378000D02*
X142748000Y-101854000D01*
X139192000Y-103378000D02*
X141224000Y-103378000D01*
X135890000Y-106680000D02*
X139192000Y-103378000D01*
D24*
X160180000Y-81628000D02*
X167132000Y-81628000D01*
X156718000Y-85090000D02*
X160180000Y-81628000D01*
D22*
X144526000Y-110236000D02*
X150368000Y-110236000D01*
X145288000Y-109474000D02*
X154178000Y-109474000D01*
X144780000Y-108966000D02*
X145288000Y-109474000D01*
X153924000Y-106680000D02*
X157480000Y-110236000D01*
X145542000Y-106680000D02*
X153924000Y-106680000D01*
X157480000Y-110236000D02*
X157480000Y-110744000D01*
X150876000Y-113284000D02*
X157480000Y-113284000D01*
X149352000Y-111760000D02*
X150876000Y-113284000D01*
X135636000Y-105156000D02*
X135636000Y-92964000D01*
X135636000Y-92964000D02*
X138684000Y-92964000D01*
X138684000Y-92964000D02*
X139700000Y-93980000D01*
X139700000Y-93980000D02*
X139700000Y-94488000D01*
X145034000Y-111760000D02*
X148336000Y-111760000D01*
X148336000Y-111760000D02*
X151384000Y-114808000D01*
X151384000Y-114808000D02*
X156464000Y-114808000D01*
X157480000Y-115824000D02*
X156464000Y-114808000D01*
X163322000Y-112014000D02*
X167640000Y-107696000D01*
X156210000Y-112014000D02*
X163322000Y-112014000D01*
X155194000Y-110998000D02*
X156210000Y-112014000D01*
X143510000Y-110998000D02*
X155194000Y-110998000D01*
X140716000Y-108204000D02*
X143510000Y-110998000D01*
D25*
G36*
X171350000Y-79804063D02*
X171350000Y-118068578D01*
X170138578Y-119280000D01*
X136185422Y-119280000D01*
X135228000Y-118322578D01*
X135228000Y-117245981D01*
X135617645Y-117245981D01*
X135929081Y-117999715D01*
X136505252Y-118576892D01*
X137258441Y-118889643D01*
X138073981Y-118890355D01*
X138827715Y-118578919D01*
X139404892Y-118002748D01*
X139717643Y-117249559D01*
X139718020Y-116817470D01*
X141090000Y-116817470D01*
X141090000Y-116862530D01*
X141177539Y-117302616D01*
X141426827Y-117675703D01*
X141799914Y-117924991D01*
X142240000Y-118012530D01*
X142680086Y-117924991D01*
X143053173Y-117675703D01*
X143302461Y-117302616D01*
X143342266Y-117102500D01*
X143680000Y-117102500D01*
X143680000Y-117739728D01*
X143718060Y-117831614D01*
X143788386Y-117901940D01*
X143880272Y-117940000D01*
X144517500Y-117940000D01*
X144580000Y-117877500D01*
X144580000Y-117040000D01*
X144980000Y-117040000D01*
X144980000Y-117877500D01*
X145042500Y-117940000D01*
X145679728Y-117940000D01*
X145771614Y-117901940D01*
X145841940Y-117831614D01*
X145880000Y-117739728D01*
X145880000Y-117102500D01*
X145817500Y-117040000D01*
X144980000Y-117040000D01*
X144580000Y-117040000D01*
X143742500Y-117040000D01*
X143680000Y-117102500D01*
X143342266Y-117102500D01*
X143390000Y-116862530D01*
X143390000Y-116817470D01*
X148202000Y-116817470D01*
X148202000Y-116862530D01*
X148289539Y-117302616D01*
X148538827Y-117675703D01*
X148911914Y-117924991D01*
X149352000Y-118012530D01*
X149792086Y-117924991D01*
X150165173Y-117675703D01*
X150414461Y-117302616D01*
X150502000Y-116862530D01*
X150502000Y-116817470D01*
X150414461Y-116377384D01*
X150165173Y-116004297D01*
X150143776Y-115990000D01*
X150736123Y-115990000D01*
X150736123Y-117690000D01*
X150757042Y-117801173D01*
X150822745Y-117903279D01*
X150922997Y-117971778D01*
X151042000Y-117995877D01*
X152742000Y-117995877D01*
X152853173Y-117974958D01*
X152955279Y-117909255D01*
X153023778Y-117809003D01*
X153047877Y-117690000D01*
X153047877Y-117499981D01*
X167113645Y-117499981D01*
X167425081Y-118253715D01*
X168001252Y-118830892D01*
X168754441Y-119143643D01*
X169569981Y-119144355D01*
X170323715Y-118832919D01*
X170900892Y-118256748D01*
X171213643Y-117503559D01*
X171214355Y-116688019D01*
X170902919Y-115934285D01*
X170326748Y-115357108D01*
X169573559Y-115044357D01*
X168758019Y-115043645D01*
X168004285Y-115355081D01*
X167427108Y-115931252D01*
X167114357Y-116684441D01*
X167113645Y-117499981D01*
X153047877Y-117499981D01*
X153047877Y-115990000D01*
X153026958Y-115878827D01*
X152961255Y-115776721D01*
X152861003Y-115708222D01*
X152742000Y-115684123D01*
X151042000Y-115684123D01*
X150930827Y-115705042D01*
X150828721Y-115770745D01*
X150760222Y-115870997D01*
X150736123Y-115990000D01*
X150143776Y-115990000D01*
X149792086Y-115755009D01*
X149352000Y-115667470D01*
X148911914Y-115755009D01*
X148538827Y-116004297D01*
X148289539Y-116377384D01*
X148202000Y-116817470D01*
X143390000Y-116817470D01*
X143302461Y-116377384D01*
X143053173Y-116004297D01*
X142957353Y-115940272D01*
X143680000Y-115940272D01*
X143680000Y-116577500D01*
X143742500Y-116640000D01*
X144580000Y-116640000D01*
X144580000Y-115802500D01*
X144980000Y-115802500D01*
X144980000Y-116640000D01*
X145817500Y-116640000D01*
X145880000Y-116577500D01*
X145880000Y-115940272D01*
X145841940Y-115848386D01*
X145771614Y-115778060D01*
X145679728Y-115740000D01*
X145042500Y-115740000D01*
X144980000Y-115802500D01*
X144580000Y-115802500D01*
X144517500Y-115740000D01*
X143880272Y-115740000D01*
X143788386Y-115778060D01*
X143718060Y-115848386D01*
X143680000Y-115940272D01*
X142957353Y-115940272D01*
X142680086Y-115755009D01*
X142240000Y-115667470D01*
X141799914Y-115755009D01*
X141426827Y-116004297D01*
X141177539Y-116377384D01*
X141090000Y-116817470D01*
X139718020Y-116817470D01*
X139718355Y-116434019D01*
X139406919Y-115680285D01*
X138830748Y-115103108D01*
X138077559Y-114790357D01*
X137262019Y-114789645D01*
X136508285Y-115101081D01*
X135931108Y-115677252D01*
X135618357Y-116430441D01*
X135617645Y-117245981D01*
X135228000Y-117245981D01*
X135228000Y-113331063D01*
X135234042Y-113363173D01*
X135299745Y-113465279D01*
X135399997Y-113533778D01*
X135519000Y-113557877D01*
X136769000Y-113557877D01*
X136822727Y-113547767D01*
X137321999Y-114047039D01*
X137321896Y-114164824D01*
X137413048Y-114385429D01*
X137581683Y-114554359D01*
X137802129Y-114645896D01*
X138040824Y-114646104D01*
X138261429Y-114554952D01*
X138430359Y-114386317D01*
X138521896Y-114165871D01*
X138522104Y-113927176D01*
X138430952Y-113706571D01*
X138262317Y-113537641D01*
X138041871Y-113446104D01*
X137923041Y-113446000D01*
X137404040Y-112927000D01*
X137942000Y-112927000D01*
X138077657Y-112900016D01*
X138104641Y-112894649D01*
X138242520Y-112802520D01*
X138730520Y-112314521D01*
X138822648Y-112176641D01*
X138822649Y-112176640D01*
X138855000Y-112014000D01*
X138855000Y-110666040D01*
X139955039Y-109566001D01*
X140072824Y-109566104D01*
X140146132Y-109535814D01*
X140116104Y-109608129D01*
X140116000Y-109726959D01*
X139653480Y-110189480D01*
X139561351Y-110327359D01*
X139561351Y-110327360D01*
X139529000Y-110490000D01*
X139529000Y-114892470D01*
X139445641Y-114975683D01*
X139354104Y-115196129D01*
X139353896Y-115434824D01*
X139445048Y-115655429D01*
X139613683Y-115824359D01*
X139834129Y-115915896D01*
X140072824Y-115916104D01*
X140293429Y-115824952D01*
X140462359Y-115656317D01*
X140553896Y-115435871D01*
X140554104Y-115197176D01*
X140462952Y-114976571D01*
X140379000Y-114892472D01*
X140379000Y-113910824D01*
X147989896Y-113910824D01*
X148081048Y-114131429D01*
X148249683Y-114300359D01*
X148470129Y-114391896D01*
X148708824Y-114392104D01*
X148929429Y-114300952D01*
X149098359Y-114132317D01*
X149189896Y-113911871D01*
X149190104Y-113673176D01*
X149098952Y-113452571D01*
X148930317Y-113283641D01*
X148709871Y-113192104D01*
X148471176Y-113191896D01*
X148250571Y-113283048D01*
X148081641Y-113451683D01*
X147990104Y-113672129D01*
X147989896Y-113910824D01*
X140379000Y-113910824D01*
X140379000Y-110666040D01*
X140717039Y-110328001D01*
X140834824Y-110328104D01*
X141055429Y-110236952D01*
X141224359Y-110068317D01*
X141315896Y-109847871D01*
X141316104Y-109609176D01*
X141224952Y-109388571D01*
X141056317Y-109219641D01*
X140835871Y-109128104D01*
X140597176Y-109127896D01*
X140523868Y-109158186D01*
X140553896Y-109085871D01*
X140554104Y-108847176D01*
X140523814Y-108773868D01*
X140596129Y-108803896D01*
X140714959Y-108804000D01*
X143209480Y-111298521D01*
X143347359Y-111390649D01*
X143510000Y-111423000D01*
X144524264Y-111423000D01*
X144434104Y-111640129D01*
X144433896Y-111878824D01*
X144525048Y-112099429D01*
X144693683Y-112268359D01*
X144914129Y-112359896D01*
X145152824Y-112360104D01*
X145373429Y-112268952D01*
X145457528Y-112185000D01*
X148159960Y-112185000D01*
X151083480Y-115108520D01*
X151221359Y-115200649D01*
X151384000Y-115233000D01*
X156287960Y-115233000D01*
X156412579Y-115357619D01*
X156395009Y-115383914D01*
X156307470Y-115824000D01*
X156395009Y-116264086D01*
X156644297Y-116637173D01*
X157017384Y-116886461D01*
X157457470Y-116974000D01*
X157502530Y-116974000D01*
X157942616Y-116886461D01*
X158315703Y-116637173D01*
X158564991Y-116264086D01*
X158652530Y-115824000D01*
X158847470Y-115824000D01*
X158935009Y-116264086D01*
X159184297Y-116637173D01*
X159557384Y-116886461D01*
X159997470Y-116974000D01*
X160042530Y-116974000D01*
X160482616Y-116886461D01*
X160855703Y-116637173D01*
X161104991Y-116264086D01*
X161192530Y-115824000D01*
X161104991Y-115383914D01*
X160855703Y-115010827D01*
X160482616Y-114761539D01*
X160042530Y-114674000D01*
X159997470Y-114674000D01*
X159557384Y-114761539D01*
X159184297Y-115010827D01*
X158935009Y-115383914D01*
X158847470Y-115824000D01*
X158652530Y-115824000D01*
X158564991Y-115383914D01*
X158315703Y-115010827D01*
X157942616Y-114761539D01*
X157502530Y-114674000D01*
X157457470Y-114674000D01*
X157018381Y-114761341D01*
X156764520Y-114507480D01*
X156626641Y-114415351D01*
X156599657Y-114409984D01*
X156464000Y-114383000D01*
X151560040Y-114383000D01*
X150886040Y-113709000D01*
X156392008Y-113709000D01*
X156395009Y-113724086D01*
X156644297Y-114097173D01*
X157017384Y-114346461D01*
X157457470Y-114434000D01*
X157502530Y-114434000D01*
X157942616Y-114346461D01*
X158315703Y-114097173D01*
X158564991Y-113724086D01*
X158652530Y-113284000D01*
X158564991Y-112843914D01*
X158315703Y-112470827D01*
X158268070Y-112439000D01*
X159231930Y-112439000D01*
X159184297Y-112470827D01*
X158935009Y-112843914D01*
X158847470Y-113284000D01*
X158935009Y-113724086D01*
X159184297Y-114097173D01*
X159557384Y-114346461D01*
X159997470Y-114434000D01*
X160042530Y-114434000D01*
X160482616Y-114346461D01*
X160855703Y-114097173D01*
X161104991Y-113724086D01*
X161192530Y-113284000D01*
X161104991Y-112843914D01*
X161059613Y-112776000D01*
X166467470Y-112776000D01*
X166555009Y-113216086D01*
X166804297Y-113589173D01*
X167177384Y-113838461D01*
X167617470Y-113926000D01*
X167662530Y-113926000D01*
X168102616Y-113838461D01*
X168475703Y-113589173D01*
X168724991Y-113216086D01*
X168812530Y-112776000D01*
X168724991Y-112335914D01*
X168475703Y-111962827D01*
X168102616Y-111713539D01*
X167662530Y-111626000D01*
X167617470Y-111626000D01*
X167177384Y-111713539D01*
X166804297Y-111962827D01*
X166555009Y-112335914D01*
X166467470Y-112776000D01*
X161059613Y-112776000D01*
X160855703Y-112470827D01*
X160808070Y-112439000D01*
X163322000Y-112439000D01*
X163457657Y-112412016D01*
X163484641Y-112406649D01*
X163622520Y-112314520D01*
X165701040Y-110236000D01*
X166467470Y-110236000D01*
X166555009Y-110676086D01*
X166804297Y-111049173D01*
X167177384Y-111298461D01*
X167617470Y-111386000D01*
X167662530Y-111386000D01*
X168102616Y-111298461D01*
X168475703Y-111049173D01*
X168724991Y-110676086D01*
X168812530Y-110236000D01*
X168724991Y-109795914D01*
X168475703Y-109422827D01*
X168102616Y-109173539D01*
X167662530Y-109086000D01*
X167617470Y-109086000D01*
X167177384Y-109173539D01*
X166804297Y-109422827D01*
X166555009Y-109795914D01*
X166467470Y-110236000D01*
X165701040Y-110236000D01*
X167085163Y-108851877D01*
X168490000Y-108851877D01*
X168601173Y-108830958D01*
X168703279Y-108765255D01*
X168771778Y-108665003D01*
X168795877Y-108546000D01*
X168795877Y-106846000D01*
X168774958Y-106734827D01*
X168709255Y-106632721D01*
X168609003Y-106564222D01*
X168490000Y-106540123D01*
X166790000Y-106540123D01*
X166678827Y-106561042D01*
X166576721Y-106626745D01*
X166508222Y-106726997D01*
X166484123Y-106846000D01*
X166484123Y-108250837D01*
X163145960Y-111589000D01*
X160709926Y-111589000D01*
X160755708Y-111561789D01*
X161012660Y-111217995D01*
X161057061Y-111110747D01*
X161038040Y-110944000D01*
X160220000Y-110944000D01*
X160220000Y-110964000D01*
X159820000Y-110964000D01*
X159820000Y-110944000D01*
X159001960Y-110944000D01*
X158982939Y-111110747D01*
X159027340Y-111217995D01*
X159284292Y-111561789D01*
X159330074Y-111589000D01*
X158635877Y-111589000D01*
X158635877Y-110377253D01*
X158982939Y-110377253D01*
X159001960Y-110544000D01*
X159820000Y-110544000D01*
X159820000Y-109724814D01*
X160220000Y-109724814D01*
X160220000Y-110544000D01*
X161038040Y-110544000D01*
X161057061Y-110377253D01*
X161012660Y-110270005D01*
X160755708Y-109926211D01*
X160386751Y-109706918D01*
X160220000Y-109724814D01*
X159820000Y-109724814D01*
X159653249Y-109706918D01*
X159284292Y-109926211D01*
X159027340Y-110270005D01*
X158982939Y-110377253D01*
X158635877Y-110377253D01*
X158635877Y-109894000D01*
X158614958Y-109782827D01*
X158549255Y-109680721D01*
X158449003Y-109612222D01*
X158330000Y-109588123D01*
X157433164Y-109588123D01*
X154224520Y-106379480D01*
X154086641Y-106287351D01*
X154059657Y-106281984D01*
X153924000Y-106255000D01*
X145965530Y-106255000D01*
X145882317Y-106171641D01*
X145661871Y-106080104D01*
X145423176Y-106079896D01*
X145202571Y-106171048D01*
X145033641Y-106339683D01*
X144942104Y-106560129D01*
X144941896Y-106798824D01*
X145033048Y-107019429D01*
X145201683Y-107188359D01*
X145422129Y-107279896D01*
X145660824Y-107280104D01*
X145881429Y-107188952D01*
X145965528Y-107105000D01*
X153747960Y-107105000D01*
X156376528Y-109733569D01*
X156348222Y-109774997D01*
X156324123Y-109894000D01*
X156324123Y-111527083D01*
X155494520Y-110697480D01*
X155356641Y-110605351D01*
X155329657Y-110599984D01*
X155194000Y-110573000D01*
X150877736Y-110573000D01*
X150967896Y-110355871D01*
X150968104Y-110117176D01*
X150877956Y-109899000D01*
X153754470Y-109899000D01*
X153837683Y-109982359D01*
X154058129Y-110073896D01*
X154296824Y-110074104D01*
X154517429Y-109982952D01*
X154686359Y-109814317D01*
X154777896Y-109593871D01*
X154778104Y-109355176D01*
X154686952Y-109134571D01*
X154518317Y-108965641D01*
X154297871Y-108874104D01*
X154059176Y-108873896D01*
X153838571Y-108965048D01*
X153754472Y-109049000D01*
X145464041Y-109049000D01*
X145380001Y-108964961D01*
X145380104Y-108847176D01*
X145288952Y-108626571D01*
X145120317Y-108457641D01*
X144899871Y-108366104D01*
X144661176Y-108365896D01*
X144440571Y-108457048D01*
X144271641Y-108625683D01*
X144180104Y-108846129D01*
X144179896Y-109084824D01*
X144271048Y-109305429D01*
X144439683Y-109474359D01*
X144660129Y-109565896D01*
X144778959Y-109566000D01*
X144987479Y-109774520D01*
X145042075Y-109811000D01*
X144949530Y-109811000D01*
X144866317Y-109727641D01*
X144645871Y-109636104D01*
X144407176Y-109635896D01*
X144186571Y-109727048D01*
X144017641Y-109895683D01*
X143926104Y-110116129D01*
X143925896Y-110354824D01*
X144016044Y-110573000D01*
X143686041Y-110573000D01*
X141316001Y-108202961D01*
X141316104Y-108085176D01*
X141224952Y-107864571D01*
X141056317Y-107695641D01*
X140835871Y-107604104D01*
X140597176Y-107603896D01*
X140376571Y-107695048D01*
X140207641Y-107863683D01*
X140116104Y-108084129D01*
X140115896Y-108322824D01*
X140146186Y-108396132D01*
X140073871Y-108366104D01*
X139835176Y-108365896D01*
X139614571Y-108457048D01*
X139445641Y-108625683D01*
X139354104Y-108846129D01*
X139354000Y-108964959D01*
X138129480Y-110189480D01*
X138037351Y-110327359D01*
X138037351Y-110327360D01*
X138005000Y-110490000D01*
X138005000Y-111837959D01*
X137765960Y-112077000D01*
X137074877Y-112077000D01*
X137074877Y-111752000D01*
X137053958Y-111640827D01*
X136988255Y-111538721D01*
X136888003Y-111470222D01*
X136769000Y-111446123D01*
X135519000Y-111446123D01*
X135407827Y-111467042D01*
X135305721Y-111532745D01*
X135237222Y-111632997D01*
X135228000Y-111678536D01*
X135228000Y-110264500D01*
X135269000Y-110264500D01*
X135269000Y-110801728D01*
X135307060Y-110893614D01*
X135377386Y-110963940D01*
X135469272Y-111002000D01*
X135881500Y-111002000D01*
X135944000Y-110939500D01*
X135944000Y-110202000D01*
X136344000Y-110202000D01*
X136344000Y-110939500D01*
X136406500Y-111002000D01*
X136818728Y-111002000D01*
X136910614Y-110963940D01*
X136980940Y-110893614D01*
X137019000Y-110801728D01*
X137019000Y-110264500D01*
X136956500Y-110202000D01*
X136344000Y-110202000D01*
X135944000Y-110202000D01*
X135331500Y-110202000D01*
X135269000Y-110264500D01*
X135228000Y-110264500D01*
X135228000Y-109202272D01*
X135269000Y-109202272D01*
X135269000Y-109739500D01*
X135331500Y-109802000D01*
X135944000Y-109802000D01*
X135944000Y-109064500D01*
X136344000Y-109064500D01*
X136344000Y-109802000D01*
X136956500Y-109802000D01*
X137019000Y-109739500D01*
X137019000Y-109202272D01*
X136980940Y-109110386D01*
X136910614Y-109040060D01*
X136818728Y-109002000D01*
X136406500Y-109002000D01*
X136344000Y-109064500D01*
X135944000Y-109064500D01*
X135881500Y-109002000D01*
X135469272Y-109002000D01*
X135377386Y-109040060D01*
X135307060Y-109110386D01*
X135269000Y-109202272D01*
X135228000Y-109202272D01*
X135228000Y-107306824D01*
X142655896Y-107306824D01*
X142747048Y-107527429D01*
X142915683Y-107696359D01*
X143136129Y-107787896D01*
X143374824Y-107788104D01*
X143595429Y-107696952D01*
X143764359Y-107528317D01*
X143855896Y-107307871D01*
X143856000Y-107189041D01*
X144064520Y-106980521D01*
X144156648Y-106842641D01*
X144156649Y-106842640D01*
X144189000Y-106680000D01*
X144189000Y-102616000D01*
X148230450Y-102616000D01*
X148314183Y-103036952D01*
X148552633Y-103393817D01*
X148909498Y-103632267D01*
X149330450Y-103716000D01*
X149373550Y-103716000D01*
X149794502Y-103632267D01*
X150151367Y-103393817D01*
X150389817Y-103036952D01*
X150473550Y-102616000D01*
X150389817Y-102195048D01*
X150151367Y-101838183D01*
X150118168Y-101816000D01*
X160946123Y-101816000D01*
X160946123Y-103416000D01*
X160967042Y-103527173D01*
X161032745Y-103629279D01*
X161132997Y-103697778D01*
X161252000Y-103721877D01*
X162852000Y-103721877D01*
X162963173Y-103700958D01*
X163065279Y-103635255D01*
X163133778Y-103535003D01*
X163157877Y-103416000D01*
X163157877Y-101816000D01*
X163136958Y-101704827D01*
X163071255Y-101602721D01*
X162971003Y-101534222D01*
X162852000Y-101510123D01*
X161252000Y-101510123D01*
X161140827Y-101531042D01*
X161038721Y-101596745D01*
X160970222Y-101696997D01*
X160946123Y-101816000D01*
X150118168Y-101816000D01*
X149794502Y-101599733D01*
X149373550Y-101516000D01*
X149330450Y-101516000D01*
X148909498Y-101599733D01*
X148552633Y-101838183D01*
X148314183Y-102195048D01*
X148230450Y-102616000D01*
X144189000Y-102616000D01*
X144189000Y-101014040D01*
X145127040Y-100076000D01*
X148230450Y-100076000D01*
X148314183Y-100496952D01*
X148552633Y-100853817D01*
X148909498Y-101092267D01*
X149330450Y-101176000D01*
X149373550Y-101176000D01*
X149794502Y-101092267D01*
X150151367Y-100853817D01*
X150389817Y-100496952D01*
X150473550Y-100076000D01*
X160930450Y-100076000D01*
X161014183Y-100496952D01*
X161252633Y-100853817D01*
X161609498Y-101092267D01*
X162030450Y-101176000D01*
X162073550Y-101176000D01*
X162494502Y-101092267D01*
X162851367Y-100853817D01*
X163089817Y-100496952D01*
X163173550Y-100076000D01*
X163089817Y-99655048D01*
X162851367Y-99298183D01*
X162494502Y-99059733D01*
X162073550Y-98976000D01*
X162030450Y-98976000D01*
X161609498Y-99059733D01*
X161252633Y-99298183D01*
X161014183Y-99655048D01*
X160930450Y-100076000D01*
X150473550Y-100076000D01*
X150389817Y-99655048D01*
X150151367Y-99298183D01*
X149794502Y-99059733D01*
X149373550Y-98976000D01*
X149330450Y-98976000D01*
X148909498Y-99059733D01*
X148552633Y-99298183D01*
X148314183Y-99655048D01*
X148230450Y-100076000D01*
X145127040Y-100076000D01*
X147308253Y-97894787D01*
X148365201Y-97894787D01*
X148400510Y-97980085D01*
X148642882Y-98310400D01*
X148993210Y-98522820D01*
X149152000Y-98504298D01*
X149152000Y-97736000D01*
X149552000Y-97736000D01*
X149552000Y-98504298D01*
X149710790Y-98522820D01*
X150061118Y-98310400D01*
X150303490Y-97980085D01*
X150338799Y-97894787D01*
X150319035Y-97736000D01*
X149552000Y-97736000D01*
X149152000Y-97736000D01*
X148384965Y-97736000D01*
X148365201Y-97894787D01*
X147308253Y-97894787D01*
X147667040Y-97536000D01*
X160879470Y-97536000D01*
X160967009Y-97976086D01*
X161216297Y-98349173D01*
X161589384Y-98598461D01*
X162029470Y-98686000D01*
X162074530Y-98686000D01*
X162514616Y-98598461D01*
X162887703Y-98349173D01*
X163136991Y-97976086D01*
X163224530Y-97536000D01*
X163136991Y-97095914D01*
X162887703Y-96722827D01*
X162514616Y-96473539D01*
X162074530Y-96386000D01*
X162029470Y-96386000D01*
X161589384Y-96473539D01*
X161216297Y-96722827D01*
X160967009Y-97095914D01*
X160879470Y-97536000D01*
X147667040Y-97536000D01*
X148512041Y-96691000D01*
X148759317Y-96691000D01*
X148642882Y-96761600D01*
X148400510Y-97091915D01*
X148365201Y-97177213D01*
X148384965Y-97336000D01*
X149152000Y-97336000D01*
X149152000Y-97316000D01*
X149552000Y-97316000D01*
X149552000Y-97336000D01*
X150319035Y-97336000D01*
X150338799Y-97177213D01*
X150303490Y-97091915D01*
X150061118Y-96761600D01*
X149944683Y-96691000D01*
X150368000Y-96691000D01*
X150503657Y-96664016D01*
X150530641Y-96658649D01*
X150668520Y-96566520D01*
X151430521Y-95804520D01*
X151522649Y-95666641D01*
X151555000Y-95504000D01*
X151555000Y-94996000D01*
X160879470Y-94996000D01*
X160967009Y-95436086D01*
X161216297Y-95809173D01*
X161589384Y-96058461D01*
X162029470Y-96146000D01*
X162074530Y-96146000D01*
X162514616Y-96058461D01*
X162887703Y-95809173D01*
X163136991Y-95436086D01*
X163224530Y-94996000D01*
X163136991Y-94555914D01*
X162887703Y-94182827D01*
X162514616Y-93933539D01*
X162074530Y-93846000D01*
X162029470Y-93846000D01*
X161589384Y-93933539D01*
X161216297Y-94182827D01*
X160967009Y-94555914D01*
X160879470Y-94996000D01*
X151555000Y-94996000D01*
X151555000Y-92456000D01*
X160879470Y-92456000D01*
X160967009Y-92896086D01*
X161216297Y-93269173D01*
X161589384Y-93518461D01*
X162029470Y-93606000D01*
X162074530Y-93606000D01*
X162514616Y-93518461D01*
X162887703Y-93269173D01*
X163136991Y-92896086D01*
X163224530Y-92456000D01*
X163136991Y-92015914D01*
X162887703Y-91642827D01*
X162514616Y-91393539D01*
X162074530Y-91306000D01*
X162029470Y-91306000D01*
X161589384Y-91393539D01*
X161216297Y-91642827D01*
X160967009Y-92015914D01*
X160879470Y-92456000D01*
X151555000Y-92456000D01*
X151555000Y-89916000D01*
X160879470Y-89916000D01*
X160967009Y-90356086D01*
X161216297Y-90729173D01*
X161589384Y-90978461D01*
X162029470Y-91066000D01*
X162074530Y-91066000D01*
X162514616Y-90978461D01*
X162887703Y-90729173D01*
X163136991Y-90356086D01*
X163224530Y-89916000D01*
X163136991Y-89475914D01*
X162887703Y-89102827D01*
X162514616Y-88853539D01*
X162074530Y-88766000D01*
X162029470Y-88766000D01*
X161589384Y-88853539D01*
X161216297Y-89102827D01*
X160967009Y-89475914D01*
X160879470Y-89916000D01*
X151555000Y-89916000D01*
X151555000Y-88550432D01*
X164299861Y-88550432D01*
X164421397Y-88844572D01*
X164646245Y-89069812D01*
X164940172Y-89191861D01*
X165258432Y-89192139D01*
X165552572Y-89070603D01*
X165656356Y-88967000D01*
X166097122Y-88967000D01*
X166112745Y-88991279D01*
X166212997Y-89059778D01*
X166332000Y-89083877D01*
X167932000Y-89083877D01*
X168043173Y-89062958D01*
X168145279Y-88997255D01*
X168213778Y-88897003D01*
X168237877Y-88778000D01*
X168237877Y-85278000D01*
X168216958Y-85166827D01*
X168151255Y-85064721D01*
X168051003Y-84996222D01*
X167932000Y-84972123D01*
X166332000Y-84972123D01*
X166220827Y-84993042D01*
X166118721Y-85058745D01*
X166050222Y-85158997D01*
X166026123Y-85278000D01*
X166026123Y-87668705D01*
X165877828Y-87817000D01*
X165656388Y-87817000D01*
X165553755Y-87714188D01*
X165259828Y-87592139D01*
X164941568Y-87591861D01*
X164647428Y-87713397D01*
X164422188Y-87938245D01*
X164300139Y-88232172D01*
X164299861Y-88550432D01*
X151555000Y-88550432D01*
X151555000Y-87376000D01*
X160930450Y-87376000D01*
X161014183Y-87796952D01*
X161252633Y-88153817D01*
X161609498Y-88392267D01*
X162030450Y-88476000D01*
X162073550Y-88476000D01*
X162494502Y-88392267D01*
X162851367Y-88153817D01*
X163089817Y-87796952D01*
X163173550Y-87376000D01*
X163089817Y-86955048D01*
X162851367Y-86598183D01*
X162494502Y-86359733D01*
X162073550Y-86276000D01*
X162030450Y-86276000D01*
X161609498Y-86359733D01*
X161252633Y-86598183D01*
X161014183Y-86955048D01*
X160930450Y-87376000D01*
X151555000Y-87376000D01*
X151555000Y-86614000D01*
X151552812Y-86603000D01*
X151522649Y-86451359D01*
X151430521Y-86313480D01*
X150424885Y-85307844D01*
X155617810Y-85307844D01*
X155784922Y-85712286D01*
X156094087Y-86021991D01*
X156498237Y-86189808D01*
X156935844Y-86190190D01*
X157340286Y-86023078D01*
X157649991Y-85713913D01*
X157775709Y-85411149D01*
X158350858Y-84836000D01*
X160624572Y-84836000D01*
X160731141Y-85371757D01*
X161034623Y-85825949D01*
X161488815Y-86129431D01*
X162024572Y-86236000D01*
X162079428Y-86236000D01*
X162615185Y-86129431D01*
X163069377Y-85825949D01*
X163372859Y-85371757D01*
X163479428Y-84836000D01*
X163372859Y-84300243D01*
X163069377Y-83846051D01*
X162615185Y-83542569D01*
X162079428Y-83436000D01*
X162024572Y-83436000D01*
X161488815Y-83542569D01*
X161034623Y-83846051D01*
X160731141Y-84300243D01*
X160624572Y-84836000D01*
X158350858Y-84836000D01*
X160583858Y-82603000D01*
X165720246Y-82603000D01*
X165720246Y-83378000D01*
X165762083Y-83600346D01*
X165893490Y-83804558D01*
X166093993Y-83941556D01*
X166332000Y-83989754D01*
X167932000Y-83989754D01*
X168154346Y-83947917D01*
X168358558Y-83816510D01*
X168495556Y-83616007D01*
X168543754Y-83378000D01*
X168543754Y-79878000D01*
X168501917Y-79655654D01*
X168370510Y-79451442D01*
X168170007Y-79314444D01*
X167932000Y-79266246D01*
X166332000Y-79266246D01*
X166109654Y-79308083D01*
X165905442Y-79439490D01*
X165768444Y-79639993D01*
X165720246Y-79878000D01*
X165720246Y-80653000D01*
X160180000Y-80653000D01*
X159806884Y-80727217D01*
X159806882Y-80727218D01*
X159806883Y-80727218D01*
X159490571Y-80938571D01*
X156396504Y-84032638D01*
X156095714Y-84156922D01*
X155786009Y-84466087D01*
X155618192Y-84870237D01*
X155617810Y-85307844D01*
X150424885Y-85307844D01*
X150383479Y-85266438D01*
X150389817Y-85256952D01*
X150473550Y-84836000D01*
X150389817Y-84415048D01*
X150151367Y-84058183D01*
X149794502Y-83819733D01*
X149373550Y-83736000D01*
X149330450Y-83736000D01*
X148909498Y-83819733D01*
X148552633Y-84058183D01*
X148314183Y-84415048D01*
X148230450Y-84836000D01*
X148314183Y-85256952D01*
X148552633Y-85613817D01*
X148909498Y-85852267D01*
X149330450Y-85936000D01*
X149373550Y-85936000D01*
X149771752Y-85856792D01*
X150705000Y-86790041D01*
X150705000Y-95327959D01*
X150191960Y-95841000D01*
X149944683Y-95841000D01*
X150061118Y-95770400D01*
X150303490Y-95440085D01*
X150338799Y-95354787D01*
X150319035Y-95196000D01*
X149552000Y-95196000D01*
X149552000Y-95216000D01*
X149152000Y-95216000D01*
X149152000Y-95196000D01*
X148384965Y-95196000D01*
X148365201Y-95354787D01*
X148400510Y-95440085D01*
X148642882Y-95770400D01*
X148759317Y-95841000D01*
X148336000Y-95841000D01*
X148173360Y-95873351D01*
X148138492Y-95896649D01*
X148035479Y-95965480D01*
X143463480Y-100537480D01*
X143371351Y-100675359D01*
X143371351Y-100675360D01*
X143339000Y-100838000D01*
X143339000Y-106503959D01*
X143254961Y-106587999D01*
X143137176Y-106587896D01*
X142916571Y-106679048D01*
X142747641Y-106847683D01*
X142656104Y-107068129D01*
X142655896Y-107306824D01*
X135228000Y-107306824D01*
X135228000Y-106798824D01*
X135289896Y-106798824D01*
X135381048Y-107019429D01*
X135549683Y-107188359D01*
X135770129Y-107279896D01*
X136008824Y-107280104D01*
X136229429Y-107188952D01*
X136398359Y-107020317D01*
X136489896Y-106799871D01*
X136490000Y-106681041D01*
X139368041Y-103803000D01*
X141224000Y-103803000D01*
X141359657Y-103776016D01*
X141386641Y-103770649D01*
X141524520Y-103678520D01*
X143048520Y-102154521D01*
X143140648Y-102016641D01*
X143140649Y-102016640D01*
X143173000Y-101854000D01*
X143173000Y-100506040D01*
X145035040Y-98644001D01*
X145152824Y-98644104D01*
X145373429Y-98552952D01*
X145542359Y-98384317D01*
X145633896Y-98163871D01*
X145634104Y-97925176D01*
X145542952Y-97704571D01*
X145374317Y-97535641D01*
X145153871Y-97444104D01*
X144915176Y-97443896D01*
X144694571Y-97535048D01*
X144525641Y-97703683D01*
X144434104Y-97924129D01*
X144434000Y-98042959D01*
X142447480Y-100029480D01*
X142355351Y-100167359D01*
X142355351Y-100167360D01*
X142323000Y-100330000D01*
X142323000Y-101677959D01*
X141047960Y-102953000D01*
X140855877Y-102953000D01*
X140855877Y-101258000D01*
X140834958Y-101146827D01*
X140769255Y-101044721D01*
X140669003Y-100976222D01*
X140550000Y-100952123D01*
X138850000Y-100952123D01*
X138738827Y-100973042D01*
X138636721Y-101038745D01*
X138568222Y-101138997D01*
X138544123Y-101258000D01*
X138544123Y-102958000D01*
X138565042Y-103069173D01*
X138630745Y-103171279D01*
X138729918Y-103239041D01*
X135888961Y-106079999D01*
X135771176Y-106079896D01*
X135550571Y-106171048D01*
X135381641Y-106339683D01*
X135290104Y-106560129D01*
X135289896Y-106798824D01*
X135228000Y-106798824D01*
X135228000Y-105596558D01*
X135295683Y-105664359D01*
X135516129Y-105755896D01*
X135754824Y-105756104D01*
X135975429Y-105664952D01*
X136144359Y-105496317D01*
X136235896Y-105275871D01*
X136236104Y-105037176D01*
X136144952Y-104816571D01*
X136061000Y-104732472D01*
X136061000Y-102477658D01*
X136075009Y-102548086D01*
X136324297Y-102921173D01*
X136697384Y-103170461D01*
X137137470Y-103258000D01*
X137182530Y-103258000D01*
X137622616Y-103170461D01*
X137995703Y-102921173D01*
X138244991Y-102548086D01*
X138332530Y-102108000D01*
X138244991Y-101667914D01*
X137995703Y-101294827D01*
X137622616Y-101045539D01*
X137182530Y-100958000D01*
X137137470Y-100958000D01*
X136697384Y-101045539D01*
X136324297Y-101294827D01*
X136075009Y-101667914D01*
X136061000Y-101738342D01*
X136061000Y-99937658D01*
X136075009Y-100008086D01*
X136324297Y-100381173D01*
X136697384Y-100630461D01*
X137137470Y-100718000D01*
X137182530Y-100718000D01*
X137622616Y-100630461D01*
X137995703Y-100381173D01*
X138244991Y-100008086D01*
X138332530Y-99568000D01*
X138527470Y-99568000D01*
X138615009Y-100008086D01*
X138864297Y-100381173D01*
X139237384Y-100630461D01*
X139677470Y-100718000D01*
X139722530Y-100718000D01*
X140162616Y-100630461D01*
X140535703Y-100381173D01*
X140784991Y-100008086D01*
X140872530Y-99568000D01*
X140784991Y-99127914D01*
X140535703Y-98754827D01*
X140162616Y-98505539D01*
X139722530Y-98418000D01*
X139677470Y-98418000D01*
X139237384Y-98505539D01*
X138864297Y-98754827D01*
X138615009Y-99127914D01*
X138527470Y-99568000D01*
X138332530Y-99568000D01*
X138244991Y-99127914D01*
X137995703Y-98754827D01*
X137622616Y-98505539D01*
X137182530Y-98418000D01*
X137137470Y-98418000D01*
X136697384Y-98505539D01*
X136324297Y-98754827D01*
X136075009Y-99127914D01*
X136061000Y-99198342D01*
X136061000Y-97397658D01*
X136075009Y-97468086D01*
X136324297Y-97841173D01*
X136697384Y-98090461D01*
X137137470Y-98178000D01*
X137182530Y-98178000D01*
X137622616Y-98090461D01*
X137995703Y-97841173D01*
X138244991Y-97468086D01*
X138332530Y-97028000D01*
X138527470Y-97028000D01*
X138615009Y-97468086D01*
X138864297Y-97841173D01*
X139237384Y-98090461D01*
X139677470Y-98178000D01*
X139722530Y-98178000D01*
X140162616Y-98090461D01*
X140535703Y-97841173D01*
X140784991Y-97468086D01*
X140872530Y-97028000D01*
X140784991Y-96587914D01*
X140535703Y-96214827D01*
X140162616Y-95965539D01*
X139722530Y-95878000D01*
X139677470Y-95878000D01*
X139237384Y-95965539D01*
X138864297Y-96214827D01*
X138615009Y-96587914D01*
X138527470Y-97028000D01*
X138332530Y-97028000D01*
X138244991Y-96587914D01*
X137995703Y-96214827D01*
X137622616Y-95965539D01*
X137182530Y-95878000D01*
X137137470Y-95878000D01*
X136697384Y-95965539D01*
X136324297Y-96214827D01*
X136075009Y-96587914D01*
X136061000Y-96658342D01*
X136061000Y-94857658D01*
X136075009Y-94928086D01*
X136324297Y-95301173D01*
X136697384Y-95550461D01*
X137137470Y-95638000D01*
X137182530Y-95638000D01*
X137622616Y-95550461D01*
X137995703Y-95301173D01*
X138244991Y-94928086D01*
X138332530Y-94488000D01*
X138244991Y-94047914D01*
X137995703Y-93674827D01*
X137622616Y-93425539D01*
X137438923Y-93389000D01*
X138507960Y-93389000D01*
X138836055Y-93717095D01*
X138615009Y-94047914D01*
X138527470Y-94488000D01*
X138615009Y-94928086D01*
X138864297Y-95301173D01*
X139237384Y-95550461D01*
X139677470Y-95638000D01*
X139722530Y-95638000D01*
X140162616Y-95550461D01*
X140535703Y-95301173D01*
X140784991Y-94928086D01*
X140842849Y-94637213D01*
X148365201Y-94637213D01*
X148384965Y-94796000D01*
X149152000Y-94796000D01*
X149152000Y-94027702D01*
X149552000Y-94027702D01*
X149552000Y-94796000D01*
X150319035Y-94796000D01*
X150338799Y-94637213D01*
X150303490Y-94551915D01*
X150061118Y-94221600D01*
X149710790Y-94009180D01*
X149552000Y-94027702D01*
X149152000Y-94027702D01*
X148993210Y-94009180D01*
X148642882Y-94221600D01*
X148400510Y-94551915D01*
X148365201Y-94637213D01*
X140842849Y-94637213D01*
X140872530Y-94488000D01*
X140784991Y-94047914D01*
X140535703Y-93674827D01*
X140162616Y-93425539D01*
X139722530Y-93338000D01*
X139677470Y-93338000D01*
X139662098Y-93341058D01*
X138984520Y-92663480D01*
X138846641Y-92571351D01*
X138819657Y-92565984D01*
X138684000Y-92539000D01*
X135636000Y-92539000D01*
X135473360Y-92571351D01*
X135335480Y-92663480D01*
X135243351Y-92801360D01*
X135228000Y-92878535D01*
X135228000Y-90140000D01*
X139820246Y-90140000D01*
X139820246Y-92740000D01*
X139862083Y-92962346D01*
X139993490Y-93166558D01*
X140193993Y-93303556D01*
X140432000Y-93351754D01*
X143032000Y-93351754D01*
X143254346Y-93309917D01*
X143458558Y-93178510D01*
X143595556Y-92978007D01*
X143628609Y-92814787D01*
X148365201Y-92814787D01*
X148400510Y-92900085D01*
X148642882Y-93230400D01*
X148993210Y-93442820D01*
X149152000Y-93424298D01*
X149152000Y-92656000D01*
X149552000Y-92656000D01*
X149552000Y-93424298D01*
X149710790Y-93442820D01*
X150061118Y-93230400D01*
X150303490Y-92900085D01*
X150338799Y-92814787D01*
X150319035Y-92656000D01*
X149552000Y-92656000D01*
X149152000Y-92656000D01*
X148384965Y-92656000D01*
X148365201Y-92814787D01*
X143628609Y-92814787D01*
X143643754Y-92740000D01*
X143643754Y-92097213D01*
X148365201Y-92097213D01*
X148384965Y-92256000D01*
X149152000Y-92256000D01*
X149152000Y-91487702D01*
X149552000Y-91487702D01*
X149552000Y-92256000D01*
X150319035Y-92256000D01*
X150338799Y-92097213D01*
X150303490Y-92011915D01*
X150061118Y-91681600D01*
X149710790Y-91469180D01*
X149552000Y-91487702D01*
X149152000Y-91487702D01*
X148993210Y-91469180D01*
X148642882Y-91681600D01*
X148400510Y-92011915D01*
X148365201Y-92097213D01*
X143643754Y-92097213D01*
X143643754Y-90274787D01*
X148365201Y-90274787D01*
X148400510Y-90360085D01*
X148642882Y-90690400D01*
X148993210Y-90902820D01*
X149152000Y-90884298D01*
X149152000Y-90116000D01*
X149552000Y-90116000D01*
X149552000Y-90884298D01*
X149710790Y-90902820D01*
X150061118Y-90690400D01*
X150303490Y-90360085D01*
X150338799Y-90274787D01*
X150319035Y-90116000D01*
X149552000Y-90116000D01*
X149152000Y-90116000D01*
X148384965Y-90116000D01*
X148365201Y-90274787D01*
X143643754Y-90274787D01*
X143643754Y-90140000D01*
X143601917Y-89917654D01*
X143470510Y-89713442D01*
X143270007Y-89576444D01*
X143175043Y-89557213D01*
X148365201Y-89557213D01*
X148384965Y-89716000D01*
X149152000Y-89716000D01*
X149152000Y-88947702D01*
X149552000Y-88947702D01*
X149552000Y-89716000D01*
X150319035Y-89716000D01*
X150338799Y-89557213D01*
X150303490Y-89471915D01*
X150061118Y-89141600D01*
X149710790Y-88929180D01*
X149552000Y-88947702D01*
X149152000Y-88947702D01*
X148993210Y-88929180D01*
X148642882Y-89141600D01*
X148400510Y-89471915D01*
X148365201Y-89557213D01*
X143175043Y-89557213D01*
X143032000Y-89528246D01*
X140432000Y-89528246D01*
X140209654Y-89570083D01*
X140005442Y-89701490D01*
X139868444Y-89901993D01*
X139820246Y-90140000D01*
X135228000Y-90140000D01*
X135228000Y-88756863D01*
X135431723Y-88756863D01*
X135674795Y-89345143D01*
X136124489Y-89795623D01*
X136712344Y-90039722D01*
X137348863Y-90040277D01*
X137937143Y-89797205D01*
X138387623Y-89347511D01*
X138631722Y-88759656D01*
X138632277Y-88123137D01*
X138471815Y-87734787D01*
X148365201Y-87734787D01*
X148400510Y-87820085D01*
X148642882Y-88150400D01*
X148993210Y-88362820D01*
X149152000Y-88344298D01*
X149152000Y-87576000D01*
X149552000Y-87576000D01*
X149552000Y-88344298D01*
X149710790Y-88362820D01*
X150061118Y-88150400D01*
X150303490Y-87820085D01*
X150338799Y-87734787D01*
X150319035Y-87576000D01*
X149552000Y-87576000D01*
X149152000Y-87576000D01*
X148384965Y-87576000D01*
X148365201Y-87734787D01*
X138471815Y-87734787D01*
X138389205Y-87534857D01*
X137939511Y-87084377D01*
X137351656Y-86840278D01*
X136715137Y-86839723D01*
X136126857Y-87082795D01*
X135676377Y-87532489D01*
X135432278Y-88120344D01*
X135431723Y-88756863D01*
X135228000Y-88756863D01*
X135228000Y-85756863D01*
X140131723Y-85756863D01*
X140374795Y-86345143D01*
X140824489Y-86795623D01*
X141412344Y-87039722D01*
X142048863Y-87040277D01*
X142104682Y-87017213D01*
X148365201Y-87017213D01*
X148384965Y-87176000D01*
X149152000Y-87176000D01*
X149152000Y-86407702D01*
X149552000Y-86407702D01*
X149552000Y-87176000D01*
X150319035Y-87176000D01*
X150338799Y-87017213D01*
X150303490Y-86931915D01*
X150061118Y-86601600D01*
X149710790Y-86389180D01*
X149552000Y-86407702D01*
X149152000Y-86407702D01*
X148993210Y-86389180D01*
X148642882Y-86601600D01*
X148400510Y-86931915D01*
X148365201Y-87017213D01*
X142104682Y-87017213D01*
X142637143Y-86797205D01*
X143087623Y-86347511D01*
X143331722Y-85759656D01*
X143332277Y-85123137D01*
X143089205Y-84534857D01*
X142639511Y-84084377D01*
X142051656Y-83840278D01*
X141415137Y-83839723D01*
X140826857Y-84082795D01*
X140376377Y-84532489D01*
X140132278Y-85120344D01*
X140131723Y-85756863D01*
X135228000Y-85756863D01*
X135228000Y-81431981D01*
X150603645Y-81431981D01*
X150915081Y-82185715D01*
X151491252Y-82762892D01*
X152244441Y-83075643D01*
X153059981Y-83076355D01*
X153813715Y-82764919D01*
X154390892Y-82188748D01*
X154703643Y-81435559D01*
X154704355Y-80620019D01*
X154392919Y-79866285D01*
X153816748Y-79289108D01*
X153063559Y-78976357D01*
X152248019Y-78975645D01*
X151494285Y-79287081D01*
X150917108Y-79863252D01*
X150604357Y-80616441D01*
X150603645Y-81431981D01*
X135228000Y-81431981D01*
X135228000Y-80051422D01*
X136439422Y-78840000D01*
X170144921Y-78840000D01*
X171350000Y-79804063D01*
X171350000Y-79804063D01*
G37*
X171350000Y-79804063D02*
X171350000Y-118068578D01*
X170138578Y-119280000D01*
X136185422Y-119280000D01*
X135228000Y-118322578D01*
X135228000Y-117245981D01*
X135617645Y-117245981D01*
X135929081Y-117999715D01*
X136505252Y-118576892D01*
X137258441Y-118889643D01*
X138073981Y-118890355D01*
X138827715Y-118578919D01*
X139404892Y-118002748D01*
X139717643Y-117249559D01*
X139718020Y-116817470D01*
X141090000Y-116817470D01*
X141090000Y-116862530D01*
X141177539Y-117302616D01*
X141426827Y-117675703D01*
X141799914Y-117924991D01*
X142240000Y-118012530D01*
X142680086Y-117924991D01*
X143053173Y-117675703D01*
X143302461Y-117302616D01*
X143342266Y-117102500D01*
X143680000Y-117102500D01*
X143680000Y-117739728D01*
X143718060Y-117831614D01*
X143788386Y-117901940D01*
X143880272Y-117940000D01*
X144517500Y-117940000D01*
X144580000Y-117877500D01*
X144580000Y-117040000D01*
X144980000Y-117040000D01*
X144980000Y-117877500D01*
X145042500Y-117940000D01*
X145679728Y-117940000D01*
X145771614Y-117901940D01*
X145841940Y-117831614D01*
X145880000Y-117739728D01*
X145880000Y-117102500D01*
X145817500Y-117040000D01*
X144980000Y-117040000D01*
X144580000Y-117040000D01*
X143742500Y-117040000D01*
X143680000Y-117102500D01*
X143342266Y-117102500D01*
X143390000Y-116862530D01*
X143390000Y-116817470D01*
X148202000Y-116817470D01*
X148202000Y-116862530D01*
X148289539Y-117302616D01*
X148538827Y-117675703D01*
X148911914Y-117924991D01*
X149352000Y-118012530D01*
X149792086Y-117924991D01*
X150165173Y-117675703D01*
X150414461Y-117302616D01*
X150502000Y-116862530D01*
X150502000Y-116817470D01*
X150414461Y-116377384D01*
X150165173Y-116004297D01*
X150143776Y-115990000D01*
X150736123Y-115990000D01*
X150736123Y-117690000D01*
X150757042Y-117801173D01*
X150822745Y-117903279D01*
X150922997Y-117971778D01*
X151042000Y-117995877D01*
X152742000Y-117995877D01*
X152853173Y-117974958D01*
X152955279Y-117909255D01*
X153023778Y-117809003D01*
X153047877Y-117690000D01*
X153047877Y-117499981D01*
X167113645Y-117499981D01*
X167425081Y-118253715D01*
X168001252Y-118830892D01*
X168754441Y-119143643D01*
X169569981Y-119144355D01*
X170323715Y-118832919D01*
X170900892Y-118256748D01*
X171213643Y-117503559D01*
X171214355Y-116688019D01*
X170902919Y-115934285D01*
X170326748Y-115357108D01*
X169573559Y-115044357D01*
X168758019Y-115043645D01*
X168004285Y-115355081D01*
X167427108Y-115931252D01*
X167114357Y-116684441D01*
X167113645Y-117499981D01*
X153047877Y-117499981D01*
X153047877Y-115990000D01*
X153026958Y-115878827D01*
X152961255Y-115776721D01*
X152861003Y-115708222D01*
X152742000Y-115684123D01*
X151042000Y-115684123D01*
X150930827Y-115705042D01*
X150828721Y-115770745D01*
X150760222Y-115870997D01*
X150736123Y-115990000D01*
X150143776Y-115990000D01*
X149792086Y-115755009D01*
X149352000Y-115667470D01*
X148911914Y-115755009D01*
X148538827Y-116004297D01*
X148289539Y-116377384D01*
X148202000Y-116817470D01*
X143390000Y-116817470D01*
X143302461Y-116377384D01*
X143053173Y-116004297D01*
X142957353Y-115940272D01*
X143680000Y-115940272D01*
X143680000Y-116577500D01*
X143742500Y-116640000D01*
X144580000Y-116640000D01*
X144580000Y-115802500D01*
X144980000Y-115802500D01*
X144980000Y-116640000D01*
X145817500Y-116640000D01*
X145880000Y-116577500D01*
X145880000Y-115940272D01*
X145841940Y-115848386D01*
X145771614Y-115778060D01*
X145679728Y-115740000D01*
X145042500Y-115740000D01*
X144980000Y-115802500D01*
X144580000Y-115802500D01*
X144517500Y-115740000D01*
X143880272Y-115740000D01*
X143788386Y-115778060D01*
X143718060Y-115848386D01*
X143680000Y-115940272D01*
X142957353Y-115940272D01*
X142680086Y-115755009D01*
X142240000Y-115667470D01*
X141799914Y-115755009D01*
X141426827Y-116004297D01*
X141177539Y-116377384D01*
X141090000Y-116817470D01*
X139718020Y-116817470D01*
X139718355Y-116434019D01*
X139406919Y-115680285D01*
X138830748Y-115103108D01*
X138077559Y-114790357D01*
X137262019Y-114789645D01*
X136508285Y-115101081D01*
X135931108Y-115677252D01*
X135618357Y-116430441D01*
X135617645Y-117245981D01*
X135228000Y-117245981D01*
X135228000Y-113331063D01*
X135234042Y-113363173D01*
X135299745Y-113465279D01*
X135399997Y-113533778D01*
X135519000Y-113557877D01*
X136769000Y-113557877D01*
X136822727Y-113547767D01*
X137321999Y-114047039D01*
X137321896Y-114164824D01*
X137413048Y-114385429D01*
X137581683Y-114554359D01*
X137802129Y-114645896D01*
X138040824Y-114646104D01*
X138261429Y-114554952D01*
X138430359Y-114386317D01*
X138521896Y-114165871D01*
X138522104Y-113927176D01*
X138430952Y-113706571D01*
X138262317Y-113537641D01*
X138041871Y-113446104D01*
X137923041Y-113446000D01*
X137404040Y-112927000D01*
X137942000Y-112927000D01*
X138077657Y-112900016D01*
X138104641Y-112894649D01*
X138242520Y-112802520D01*
X138730520Y-112314521D01*
X138822648Y-112176641D01*
X138822649Y-112176640D01*
X138855000Y-112014000D01*
X138855000Y-110666040D01*
X139955039Y-109566001D01*
X140072824Y-109566104D01*
X140146132Y-109535814D01*
X140116104Y-109608129D01*
X140116000Y-109726959D01*
X139653480Y-110189480D01*
X139561351Y-110327359D01*
X139561351Y-110327360D01*
X139529000Y-110490000D01*
X139529000Y-114892470D01*
X139445641Y-114975683D01*
X139354104Y-115196129D01*
X139353896Y-115434824D01*
X139445048Y-115655429D01*
X139613683Y-115824359D01*
X139834129Y-115915896D01*
X140072824Y-115916104D01*
X140293429Y-115824952D01*
X140462359Y-115656317D01*
X140553896Y-115435871D01*
X140554104Y-115197176D01*
X140462952Y-114976571D01*
X140379000Y-114892472D01*
X140379000Y-113910824D01*
X147989896Y-113910824D01*
X148081048Y-114131429D01*
X148249683Y-114300359D01*
X148470129Y-114391896D01*
X148708824Y-114392104D01*
X148929429Y-114300952D01*
X149098359Y-114132317D01*
X149189896Y-113911871D01*
X149190104Y-113673176D01*
X149098952Y-113452571D01*
X148930317Y-113283641D01*
X148709871Y-113192104D01*
X148471176Y-113191896D01*
X148250571Y-113283048D01*
X148081641Y-113451683D01*
X147990104Y-113672129D01*
X147989896Y-113910824D01*
X140379000Y-113910824D01*
X140379000Y-110666040D01*
X140717039Y-110328001D01*
X140834824Y-110328104D01*
X141055429Y-110236952D01*
X141224359Y-110068317D01*
X141315896Y-109847871D01*
X141316104Y-109609176D01*
X141224952Y-109388571D01*
X141056317Y-109219641D01*
X140835871Y-109128104D01*
X140597176Y-109127896D01*
X140523868Y-109158186D01*
X140553896Y-109085871D01*
X140554104Y-108847176D01*
X140523814Y-108773868D01*
X140596129Y-108803896D01*
X140714959Y-108804000D01*
X143209480Y-111298521D01*
X143347359Y-111390649D01*
X143510000Y-111423000D01*
X144524264Y-111423000D01*
X144434104Y-111640129D01*
X144433896Y-111878824D01*
X144525048Y-112099429D01*
X144693683Y-112268359D01*
X144914129Y-112359896D01*
X145152824Y-112360104D01*
X145373429Y-112268952D01*
X145457528Y-112185000D01*
X148159960Y-112185000D01*
X151083480Y-115108520D01*
X151221359Y-115200649D01*
X151384000Y-115233000D01*
X156287960Y-115233000D01*
X156412579Y-115357619D01*
X156395009Y-115383914D01*
X156307470Y-115824000D01*
X156395009Y-116264086D01*
X156644297Y-116637173D01*
X157017384Y-116886461D01*
X157457470Y-116974000D01*
X157502530Y-116974000D01*
X157942616Y-116886461D01*
X158315703Y-116637173D01*
X158564991Y-116264086D01*
X158652530Y-115824000D01*
X158847470Y-115824000D01*
X158935009Y-116264086D01*
X159184297Y-116637173D01*
X159557384Y-116886461D01*
X159997470Y-116974000D01*
X160042530Y-116974000D01*
X160482616Y-116886461D01*
X160855703Y-116637173D01*
X161104991Y-116264086D01*
X161192530Y-115824000D01*
X161104991Y-115383914D01*
X160855703Y-115010827D01*
X160482616Y-114761539D01*
X160042530Y-114674000D01*
X159997470Y-114674000D01*
X159557384Y-114761539D01*
X159184297Y-115010827D01*
X158935009Y-115383914D01*
X158847470Y-115824000D01*
X158652530Y-115824000D01*
X158564991Y-115383914D01*
X158315703Y-115010827D01*
X157942616Y-114761539D01*
X157502530Y-114674000D01*
X157457470Y-114674000D01*
X157018381Y-114761341D01*
X156764520Y-114507480D01*
X156626641Y-114415351D01*
X156599657Y-114409984D01*
X156464000Y-114383000D01*
X151560040Y-114383000D01*
X150886040Y-113709000D01*
X156392008Y-113709000D01*
X156395009Y-113724086D01*
X156644297Y-114097173D01*
X157017384Y-114346461D01*
X157457470Y-114434000D01*
X157502530Y-114434000D01*
X157942616Y-114346461D01*
X158315703Y-114097173D01*
X158564991Y-113724086D01*
X158652530Y-113284000D01*
X158564991Y-112843914D01*
X158315703Y-112470827D01*
X158268070Y-112439000D01*
X159231930Y-112439000D01*
X159184297Y-112470827D01*
X158935009Y-112843914D01*
X158847470Y-113284000D01*
X158935009Y-113724086D01*
X159184297Y-114097173D01*
X159557384Y-114346461D01*
X159997470Y-114434000D01*
X160042530Y-114434000D01*
X160482616Y-114346461D01*
X160855703Y-114097173D01*
X161104991Y-113724086D01*
X161192530Y-113284000D01*
X161104991Y-112843914D01*
X161059613Y-112776000D01*
X166467470Y-112776000D01*
X166555009Y-113216086D01*
X166804297Y-113589173D01*
X167177384Y-113838461D01*
X167617470Y-113926000D01*
X167662530Y-113926000D01*
X168102616Y-113838461D01*
X168475703Y-113589173D01*
X168724991Y-113216086D01*
X168812530Y-112776000D01*
X168724991Y-112335914D01*
X168475703Y-111962827D01*
X168102616Y-111713539D01*
X167662530Y-111626000D01*
X167617470Y-111626000D01*
X167177384Y-111713539D01*
X166804297Y-111962827D01*
X166555009Y-112335914D01*
X166467470Y-112776000D01*
X161059613Y-112776000D01*
X160855703Y-112470827D01*
X160808070Y-112439000D01*
X163322000Y-112439000D01*
X163457657Y-112412016D01*
X163484641Y-112406649D01*
X163622520Y-112314520D01*
X165701040Y-110236000D01*
X166467470Y-110236000D01*
X166555009Y-110676086D01*
X166804297Y-111049173D01*
X167177384Y-111298461D01*
X167617470Y-111386000D01*
X167662530Y-111386000D01*
X168102616Y-111298461D01*
X168475703Y-111049173D01*
X168724991Y-110676086D01*
X168812530Y-110236000D01*
X168724991Y-109795914D01*
X168475703Y-109422827D01*
X168102616Y-109173539D01*
X167662530Y-109086000D01*
X167617470Y-109086000D01*
X167177384Y-109173539D01*
X166804297Y-109422827D01*
X166555009Y-109795914D01*
X166467470Y-110236000D01*
X165701040Y-110236000D01*
X167085163Y-108851877D01*
X168490000Y-108851877D01*
X168601173Y-108830958D01*
X168703279Y-108765255D01*
X168771778Y-108665003D01*
X168795877Y-108546000D01*
X168795877Y-106846000D01*
X168774958Y-106734827D01*
X168709255Y-106632721D01*
X168609003Y-106564222D01*
X168490000Y-106540123D01*
X166790000Y-106540123D01*
X166678827Y-106561042D01*
X166576721Y-106626745D01*
X166508222Y-106726997D01*
X166484123Y-106846000D01*
X166484123Y-108250837D01*
X163145960Y-111589000D01*
X160709926Y-111589000D01*
X160755708Y-111561789D01*
X161012660Y-111217995D01*
X161057061Y-111110747D01*
X161038040Y-110944000D01*
X160220000Y-110944000D01*
X160220000Y-110964000D01*
X159820000Y-110964000D01*
X159820000Y-110944000D01*
X159001960Y-110944000D01*
X158982939Y-111110747D01*
X159027340Y-111217995D01*
X159284292Y-111561789D01*
X159330074Y-111589000D01*
X158635877Y-111589000D01*
X158635877Y-110377253D01*
X158982939Y-110377253D01*
X159001960Y-110544000D01*
X159820000Y-110544000D01*
X159820000Y-109724814D01*
X160220000Y-109724814D01*
X160220000Y-110544000D01*
X161038040Y-110544000D01*
X161057061Y-110377253D01*
X161012660Y-110270005D01*
X160755708Y-109926211D01*
X160386751Y-109706918D01*
X160220000Y-109724814D01*
X159820000Y-109724814D01*
X159653249Y-109706918D01*
X159284292Y-109926211D01*
X159027340Y-110270005D01*
X158982939Y-110377253D01*
X158635877Y-110377253D01*
X158635877Y-109894000D01*
X158614958Y-109782827D01*
X158549255Y-109680721D01*
X158449003Y-109612222D01*
X158330000Y-109588123D01*
X157433164Y-109588123D01*
X154224520Y-106379480D01*
X154086641Y-106287351D01*
X154059657Y-106281984D01*
X153924000Y-106255000D01*
X145965530Y-106255000D01*
X145882317Y-106171641D01*
X145661871Y-106080104D01*
X145423176Y-106079896D01*
X145202571Y-106171048D01*
X145033641Y-106339683D01*
X144942104Y-106560129D01*
X144941896Y-106798824D01*
X145033048Y-107019429D01*
X145201683Y-107188359D01*
X145422129Y-107279896D01*
X145660824Y-107280104D01*
X145881429Y-107188952D01*
X145965528Y-107105000D01*
X153747960Y-107105000D01*
X156376528Y-109733569D01*
X156348222Y-109774997D01*
X156324123Y-109894000D01*
X156324123Y-111527083D01*
X155494520Y-110697480D01*
X155356641Y-110605351D01*
X155329657Y-110599984D01*
X155194000Y-110573000D01*
X150877736Y-110573000D01*
X150967896Y-110355871D01*
X150968104Y-110117176D01*
X150877956Y-109899000D01*
X153754470Y-109899000D01*
X153837683Y-109982359D01*
X154058129Y-110073896D01*
X154296824Y-110074104D01*
X154517429Y-109982952D01*
X154686359Y-109814317D01*
X154777896Y-109593871D01*
X154778104Y-109355176D01*
X154686952Y-109134571D01*
X154518317Y-108965641D01*
X154297871Y-108874104D01*
X154059176Y-108873896D01*
X153838571Y-108965048D01*
X153754472Y-109049000D01*
X145464041Y-109049000D01*
X145380001Y-108964961D01*
X145380104Y-108847176D01*
X145288952Y-108626571D01*
X145120317Y-108457641D01*
X144899871Y-108366104D01*
X144661176Y-108365896D01*
X144440571Y-108457048D01*
X144271641Y-108625683D01*
X144180104Y-108846129D01*
X144179896Y-109084824D01*
X144271048Y-109305429D01*
X144439683Y-109474359D01*
X144660129Y-109565896D01*
X144778959Y-109566000D01*
X144987479Y-109774520D01*
X145042075Y-109811000D01*
X144949530Y-109811000D01*
X144866317Y-109727641D01*
X144645871Y-109636104D01*
X144407176Y-109635896D01*
X144186571Y-109727048D01*
X144017641Y-109895683D01*
X143926104Y-110116129D01*
X143925896Y-110354824D01*
X144016044Y-110573000D01*
X143686041Y-110573000D01*
X141316001Y-108202961D01*
X141316104Y-108085176D01*
X141224952Y-107864571D01*
X141056317Y-107695641D01*
X140835871Y-107604104D01*
X140597176Y-107603896D01*
X140376571Y-107695048D01*
X140207641Y-107863683D01*
X140116104Y-108084129D01*
X140115896Y-108322824D01*
X140146186Y-108396132D01*
X140073871Y-108366104D01*
X139835176Y-108365896D01*
X139614571Y-108457048D01*
X139445641Y-108625683D01*
X139354104Y-108846129D01*
X139354000Y-108964959D01*
X138129480Y-110189480D01*
X138037351Y-110327359D01*
X138037351Y-110327360D01*
X138005000Y-110490000D01*
X138005000Y-111837959D01*
X137765960Y-112077000D01*
X137074877Y-112077000D01*
X137074877Y-111752000D01*
X137053958Y-111640827D01*
X136988255Y-111538721D01*
X136888003Y-111470222D01*
X136769000Y-111446123D01*
X135519000Y-111446123D01*
X135407827Y-111467042D01*
X135305721Y-111532745D01*
X135237222Y-111632997D01*
X135228000Y-111678536D01*
X135228000Y-110264500D01*
X135269000Y-110264500D01*
X135269000Y-110801728D01*
X135307060Y-110893614D01*
X135377386Y-110963940D01*
X135469272Y-111002000D01*
X135881500Y-111002000D01*
X135944000Y-110939500D01*
X135944000Y-110202000D01*
X136344000Y-110202000D01*
X136344000Y-110939500D01*
X136406500Y-111002000D01*
X136818728Y-111002000D01*
X136910614Y-110963940D01*
X136980940Y-110893614D01*
X137019000Y-110801728D01*
X137019000Y-110264500D01*
X136956500Y-110202000D01*
X136344000Y-110202000D01*
X135944000Y-110202000D01*
X135331500Y-110202000D01*
X135269000Y-110264500D01*
X135228000Y-110264500D01*
X135228000Y-109202272D01*
X135269000Y-109202272D01*
X135269000Y-109739500D01*
X135331500Y-109802000D01*
X135944000Y-109802000D01*
X135944000Y-109064500D01*
X136344000Y-109064500D01*
X136344000Y-109802000D01*
X136956500Y-109802000D01*
X137019000Y-109739500D01*
X137019000Y-109202272D01*
X136980940Y-109110386D01*
X136910614Y-109040060D01*
X136818728Y-109002000D01*
X136406500Y-109002000D01*
X136344000Y-109064500D01*
X135944000Y-109064500D01*
X135881500Y-109002000D01*
X135469272Y-109002000D01*
X135377386Y-109040060D01*
X135307060Y-109110386D01*
X135269000Y-109202272D01*
X135228000Y-109202272D01*
X135228000Y-107306824D01*
X142655896Y-107306824D01*
X142747048Y-107527429D01*
X142915683Y-107696359D01*
X143136129Y-107787896D01*
X143374824Y-107788104D01*
X143595429Y-107696952D01*
X143764359Y-107528317D01*
X143855896Y-107307871D01*
X143856000Y-107189041D01*
X144064520Y-106980521D01*
X144156648Y-106842641D01*
X144156649Y-106842640D01*
X144189000Y-106680000D01*
X144189000Y-102616000D01*
X148230450Y-102616000D01*
X148314183Y-103036952D01*
X148552633Y-103393817D01*
X148909498Y-103632267D01*
X149330450Y-103716000D01*
X149373550Y-103716000D01*
X149794502Y-103632267D01*
X150151367Y-103393817D01*
X150389817Y-103036952D01*
X150473550Y-102616000D01*
X150389817Y-102195048D01*
X150151367Y-101838183D01*
X150118168Y-101816000D01*
X160946123Y-101816000D01*
X160946123Y-103416000D01*
X160967042Y-103527173D01*
X161032745Y-103629279D01*
X161132997Y-103697778D01*
X161252000Y-103721877D01*
X162852000Y-103721877D01*
X162963173Y-103700958D01*
X163065279Y-103635255D01*
X163133778Y-103535003D01*
X163157877Y-103416000D01*
X163157877Y-101816000D01*
X163136958Y-101704827D01*
X163071255Y-101602721D01*
X162971003Y-101534222D01*
X162852000Y-101510123D01*
X161252000Y-101510123D01*
X161140827Y-101531042D01*
X161038721Y-101596745D01*
X160970222Y-101696997D01*
X160946123Y-101816000D01*
X150118168Y-101816000D01*
X149794502Y-101599733D01*
X149373550Y-101516000D01*
X149330450Y-101516000D01*
X148909498Y-101599733D01*
X148552633Y-101838183D01*
X148314183Y-102195048D01*
X148230450Y-102616000D01*
X144189000Y-102616000D01*
X144189000Y-101014040D01*
X145127040Y-100076000D01*
X148230450Y-100076000D01*
X148314183Y-100496952D01*
X148552633Y-100853817D01*
X148909498Y-101092267D01*
X149330450Y-101176000D01*
X149373550Y-101176000D01*
X149794502Y-101092267D01*
X150151367Y-100853817D01*
X150389817Y-100496952D01*
X150473550Y-100076000D01*
X160930450Y-100076000D01*
X161014183Y-100496952D01*
X161252633Y-100853817D01*
X161609498Y-101092267D01*
X162030450Y-101176000D01*
X162073550Y-101176000D01*
X162494502Y-101092267D01*
X162851367Y-100853817D01*
X163089817Y-100496952D01*
X163173550Y-100076000D01*
X163089817Y-99655048D01*
X162851367Y-99298183D01*
X162494502Y-99059733D01*
X162073550Y-98976000D01*
X162030450Y-98976000D01*
X161609498Y-99059733D01*
X161252633Y-99298183D01*
X161014183Y-99655048D01*
X160930450Y-100076000D01*
X150473550Y-100076000D01*
X150389817Y-99655048D01*
X150151367Y-99298183D01*
X149794502Y-99059733D01*
X149373550Y-98976000D01*
X149330450Y-98976000D01*
X148909498Y-99059733D01*
X148552633Y-99298183D01*
X148314183Y-99655048D01*
X148230450Y-100076000D01*
X145127040Y-100076000D01*
X147308253Y-97894787D01*
X148365201Y-97894787D01*
X148400510Y-97980085D01*
X148642882Y-98310400D01*
X148993210Y-98522820D01*
X149152000Y-98504298D01*
X149152000Y-97736000D01*
X149552000Y-97736000D01*
X149552000Y-98504298D01*
X149710790Y-98522820D01*
X150061118Y-98310400D01*
X150303490Y-97980085D01*
X150338799Y-97894787D01*
X150319035Y-97736000D01*
X149552000Y-97736000D01*
X149152000Y-97736000D01*
X148384965Y-97736000D01*
X148365201Y-97894787D01*
X147308253Y-97894787D01*
X147667040Y-97536000D01*
X160879470Y-97536000D01*
X160967009Y-97976086D01*
X161216297Y-98349173D01*
X161589384Y-98598461D01*
X162029470Y-98686000D01*
X162074530Y-98686000D01*
X162514616Y-98598461D01*
X162887703Y-98349173D01*
X163136991Y-97976086D01*
X163224530Y-97536000D01*
X163136991Y-97095914D01*
X162887703Y-96722827D01*
X162514616Y-96473539D01*
X162074530Y-96386000D01*
X162029470Y-96386000D01*
X161589384Y-96473539D01*
X161216297Y-96722827D01*
X160967009Y-97095914D01*
X160879470Y-97536000D01*
X147667040Y-97536000D01*
X148512041Y-96691000D01*
X148759317Y-96691000D01*
X148642882Y-96761600D01*
X148400510Y-97091915D01*
X148365201Y-97177213D01*
X148384965Y-97336000D01*
X149152000Y-97336000D01*
X149152000Y-97316000D01*
X149552000Y-97316000D01*
X149552000Y-97336000D01*
X150319035Y-97336000D01*
X150338799Y-97177213D01*
X150303490Y-97091915D01*
X150061118Y-96761600D01*
X149944683Y-96691000D01*
X150368000Y-96691000D01*
X150503657Y-96664016D01*
X150530641Y-96658649D01*
X150668520Y-96566520D01*
X151430521Y-95804520D01*
X151522649Y-95666641D01*
X151555000Y-95504000D01*
X151555000Y-94996000D01*
X160879470Y-94996000D01*
X160967009Y-95436086D01*
X161216297Y-95809173D01*
X161589384Y-96058461D01*
X162029470Y-96146000D01*
X162074530Y-96146000D01*
X162514616Y-96058461D01*
X162887703Y-95809173D01*
X163136991Y-95436086D01*
X163224530Y-94996000D01*
X163136991Y-94555914D01*
X162887703Y-94182827D01*
X162514616Y-93933539D01*
X162074530Y-93846000D01*
X162029470Y-93846000D01*
X161589384Y-93933539D01*
X161216297Y-94182827D01*
X160967009Y-94555914D01*
X160879470Y-94996000D01*
X151555000Y-94996000D01*
X151555000Y-92456000D01*
X160879470Y-92456000D01*
X160967009Y-92896086D01*
X161216297Y-93269173D01*
X161589384Y-93518461D01*
X162029470Y-93606000D01*
X162074530Y-93606000D01*
X162514616Y-93518461D01*
X162887703Y-93269173D01*
X163136991Y-92896086D01*
X163224530Y-92456000D01*
X163136991Y-92015914D01*
X162887703Y-91642827D01*
X162514616Y-91393539D01*
X162074530Y-91306000D01*
X162029470Y-91306000D01*
X161589384Y-91393539D01*
X161216297Y-91642827D01*
X160967009Y-92015914D01*
X160879470Y-92456000D01*
X151555000Y-92456000D01*
X151555000Y-89916000D01*
X160879470Y-89916000D01*
X160967009Y-90356086D01*
X161216297Y-90729173D01*
X161589384Y-90978461D01*
X162029470Y-91066000D01*
X162074530Y-91066000D01*
X162514616Y-90978461D01*
X162887703Y-90729173D01*
X163136991Y-90356086D01*
X163224530Y-89916000D01*
X163136991Y-89475914D01*
X162887703Y-89102827D01*
X162514616Y-88853539D01*
X162074530Y-88766000D01*
X162029470Y-88766000D01*
X161589384Y-88853539D01*
X161216297Y-89102827D01*
X160967009Y-89475914D01*
X160879470Y-89916000D01*
X151555000Y-89916000D01*
X151555000Y-88550432D01*
X164299861Y-88550432D01*
X164421397Y-88844572D01*
X164646245Y-89069812D01*
X164940172Y-89191861D01*
X165258432Y-89192139D01*
X165552572Y-89070603D01*
X165656356Y-88967000D01*
X166097122Y-88967000D01*
X166112745Y-88991279D01*
X166212997Y-89059778D01*
X166332000Y-89083877D01*
X167932000Y-89083877D01*
X168043173Y-89062958D01*
X168145279Y-88997255D01*
X168213778Y-88897003D01*
X168237877Y-88778000D01*
X168237877Y-85278000D01*
X168216958Y-85166827D01*
X168151255Y-85064721D01*
X168051003Y-84996222D01*
X167932000Y-84972123D01*
X166332000Y-84972123D01*
X166220827Y-84993042D01*
X166118721Y-85058745D01*
X166050222Y-85158997D01*
X166026123Y-85278000D01*
X166026123Y-87668705D01*
X165877828Y-87817000D01*
X165656388Y-87817000D01*
X165553755Y-87714188D01*
X165259828Y-87592139D01*
X164941568Y-87591861D01*
X164647428Y-87713397D01*
X164422188Y-87938245D01*
X164300139Y-88232172D01*
X164299861Y-88550432D01*
X151555000Y-88550432D01*
X151555000Y-87376000D01*
X160930450Y-87376000D01*
X161014183Y-87796952D01*
X161252633Y-88153817D01*
X161609498Y-88392267D01*
X162030450Y-88476000D01*
X162073550Y-88476000D01*
X162494502Y-88392267D01*
X162851367Y-88153817D01*
X163089817Y-87796952D01*
X163173550Y-87376000D01*
X163089817Y-86955048D01*
X162851367Y-86598183D01*
X162494502Y-86359733D01*
X162073550Y-86276000D01*
X162030450Y-86276000D01*
X161609498Y-86359733D01*
X161252633Y-86598183D01*
X161014183Y-86955048D01*
X160930450Y-87376000D01*
X151555000Y-87376000D01*
X151555000Y-86614000D01*
X151552812Y-86603000D01*
X151522649Y-86451359D01*
X151430521Y-86313480D01*
X150424885Y-85307844D01*
X155617810Y-85307844D01*
X155784922Y-85712286D01*
X156094087Y-86021991D01*
X156498237Y-86189808D01*
X156935844Y-86190190D01*
X157340286Y-86023078D01*
X157649991Y-85713913D01*
X157775709Y-85411149D01*
X158350858Y-84836000D01*
X160624572Y-84836000D01*
X160731141Y-85371757D01*
X161034623Y-85825949D01*
X161488815Y-86129431D01*
X162024572Y-86236000D01*
X162079428Y-86236000D01*
X162615185Y-86129431D01*
X163069377Y-85825949D01*
X163372859Y-85371757D01*
X163479428Y-84836000D01*
X163372859Y-84300243D01*
X163069377Y-83846051D01*
X162615185Y-83542569D01*
X162079428Y-83436000D01*
X162024572Y-83436000D01*
X161488815Y-83542569D01*
X161034623Y-83846051D01*
X160731141Y-84300243D01*
X160624572Y-84836000D01*
X158350858Y-84836000D01*
X160583858Y-82603000D01*
X165720246Y-82603000D01*
X165720246Y-83378000D01*
X165762083Y-83600346D01*
X165893490Y-83804558D01*
X166093993Y-83941556D01*
X166332000Y-83989754D01*
X167932000Y-83989754D01*
X168154346Y-83947917D01*
X168358558Y-83816510D01*
X168495556Y-83616007D01*
X168543754Y-83378000D01*
X168543754Y-79878000D01*
X168501917Y-79655654D01*
X168370510Y-79451442D01*
X168170007Y-79314444D01*
X167932000Y-79266246D01*
X166332000Y-79266246D01*
X166109654Y-79308083D01*
X165905442Y-79439490D01*
X165768444Y-79639993D01*
X165720246Y-79878000D01*
X165720246Y-80653000D01*
X160180000Y-80653000D01*
X159806884Y-80727217D01*
X159806882Y-80727218D01*
X159806883Y-80727218D01*
X159490571Y-80938571D01*
X156396504Y-84032638D01*
X156095714Y-84156922D01*
X155786009Y-84466087D01*
X155618192Y-84870237D01*
X155617810Y-85307844D01*
X150424885Y-85307844D01*
X150383479Y-85266438D01*
X150389817Y-85256952D01*
X150473550Y-84836000D01*
X150389817Y-84415048D01*
X150151367Y-84058183D01*
X149794502Y-83819733D01*
X149373550Y-83736000D01*
X149330450Y-83736000D01*
X148909498Y-83819733D01*
X148552633Y-84058183D01*
X148314183Y-84415048D01*
X148230450Y-84836000D01*
X148314183Y-85256952D01*
X148552633Y-85613817D01*
X148909498Y-85852267D01*
X149330450Y-85936000D01*
X149373550Y-85936000D01*
X149771752Y-85856792D01*
X150705000Y-86790041D01*
X150705000Y-95327959D01*
X150191960Y-95841000D01*
X149944683Y-95841000D01*
X150061118Y-95770400D01*
X150303490Y-95440085D01*
X150338799Y-95354787D01*
X150319035Y-95196000D01*
X149552000Y-95196000D01*
X149552000Y-95216000D01*
X149152000Y-95216000D01*
X149152000Y-95196000D01*
X148384965Y-95196000D01*
X148365201Y-95354787D01*
X148400510Y-95440085D01*
X148642882Y-95770400D01*
X148759317Y-95841000D01*
X148336000Y-95841000D01*
X148173360Y-95873351D01*
X148138492Y-95896649D01*
X148035479Y-95965480D01*
X143463480Y-100537480D01*
X143371351Y-100675359D01*
X143371351Y-100675360D01*
X143339000Y-100838000D01*
X143339000Y-106503959D01*
X143254961Y-106587999D01*
X143137176Y-106587896D01*
X142916571Y-106679048D01*
X142747641Y-106847683D01*
X142656104Y-107068129D01*
X142655896Y-107306824D01*
X135228000Y-107306824D01*
X135228000Y-106798824D01*
X135289896Y-106798824D01*
X135381048Y-107019429D01*
X135549683Y-107188359D01*
X135770129Y-107279896D01*
X136008824Y-107280104D01*
X136229429Y-107188952D01*
X136398359Y-107020317D01*
X136489896Y-106799871D01*
X136490000Y-106681041D01*
X139368041Y-103803000D01*
X141224000Y-103803000D01*
X141359657Y-103776016D01*
X141386641Y-103770649D01*
X141524520Y-103678520D01*
X143048520Y-102154521D01*
X143140648Y-102016641D01*
X143140649Y-102016640D01*
X143173000Y-101854000D01*
X143173000Y-100506040D01*
X145035040Y-98644001D01*
X145152824Y-98644104D01*
X145373429Y-98552952D01*
X145542359Y-98384317D01*
X145633896Y-98163871D01*
X145634104Y-97925176D01*
X145542952Y-97704571D01*
X145374317Y-97535641D01*
X145153871Y-97444104D01*
X144915176Y-97443896D01*
X144694571Y-97535048D01*
X144525641Y-97703683D01*
X144434104Y-97924129D01*
X144434000Y-98042959D01*
X142447480Y-100029480D01*
X142355351Y-100167359D01*
X142355351Y-100167360D01*
X142323000Y-100330000D01*
X142323000Y-101677959D01*
X141047960Y-102953000D01*
X140855877Y-102953000D01*
X140855877Y-101258000D01*
X140834958Y-101146827D01*
X140769255Y-101044721D01*
X140669003Y-100976222D01*
X140550000Y-100952123D01*
X138850000Y-100952123D01*
X138738827Y-100973042D01*
X138636721Y-101038745D01*
X138568222Y-101138997D01*
X138544123Y-101258000D01*
X138544123Y-102958000D01*
X138565042Y-103069173D01*
X138630745Y-103171279D01*
X138729918Y-103239041D01*
X135888961Y-106079999D01*
X135771176Y-106079896D01*
X135550571Y-106171048D01*
X135381641Y-106339683D01*
X135290104Y-106560129D01*
X135289896Y-106798824D01*
X135228000Y-106798824D01*
X135228000Y-105596558D01*
X135295683Y-105664359D01*
X135516129Y-105755896D01*
X135754824Y-105756104D01*
X135975429Y-105664952D01*
X136144359Y-105496317D01*
X136235896Y-105275871D01*
X136236104Y-105037176D01*
X136144952Y-104816571D01*
X136061000Y-104732472D01*
X136061000Y-102477658D01*
X136075009Y-102548086D01*
X136324297Y-102921173D01*
X136697384Y-103170461D01*
X137137470Y-103258000D01*
X137182530Y-103258000D01*
X137622616Y-103170461D01*
X137995703Y-102921173D01*
X138244991Y-102548086D01*
X138332530Y-102108000D01*
X138244991Y-101667914D01*
X137995703Y-101294827D01*
X137622616Y-101045539D01*
X137182530Y-100958000D01*
X137137470Y-100958000D01*
X136697384Y-101045539D01*
X136324297Y-101294827D01*
X136075009Y-101667914D01*
X136061000Y-101738342D01*
X136061000Y-99937658D01*
X136075009Y-100008086D01*
X136324297Y-100381173D01*
X136697384Y-100630461D01*
X137137470Y-100718000D01*
X137182530Y-100718000D01*
X137622616Y-100630461D01*
X137995703Y-100381173D01*
X138244991Y-100008086D01*
X138332530Y-99568000D01*
X138527470Y-99568000D01*
X138615009Y-100008086D01*
X138864297Y-100381173D01*
X139237384Y-100630461D01*
X139677470Y-100718000D01*
X139722530Y-100718000D01*
X140162616Y-100630461D01*
X140535703Y-100381173D01*
X140784991Y-100008086D01*
X140872530Y-99568000D01*
X140784991Y-99127914D01*
X140535703Y-98754827D01*
X140162616Y-98505539D01*
X139722530Y-98418000D01*
X139677470Y-98418000D01*
X139237384Y-98505539D01*
X138864297Y-98754827D01*
X138615009Y-99127914D01*
X138527470Y-99568000D01*
X138332530Y-99568000D01*
X138244991Y-99127914D01*
X137995703Y-98754827D01*
X137622616Y-98505539D01*
X137182530Y-98418000D01*
X137137470Y-98418000D01*
X136697384Y-98505539D01*
X136324297Y-98754827D01*
X136075009Y-99127914D01*
X136061000Y-99198342D01*
X136061000Y-97397658D01*
X136075009Y-97468086D01*
X136324297Y-97841173D01*
X136697384Y-98090461D01*
X137137470Y-98178000D01*
X137182530Y-98178000D01*
X137622616Y-98090461D01*
X137995703Y-97841173D01*
X138244991Y-97468086D01*
X138332530Y-97028000D01*
X138527470Y-97028000D01*
X138615009Y-97468086D01*
X138864297Y-97841173D01*
X139237384Y-98090461D01*
X139677470Y-98178000D01*
X139722530Y-98178000D01*
X140162616Y-98090461D01*
X140535703Y-97841173D01*
X140784991Y-97468086D01*
X140872530Y-97028000D01*
X140784991Y-96587914D01*
X140535703Y-96214827D01*
X140162616Y-95965539D01*
X139722530Y-95878000D01*
X139677470Y-95878000D01*
X139237384Y-95965539D01*
X138864297Y-96214827D01*
X138615009Y-96587914D01*
X138527470Y-97028000D01*
X138332530Y-97028000D01*
X138244991Y-96587914D01*
X137995703Y-96214827D01*
X137622616Y-95965539D01*
X137182530Y-95878000D01*
X137137470Y-95878000D01*
X136697384Y-95965539D01*
X136324297Y-96214827D01*
X136075009Y-96587914D01*
X136061000Y-96658342D01*
X136061000Y-94857658D01*
X136075009Y-94928086D01*
X136324297Y-95301173D01*
X136697384Y-95550461D01*
X137137470Y-95638000D01*
X137182530Y-95638000D01*
X137622616Y-95550461D01*
X137995703Y-95301173D01*
X138244991Y-94928086D01*
X138332530Y-94488000D01*
X138244991Y-94047914D01*
X137995703Y-93674827D01*
X137622616Y-93425539D01*
X137438923Y-93389000D01*
X138507960Y-93389000D01*
X138836055Y-93717095D01*
X138615009Y-94047914D01*
X138527470Y-94488000D01*
X138615009Y-94928086D01*
X138864297Y-95301173D01*
X139237384Y-95550461D01*
X139677470Y-95638000D01*
X139722530Y-95638000D01*
X140162616Y-95550461D01*
X140535703Y-95301173D01*
X140784991Y-94928086D01*
X140842849Y-94637213D01*
X148365201Y-94637213D01*
X148384965Y-94796000D01*
X149152000Y-94796000D01*
X149152000Y-94027702D01*
X149552000Y-94027702D01*
X149552000Y-94796000D01*
X150319035Y-94796000D01*
X150338799Y-94637213D01*
X150303490Y-94551915D01*
X150061118Y-94221600D01*
X149710790Y-94009180D01*
X149552000Y-94027702D01*
X149152000Y-94027702D01*
X148993210Y-94009180D01*
X148642882Y-94221600D01*
X148400510Y-94551915D01*
X148365201Y-94637213D01*
X140842849Y-94637213D01*
X140872530Y-94488000D01*
X140784991Y-94047914D01*
X140535703Y-93674827D01*
X140162616Y-93425539D01*
X139722530Y-93338000D01*
X139677470Y-93338000D01*
X139662098Y-93341058D01*
X138984520Y-92663480D01*
X138846641Y-92571351D01*
X138819657Y-92565984D01*
X138684000Y-92539000D01*
X135636000Y-92539000D01*
X135473360Y-92571351D01*
X135335480Y-92663480D01*
X135243351Y-92801360D01*
X135228000Y-92878535D01*
X135228000Y-90140000D01*
X139820246Y-90140000D01*
X139820246Y-92740000D01*
X139862083Y-92962346D01*
X139993490Y-93166558D01*
X140193993Y-93303556D01*
X140432000Y-93351754D01*
X143032000Y-93351754D01*
X143254346Y-93309917D01*
X143458558Y-93178510D01*
X143595556Y-92978007D01*
X143628609Y-92814787D01*
X148365201Y-92814787D01*
X148400510Y-92900085D01*
X148642882Y-93230400D01*
X148993210Y-93442820D01*
X149152000Y-93424298D01*
X149152000Y-92656000D01*
X149552000Y-92656000D01*
X149552000Y-93424298D01*
X149710790Y-93442820D01*
X150061118Y-93230400D01*
X150303490Y-92900085D01*
X150338799Y-92814787D01*
X150319035Y-92656000D01*
X149552000Y-92656000D01*
X149152000Y-92656000D01*
X148384965Y-92656000D01*
X148365201Y-92814787D01*
X143628609Y-92814787D01*
X143643754Y-92740000D01*
X143643754Y-92097213D01*
X148365201Y-92097213D01*
X148384965Y-92256000D01*
X149152000Y-92256000D01*
X149152000Y-91487702D01*
X149552000Y-91487702D01*
X149552000Y-92256000D01*
X150319035Y-92256000D01*
X150338799Y-92097213D01*
X150303490Y-92011915D01*
X150061118Y-91681600D01*
X149710790Y-91469180D01*
X149552000Y-91487702D01*
X149152000Y-91487702D01*
X148993210Y-91469180D01*
X148642882Y-91681600D01*
X148400510Y-92011915D01*
X148365201Y-92097213D01*
X143643754Y-92097213D01*
X143643754Y-90274787D01*
X148365201Y-90274787D01*
X148400510Y-90360085D01*
X148642882Y-90690400D01*
X148993210Y-90902820D01*
X149152000Y-90884298D01*
X149152000Y-90116000D01*
X149552000Y-90116000D01*
X149552000Y-90884298D01*
X149710790Y-90902820D01*
X150061118Y-90690400D01*
X150303490Y-90360085D01*
X150338799Y-90274787D01*
X150319035Y-90116000D01*
X149552000Y-90116000D01*
X149152000Y-90116000D01*
X148384965Y-90116000D01*
X148365201Y-90274787D01*
X143643754Y-90274787D01*
X143643754Y-90140000D01*
X143601917Y-89917654D01*
X143470510Y-89713442D01*
X143270007Y-89576444D01*
X143175043Y-89557213D01*
X148365201Y-89557213D01*
X148384965Y-89716000D01*
X149152000Y-89716000D01*
X149152000Y-88947702D01*
X149552000Y-88947702D01*
X149552000Y-89716000D01*
X150319035Y-89716000D01*
X150338799Y-89557213D01*
X150303490Y-89471915D01*
X150061118Y-89141600D01*
X149710790Y-88929180D01*
X149552000Y-88947702D01*
X149152000Y-88947702D01*
X148993210Y-88929180D01*
X148642882Y-89141600D01*
X148400510Y-89471915D01*
X148365201Y-89557213D01*
X143175043Y-89557213D01*
X143032000Y-89528246D01*
X140432000Y-89528246D01*
X140209654Y-89570083D01*
X140005442Y-89701490D01*
X139868444Y-89901993D01*
X139820246Y-90140000D01*
X135228000Y-90140000D01*
X135228000Y-88756863D01*
X135431723Y-88756863D01*
X135674795Y-89345143D01*
X136124489Y-89795623D01*
X136712344Y-90039722D01*
X137348863Y-90040277D01*
X137937143Y-89797205D01*
X138387623Y-89347511D01*
X138631722Y-88759656D01*
X138632277Y-88123137D01*
X138471815Y-87734787D01*
X148365201Y-87734787D01*
X148400510Y-87820085D01*
X148642882Y-88150400D01*
X148993210Y-88362820D01*
X149152000Y-88344298D01*
X149152000Y-87576000D01*
X149552000Y-87576000D01*
X149552000Y-88344298D01*
X149710790Y-88362820D01*
X150061118Y-88150400D01*
X150303490Y-87820085D01*
X150338799Y-87734787D01*
X150319035Y-87576000D01*
X149552000Y-87576000D01*
X149152000Y-87576000D01*
X148384965Y-87576000D01*
X148365201Y-87734787D01*
X138471815Y-87734787D01*
X138389205Y-87534857D01*
X137939511Y-87084377D01*
X137351656Y-86840278D01*
X136715137Y-86839723D01*
X136126857Y-87082795D01*
X135676377Y-87532489D01*
X135432278Y-88120344D01*
X135431723Y-88756863D01*
X135228000Y-88756863D01*
X135228000Y-85756863D01*
X140131723Y-85756863D01*
X140374795Y-86345143D01*
X140824489Y-86795623D01*
X141412344Y-87039722D01*
X142048863Y-87040277D01*
X142104682Y-87017213D01*
X148365201Y-87017213D01*
X148384965Y-87176000D01*
X149152000Y-87176000D01*
X149152000Y-86407702D01*
X149552000Y-86407702D01*
X149552000Y-87176000D01*
X150319035Y-87176000D01*
X150338799Y-87017213D01*
X150303490Y-86931915D01*
X150061118Y-86601600D01*
X149710790Y-86389180D01*
X149552000Y-86407702D01*
X149152000Y-86407702D01*
X148993210Y-86389180D01*
X148642882Y-86601600D01*
X148400510Y-86931915D01*
X148365201Y-87017213D01*
X142104682Y-87017213D01*
X142637143Y-86797205D01*
X143087623Y-86347511D01*
X143331722Y-85759656D01*
X143332277Y-85123137D01*
X143089205Y-84534857D01*
X142639511Y-84084377D01*
X142051656Y-83840278D01*
X141415137Y-83839723D01*
X140826857Y-84082795D01*
X140376377Y-84532489D01*
X140132278Y-85120344D01*
X140131723Y-85756863D01*
X135228000Y-85756863D01*
X135228000Y-81431981D01*
X150603645Y-81431981D01*
X150915081Y-82185715D01*
X151491252Y-82762892D01*
X152244441Y-83075643D01*
X153059981Y-83076355D01*
X153813715Y-82764919D01*
X154390892Y-82188748D01*
X154703643Y-81435559D01*
X154704355Y-80620019D01*
X154392919Y-79866285D01*
X153816748Y-79289108D01*
X153063559Y-78976357D01*
X152248019Y-78975645D01*
X151494285Y-79287081D01*
X150917108Y-79863252D01*
X150604357Y-80616441D01*
X150603645Y-81431981D01*
X135228000Y-81431981D01*
X135228000Y-80051422D01*
X136439422Y-78840000D01*
X170144921Y-78840000D01*
X171350000Y-79804063D01*
M02*
