M48
;DRILL file {KiCad 4.0.7} date 06/13/18 22:56:41
;FORMAT={-:-/ absolute / inch / decimal}
FMAT,2
INCH,TZ
T1C0.016
T2C0.031
T3C0.039
T4C0.063
T5C0.087
%
G90
G05
M72
T1
X5.34Y-4.14
X5.35Y-4.2
X5.38Y-4.27
X5.43Y-4.49
X5.51Y-4.29
X5.51Y-4.54
X5.54Y-4.26
X5.54Y-4.32
X5.62Y-3.72
X5.64Y-4.22
X5.69Y-4.34
X5.7Y-4.29
X5.71Y-3.86
X5.71Y-4.4
X5.73Y-4.2
X5.73Y-4.24
X5.85Y-4.48
X5.88Y-4.4
X5.92Y-4.34
X6.07Y-4.31
T2
X5.88Y-3.34
X5.88Y-3.44
X5.88Y-3.54
X5.88Y-3.64
X5.88Y-3.74
X5.88Y-3.84
X5.88Y-3.94
X5.88Y-4.04
X6.17Y-3.35
X6.38Y-3.34
X6.38Y-3.44
X6.38Y-3.54
X6.38Y-3.64
X6.38Y-3.74
X6.38Y-3.84
X6.38Y-3.94
X6.38Y-4.04
X6.5Y-3.48
T3
X5.4Y-3.72
X5.4Y-3.82
X5.4Y-3.92
X5.4Y-4.02
X5.5Y-3.72
X5.5Y-3.82
X5.5Y-3.92
X5.5Y-4.02
X5.6Y-4.6
X5.7Y-4.6
X5.88Y-4.6
X5.98Y-4.6
X6.2Y-4.36
X6.2Y-4.46
X6.2Y-4.56
X6.3Y-4.36
X6.3Y-4.46
X6.3Y-4.56
X6.6Y-4.24
X6.6Y-4.34
X6.6Y-4.44
T4
X5.395Y-3.4819
X5.58Y-3.3638
X5.58Y-3.6
T5
X5.42Y-4.6
X6.01Y-3.19
X6.66Y-4.61
T0
M30
