G04 #@! TF.FileFunction,Legend,Top*
%FSLAX46Y46*%
G04 Gerber Fmt 4.6, Leading zero omitted, Abs format (unit mm)*
G04 Created by KiCad (PCBNEW 4.0.7) date 06/13/18 22:56:11*
%MOMM*%
%LPD*%
G01*
G04 APERTURE LIST*
%ADD10C,0.100000*%
%ADD11C,0.150000*%
%ADD12C,0.120000*%
G04 APERTURE END LIST*
D10*
D11*
X157186476Y-107640381D02*
X156853142Y-107164190D01*
X156615047Y-107640381D02*
X156615047Y-106640381D01*
X156996000Y-106640381D01*
X157091238Y-106688000D01*
X157138857Y-106735619D01*
X157186476Y-106830857D01*
X157186476Y-106973714D01*
X157138857Y-107068952D01*
X157091238Y-107116571D01*
X156996000Y-107164190D01*
X156615047Y-107164190D01*
X157996000Y-107592762D02*
X157900762Y-107640381D01*
X157710285Y-107640381D01*
X157615047Y-107592762D01*
X157567428Y-107497524D01*
X157567428Y-107116571D01*
X157615047Y-107021333D01*
X157710285Y-106973714D01*
X157900762Y-106973714D01*
X157996000Y-107021333D01*
X158043619Y-107116571D01*
X158043619Y-107211810D01*
X157567428Y-107307048D01*
X158376952Y-106973714D02*
X158615047Y-107640381D01*
X158853143Y-106973714D01*
X159948381Y-107354667D02*
X160424572Y-107354667D01*
X159853143Y-107640381D02*
X160186476Y-106640381D01*
X160519810Y-107640381D01*
X147923999Y-105322667D02*
X148400190Y-105322667D01*
X147828761Y-105608381D02*
X148162094Y-104608381D01*
X148495428Y-105608381D01*
X149257333Y-104941714D02*
X149257333Y-105608381D01*
X148828761Y-104941714D02*
X148828761Y-105465524D01*
X148876380Y-105560762D01*
X148971618Y-105608381D01*
X149114476Y-105608381D01*
X149209714Y-105560762D01*
X149257333Y-105513143D01*
X149590666Y-104941714D02*
X149971618Y-104941714D01*
X149733523Y-104608381D02*
X149733523Y-105465524D01*
X149781142Y-105560762D01*
X149876380Y-105608381D01*
X149971618Y-105608381D01*
X150447809Y-105608381D02*
X150352571Y-105560762D01*
X150304952Y-105513143D01*
X150257333Y-105417905D01*
X150257333Y-105132190D01*
X150304952Y-105036952D01*
X150352571Y-104989333D01*
X150447809Y-104941714D01*
X150590667Y-104941714D01*
X150685905Y-104989333D01*
X150733524Y-105036952D01*
X150781143Y-105132190D01*
X150781143Y-105417905D01*
X150733524Y-105513143D01*
X150685905Y-105560762D01*
X150590667Y-105608381D01*
X150447809Y-105608381D01*
X151876381Y-104608381D02*
X152114476Y-105608381D01*
X152304953Y-104894095D01*
X152495429Y-105608381D01*
X152733524Y-104608381D01*
X153114476Y-105608381D02*
X153114476Y-104941714D01*
X153114476Y-104608381D02*
X153066857Y-104656000D01*
X153114476Y-104703619D01*
X153162095Y-104656000D01*
X153114476Y-104608381D01*
X153114476Y-104703619D01*
X153590666Y-105608381D02*
X153590666Y-104941714D01*
X153590666Y-105132190D02*
X153638285Y-105036952D01*
X153685904Y-104989333D01*
X153781142Y-104941714D01*
X153876381Y-104941714D01*
X154590667Y-105560762D02*
X154495429Y-105608381D01*
X154304952Y-105608381D01*
X154209714Y-105560762D01*
X154162095Y-105465524D01*
X154162095Y-105084571D01*
X154209714Y-104989333D01*
X154304952Y-104941714D01*
X154495429Y-104941714D01*
X154590667Y-104989333D01*
X154638286Y-105084571D01*
X154638286Y-105179810D01*
X154162095Y-105275048D01*
X156400191Y-105513143D02*
X156352572Y-105560762D01*
X156209715Y-105608381D01*
X156114477Y-105608381D01*
X155971619Y-105560762D01*
X155876381Y-105465524D01*
X155828762Y-105370286D01*
X155781143Y-105179810D01*
X155781143Y-105036952D01*
X155828762Y-104846476D01*
X155876381Y-104751238D01*
X155971619Y-104656000D01*
X156114477Y-104608381D01*
X156209715Y-104608381D01*
X156352572Y-104656000D01*
X156400191Y-104703619D01*
X157257334Y-104941714D02*
X157257334Y-105608381D01*
X156828762Y-104941714D02*
X156828762Y-105465524D01*
X156876381Y-105560762D01*
X156971619Y-105608381D01*
X157114477Y-105608381D01*
X157209715Y-105560762D01*
X157257334Y-105513143D01*
X157590667Y-104941714D02*
X157971619Y-104941714D01*
X157733524Y-104608381D02*
X157733524Y-105465524D01*
X157781143Y-105560762D01*
X157876381Y-105608381D01*
X157971619Y-105608381D01*
X158162096Y-104941714D02*
X158543048Y-104941714D01*
X158304953Y-104608381D02*
X158304953Y-105465524D01*
X158352572Y-105560762D01*
X158447810Y-105608381D01*
X158543048Y-105608381D01*
X159257335Y-105560762D02*
X159162097Y-105608381D01*
X158971620Y-105608381D01*
X158876382Y-105560762D01*
X158828763Y-105465524D01*
X158828763Y-105084571D01*
X158876382Y-104989333D01*
X158971620Y-104941714D01*
X159162097Y-104941714D01*
X159257335Y-104989333D01*
X159304954Y-105084571D01*
X159304954Y-105179810D01*
X158828763Y-105275048D01*
X159733525Y-105608381D02*
X159733525Y-104941714D01*
X159733525Y-105132190D02*
X159781144Y-105036952D01*
X159828763Y-104989333D01*
X159924001Y-104941714D01*
X160019240Y-104941714D01*
D12*
X150622000Y-104016000D02*
X150622000Y-83436000D01*
X160782000Y-101346000D02*
X160782000Y-83436000D01*
X162052000Y-104016000D02*
X163452000Y-104016000D01*
X163452000Y-104016000D02*
X163452000Y-102616000D01*
X160782000Y-104016000D02*
X160782000Y-101346000D01*
X160782000Y-101346000D02*
X163452000Y-101346000D01*
X163452000Y-101346000D02*
X163452000Y-83436000D01*
X163452000Y-83436000D02*
X147952000Y-83436000D01*
X147952000Y-83436000D02*
X147952000Y-104016000D01*
X147952000Y-104016000D02*
X160782000Y-104016000D01*
X136994000Y-111752000D02*
X136994000Y-110752000D01*
X135294000Y-110752000D02*
X135294000Y-111752000D01*
X164592000Y-81028000D02*
X166012000Y-81028000D01*
X163832000Y-87628000D02*
X166012000Y-87628000D01*
X170432000Y-87628000D02*
X168252000Y-87628000D01*
X169672000Y-81028000D02*
X168252000Y-81028000D01*
X163832000Y-87628000D02*
X163832000Y-81788000D01*
X163832000Y-81788000D02*
X164592000Y-81028000D01*
X169672000Y-81028000D02*
X170432000Y-81788000D01*
X170432000Y-81788000D02*
X170432000Y-87628000D01*
X141030000Y-93158000D02*
X135830000Y-93158000D01*
X141030000Y-100838000D02*
X141030000Y-93158000D01*
X135830000Y-103438000D02*
X135830000Y-93158000D01*
X141030000Y-100838000D02*
X138430000Y-100838000D01*
X138430000Y-100838000D02*
X138430000Y-103438000D01*
X138430000Y-103438000D02*
X135830000Y-103438000D01*
X141030000Y-102108000D02*
X141030000Y-103438000D01*
X141030000Y-103438000D02*
X139700000Y-103438000D01*
X156150000Y-117154000D02*
X161350000Y-117154000D01*
X156150000Y-112014000D02*
X156150000Y-117154000D01*
X161350000Y-109414000D02*
X161350000Y-117154000D01*
X156150000Y-112014000D02*
X158750000Y-112014000D01*
X158750000Y-112014000D02*
X158750000Y-109414000D01*
X158750000Y-109414000D02*
X161350000Y-109414000D01*
X156150000Y-110744000D02*
X156150000Y-109414000D01*
X156150000Y-109414000D02*
X157480000Y-109414000D01*
X137132000Y-86640000D02*
X137132000Y-77640000D01*
X137132000Y-77640000D02*
X146332000Y-77640000D01*
X146332000Y-77640000D02*
X146332000Y-92240000D01*
X146332000Y-92240000D02*
X143532000Y-92240000D01*
X139932000Y-92240000D02*
X137132000Y-92240000D01*
X137132000Y-92240000D02*
X137132000Y-90240000D01*
X146572000Y-90740000D02*
X146572000Y-92480000D01*
X146572000Y-92480000D02*
X144832000Y-92480000D01*
X153222000Y-118280000D02*
X148022000Y-118280000D01*
X148022000Y-118280000D02*
X148022000Y-120940000D01*
X148022000Y-120940000D02*
X153222000Y-120940000D01*
X153222000Y-120940000D02*
X153222000Y-118280000D01*
X152272000Y-120940000D02*
X152272000Y-126940000D01*
X152272000Y-126940000D02*
X151512000Y-126940000D01*
X151512000Y-126940000D02*
X151512000Y-120940000D01*
X152212000Y-120940000D02*
X152212000Y-126940000D01*
X152092000Y-120940000D02*
X152092000Y-126940000D01*
X151972000Y-120940000D02*
X151972000Y-126940000D01*
X151852000Y-120940000D02*
X151852000Y-126940000D01*
X151732000Y-120940000D02*
X151732000Y-126940000D01*
X151612000Y-120940000D02*
X151612000Y-126940000D01*
X152272000Y-117950000D02*
X152272000Y-118280000D01*
X151512000Y-117950000D02*
X151512000Y-118280000D01*
X150622000Y-118280000D02*
X150622000Y-120940000D01*
X149732000Y-120940000D02*
X149732000Y-126940000D01*
X149732000Y-126940000D02*
X148972000Y-126940000D01*
X148972000Y-126940000D02*
X148972000Y-120940000D01*
X149732000Y-117882929D02*
X149732000Y-118280000D01*
X148972000Y-117882929D02*
X148972000Y-118280000D01*
X151892000Y-115570000D02*
X153162000Y-115570000D01*
X153162000Y-115570000D02*
X153162000Y-116840000D01*
X146110000Y-118280000D02*
X140910000Y-118280000D01*
X140910000Y-118280000D02*
X140910000Y-120940000D01*
X140910000Y-120940000D02*
X146110000Y-120940000D01*
X146110000Y-120940000D02*
X146110000Y-118280000D01*
X145160000Y-120940000D02*
X145160000Y-126940000D01*
X145160000Y-126940000D02*
X144400000Y-126940000D01*
X144400000Y-126940000D02*
X144400000Y-120940000D01*
X145100000Y-120940000D02*
X145100000Y-126940000D01*
X144980000Y-120940000D02*
X144980000Y-126940000D01*
X144860000Y-120940000D02*
X144860000Y-126940000D01*
X144740000Y-120940000D02*
X144740000Y-126940000D01*
X144620000Y-120940000D02*
X144620000Y-126940000D01*
X144500000Y-120940000D02*
X144500000Y-126940000D01*
X145160000Y-117950000D02*
X145160000Y-118280000D01*
X144400000Y-117950000D02*
X144400000Y-118280000D01*
X143510000Y-118280000D02*
X143510000Y-120940000D01*
X142620000Y-120940000D02*
X142620000Y-126940000D01*
X142620000Y-126940000D02*
X141860000Y-126940000D01*
X141860000Y-126940000D02*
X141860000Y-120940000D01*
X142620000Y-117882929D02*
X142620000Y-118280000D01*
X141860000Y-117882929D02*
X141860000Y-118280000D01*
X144780000Y-115570000D02*
X146050000Y-115570000D01*
X146050000Y-115570000D02*
X146050000Y-116840000D01*
X169080000Y-106366000D02*
X169080000Y-114106000D01*
X169080000Y-114106000D02*
X171740000Y-114106000D01*
X171740000Y-114106000D02*
X171740000Y-106366000D01*
X171740000Y-106366000D02*
X169080000Y-106366000D01*
X171740000Y-107316000D02*
X177740000Y-107316000D01*
X177740000Y-107316000D02*
X177740000Y-108076000D01*
X177740000Y-108076000D02*
X171740000Y-108076000D01*
X171740000Y-107376000D02*
X177740000Y-107376000D01*
X171740000Y-107496000D02*
X177740000Y-107496000D01*
X171740000Y-107616000D02*
X177740000Y-107616000D01*
X171740000Y-107736000D02*
X177740000Y-107736000D01*
X171740000Y-107856000D02*
X177740000Y-107856000D01*
X171740000Y-107976000D02*
X177740000Y-107976000D01*
X168750000Y-107316000D02*
X169080000Y-107316000D01*
X168750000Y-108076000D02*
X169080000Y-108076000D01*
X169080000Y-108966000D02*
X171740000Y-108966000D01*
X171740000Y-109856000D02*
X177740000Y-109856000D01*
X177740000Y-109856000D02*
X177740000Y-110616000D01*
X177740000Y-110616000D02*
X171740000Y-110616000D01*
X168682929Y-109856000D02*
X169080000Y-109856000D01*
X168682929Y-110616000D02*
X169080000Y-110616000D01*
X169080000Y-111506000D02*
X171740000Y-111506000D01*
X171740000Y-112396000D02*
X177740000Y-112396000D01*
X177740000Y-112396000D02*
X177740000Y-113156000D01*
X177740000Y-113156000D02*
X171740000Y-113156000D01*
X168682929Y-112396000D02*
X169080000Y-112396000D01*
X168682929Y-113156000D02*
X169080000Y-113156000D01*
X166370000Y-107696000D02*
X166370000Y-106426000D01*
X166370000Y-106426000D02*
X167640000Y-106426000D01*
D11*
X155146476Y-81986381D02*
X155146476Y-80986381D01*
X155479810Y-81700667D01*
X155813143Y-80986381D01*
X155813143Y-81986381D01*
X156194095Y-80986381D02*
X156813143Y-80986381D01*
X156479809Y-81367333D01*
X156622667Y-81367333D01*
X156717905Y-81414952D01*
X156765524Y-81462571D01*
X156813143Y-81557810D01*
X156813143Y-81795905D01*
X156765524Y-81891143D01*
X156717905Y-81938762D01*
X156622667Y-81986381D01*
X156336952Y-81986381D01*
X156241714Y-81938762D01*
X156194095Y-81891143D01*
X165433476Y-118702081D02*
X165433476Y-117702081D01*
X165766810Y-118416367D01*
X166100143Y-117702081D01*
X166100143Y-118702081D01*
X167100143Y-118702081D02*
X166528714Y-118702081D01*
X166814428Y-118702081D02*
X166814428Y-117702081D01*
X166719190Y-117844938D01*
X166623952Y-117940176D01*
X166528714Y-117987795D01*
X135436076Y-114752381D02*
X135436076Y-113752381D01*
X135769410Y-114466667D01*
X136102743Y-113752381D01*
X136102743Y-114752381D01*
X136531314Y-113847619D02*
X136578933Y-113800000D01*
X136674171Y-113752381D01*
X136912267Y-113752381D01*
X137007505Y-113800000D01*
X137055124Y-113847619D01*
X137102743Y-113942857D01*
X137102743Y-114038095D01*
X137055124Y-114180952D01*
X136483695Y-114752381D01*
X137102743Y-114752381D01*
X151177714Y-85002667D02*
X151653905Y-85002667D01*
X151082476Y-85288381D02*
X151415809Y-84288381D01*
X151749143Y-85288381D01*
X152606286Y-85288381D02*
X152034857Y-85288381D01*
X152320571Y-85288381D02*
X152320571Y-84288381D01*
X152225333Y-84431238D01*
X152130095Y-84526476D01*
X152034857Y-84574095D01*
X136145543Y-108065866D02*
X136193162Y-108113485D01*
X136240781Y-108256342D01*
X136240781Y-108351580D01*
X136193162Y-108494438D01*
X136097924Y-108589676D01*
X136002686Y-108637295D01*
X135812210Y-108684914D01*
X135669352Y-108684914D01*
X135478876Y-108637295D01*
X135383638Y-108589676D01*
X135288400Y-108494438D01*
X135240781Y-108351580D01*
X135240781Y-108256342D01*
X135288400Y-108113485D01*
X135336019Y-108065866D01*
X136240781Y-107113485D02*
X136240781Y-107684914D01*
X136240781Y-107399200D02*
X135240781Y-107399200D01*
X135383638Y-107494438D01*
X135478876Y-107589676D01*
X135526495Y-107684914D01*
X163059143Y-84494666D02*
X163106762Y-84542285D01*
X163154381Y-84685142D01*
X163154381Y-84780380D01*
X163106762Y-84923238D01*
X163011524Y-85018476D01*
X162916286Y-85066095D01*
X162725810Y-85113714D01*
X162582952Y-85113714D01*
X162392476Y-85066095D01*
X162297238Y-85018476D01*
X162202000Y-84923238D01*
X162154381Y-84780380D01*
X162154381Y-84685142D01*
X162202000Y-84542285D01*
X162249619Y-84494666D01*
X162249619Y-84113714D02*
X162202000Y-84066095D01*
X162154381Y-83970857D01*
X162154381Y-83732761D01*
X162202000Y-83637523D01*
X162249619Y-83589904D01*
X162344857Y-83542285D01*
X162440095Y-83542285D01*
X162582952Y-83589904D01*
X163154381Y-84161333D01*
X163154381Y-83542285D01*
X164293429Y-80428952D02*
X164293429Y-79667047D01*
X164674381Y-80047999D02*
X163912476Y-80047999D01*
X141906667Y-95210381D02*
X141906667Y-95924667D01*
X141859047Y-96067524D01*
X141763809Y-96162762D01*
X141620952Y-96210381D01*
X141525714Y-96210381D01*
X142906667Y-96210381D02*
X142335238Y-96210381D01*
X142620952Y-96210381D02*
X142620952Y-95210381D01*
X142525714Y-95353238D01*
X142430476Y-95448476D01*
X142335238Y-95496095D01*
X162226667Y-111466381D02*
X162226667Y-112180667D01*
X162179047Y-112323524D01*
X162083809Y-112418762D01*
X161940952Y-112466381D01*
X161845714Y-112466381D01*
X162655238Y-111561619D02*
X162702857Y-111514000D01*
X162798095Y-111466381D01*
X163036191Y-111466381D01*
X163131429Y-111514000D01*
X163179048Y-111561619D01*
X163226667Y-111656857D01*
X163226667Y-111752095D01*
X163179048Y-111894952D01*
X162607619Y-112466381D01*
X163226667Y-112466381D01*
X135434381Y-83323333D02*
X136148667Y-83323333D01*
X136291524Y-83370953D01*
X136386762Y-83466191D01*
X136434381Y-83609048D01*
X136434381Y-83704286D01*
X135862952Y-82704286D02*
X135815333Y-82799524D01*
X135767714Y-82847143D01*
X135672476Y-82894762D01*
X135624857Y-82894762D01*
X135529619Y-82847143D01*
X135482000Y-82799524D01*
X135434381Y-82704286D01*
X135434381Y-82513809D01*
X135482000Y-82418571D01*
X135529619Y-82370952D01*
X135624857Y-82323333D01*
X135672476Y-82323333D01*
X135767714Y-82370952D01*
X135815333Y-82418571D01*
X135862952Y-82513809D01*
X135862952Y-82704286D01*
X135910571Y-82799524D01*
X135958190Y-82847143D01*
X136053429Y-82894762D01*
X136243905Y-82894762D01*
X136339143Y-82847143D01*
X136386762Y-82799524D01*
X136434381Y-82704286D01*
X136434381Y-82513809D01*
X136386762Y-82418571D01*
X136339143Y-82370952D01*
X136243905Y-82323333D01*
X136053429Y-82323333D01*
X135958190Y-82370952D01*
X135910571Y-82418571D01*
X135862952Y-82513809D01*
X151725334Y-115387381D02*
X151392000Y-114911190D01*
X151153905Y-115387381D02*
X151153905Y-114387381D01*
X151534858Y-114387381D01*
X151630096Y-114435000D01*
X151677715Y-114482619D01*
X151725334Y-114577857D01*
X151725334Y-114720714D01*
X151677715Y-114815952D01*
X151630096Y-114863571D01*
X151534858Y-114911190D01*
X151153905Y-114911190D01*
X152058667Y-114387381D02*
X152725334Y-115387381D01*
X152725334Y-114387381D02*
X152058667Y-115387381D01*
X144684905Y-115323929D02*
X145446810Y-115323929D01*
X145065858Y-115704881D02*
X145065858Y-114942976D01*
X146399191Y-114704881D02*
X145923000Y-114704881D01*
X145875381Y-115181071D01*
X145923000Y-115133452D01*
X146018238Y-115085833D01*
X146256334Y-115085833D01*
X146351572Y-115133452D01*
X146399191Y-115181071D01*
X146446810Y-115276310D01*
X146446810Y-115514405D01*
X146399191Y-115609643D01*
X146351572Y-115657262D01*
X146256334Y-115704881D01*
X146018238Y-115704881D01*
X145923000Y-115657262D01*
X145875381Y-115609643D01*
X146780143Y-115038214D02*
X147018238Y-115704881D01*
X147256334Y-115038214D01*
X165028571Y-111997904D02*
X165076190Y-111855047D01*
X165123810Y-111807428D01*
X165219048Y-111759809D01*
X165361905Y-111759809D01*
X165457143Y-111807428D01*
X165504762Y-111855047D01*
X165552381Y-111950285D01*
X165552381Y-112331238D01*
X164552381Y-112331238D01*
X164552381Y-111997904D01*
X164600000Y-111902666D01*
X164647619Y-111855047D01*
X164742857Y-111807428D01*
X164838095Y-111807428D01*
X164933333Y-111855047D01*
X164980952Y-111902666D01*
X165028571Y-111997904D01*
X165028571Y-112331238D01*
X165552381Y-109997904D02*
X165076190Y-110331238D01*
X165552381Y-110569333D02*
X164552381Y-110569333D01*
X164552381Y-110188380D01*
X164600000Y-110093142D01*
X164647619Y-110045523D01*
X164742857Y-109997904D01*
X164885714Y-109997904D01*
X164980952Y-110045523D01*
X165028571Y-110093142D01*
X165076190Y-110188380D01*
X165076190Y-110569333D01*
X164552381Y-108902666D02*
X165552381Y-108664571D01*
X164838095Y-108474094D01*
X165552381Y-108283618D01*
X164552381Y-108045523D01*
M02*
