G04 #@! TF.FileFunction,Soldermask,Bot*
%FSLAX46Y46*%
G04 Gerber Fmt 4.6, Leading zero omitted, Abs format (unit mm)*
G04 Created by KiCad (PCBNEW 4.0.7) date 06/14/18 07:59:11*
%MOMM*%
%LPD*%
G01*
G04 APERTURE LIST*
%ADD10C,0.100000*%
%ADD11C,3.601600*%
%ADD12R,1.701600X1.701600*%
%ADD13O,1.701600X1.701600*%
%ADD14R,1.601600X1.351600*%
%ADD15R,3.301600X2.601600*%
%ADD16R,1.801600X1.801600*%
%ADD17O,1.801600X1.801600*%
%ADD18R,2.701600X2.701600*%
%ADD19C,2.701600*%
%ADD20R,1.701600X0.651600*%
%ADD21R,0.651600X1.701600*%
%ADD22R,0.901600X1.001600*%
%ADD23R,2.101600X3.901600*%
%ADD24R,2.101600X1.601600*%
%ADD25R,5.601600X1.101600*%
%ADD26R,3.101600X1.701600*%
G04 APERTURE END LIST*
D10*
D11*
X152654000Y-81026000D03*
X169164000Y-117094000D03*
X137668000Y-116840000D03*
D12*
X162052000Y-102616000D03*
D13*
X149352000Y-84836000D03*
X162052000Y-100076000D03*
X149352000Y-87376000D03*
X162052000Y-97536000D03*
X149352000Y-89916000D03*
X162052000Y-94996000D03*
X149352000Y-92456000D03*
X162052000Y-92456000D03*
X149352000Y-94996000D03*
X162052000Y-89916000D03*
X149352000Y-97536000D03*
X162052000Y-87376000D03*
X149352000Y-100076000D03*
X162052000Y-84836000D03*
X149352000Y-102616000D03*
D14*
X144546000Y-90424000D03*
X147046000Y-90424000D03*
X144038000Y-96012000D03*
X146538000Y-96012000D03*
X156698000Y-94996000D03*
X154198000Y-94996000D03*
D15*
X159394000Y-105664000D03*
X163694000Y-105664000D03*
D16*
X139700000Y-102108000D03*
D17*
X137160000Y-102108000D03*
X139700000Y-99568000D03*
X137160000Y-99568000D03*
X139700000Y-97028000D03*
X137160000Y-97028000D03*
X139700000Y-94488000D03*
X137160000Y-94488000D03*
D16*
X157480000Y-110744000D03*
D17*
X160020000Y-110744000D03*
X157480000Y-113284000D03*
X160020000Y-113284000D03*
X157480000Y-115824000D03*
X160020000Y-115824000D03*
D18*
X141732000Y-91440000D03*
D19*
X141732000Y-85440000D03*
X137032000Y-88440000D03*
D20*
X138498000Y-112020000D03*
X138498000Y-111220000D03*
X138498000Y-110420000D03*
X138498000Y-109620000D03*
X138498000Y-108820000D03*
X138498000Y-108020000D03*
X138498000Y-107220000D03*
X138498000Y-106420000D03*
D21*
X139948000Y-104970000D03*
X140748000Y-104970000D03*
X141548000Y-104970000D03*
X142348000Y-104970000D03*
X143148000Y-104970000D03*
X143948000Y-104970000D03*
X144748000Y-104970000D03*
X145548000Y-104970000D03*
D20*
X146998000Y-106420000D03*
X146998000Y-107220000D03*
X146998000Y-108020000D03*
X146998000Y-108820000D03*
X146998000Y-109620000D03*
X146998000Y-110420000D03*
X146998000Y-111220000D03*
X146998000Y-112020000D03*
D21*
X145548000Y-113470000D03*
X144748000Y-113470000D03*
X143948000Y-113470000D03*
X143148000Y-113470000D03*
X142348000Y-113470000D03*
X141548000Y-113470000D03*
X140748000Y-113470000D03*
X139948000Y-113470000D03*
D22*
X146238000Y-94472000D03*
X144338000Y-94472000D03*
X145288000Y-92472000D03*
D23*
X151790000Y-100076000D03*
D24*
X158090000Y-100076000D03*
X158090000Y-102376000D03*
X158090000Y-97776000D03*
D16*
X151892000Y-116840000D03*
D17*
X149352000Y-116840000D03*
D16*
X144780000Y-116840000D03*
D17*
X142240000Y-116840000D03*
D16*
X167640000Y-107696000D03*
D17*
X167640000Y-110236000D03*
X167640000Y-112776000D03*
D25*
X166515000Y-99012000D03*
X166515000Y-97012000D03*
X166515000Y-95012000D03*
X166515000Y-93012000D03*
D26*
X168765000Y-101412000D03*
X168765000Y-90612000D03*
M02*
